<svg id="Grupo_1105373" data-name="Grupo 1105373" xmlns="http://www.w3.org/2000/svg" xmlns:xlink="http://www.w3.org/1999/xlink" width="51.569" height="63.533" viewBox="0 0 51.569 63.533">
  <defs>
    <clipPath id="clip-path">
      <rect id="Rectángulo_404440" data-name="Rectángulo 404440" width="51.569" height="63.533" fill="#fff"/>
    </clipPath>
  </defs>
  <g id="Grupo_1105372" data-name="Grupo 1105372" clip-path="url(#clip-path)">
    <path id="Trazado_883875" data-name="Trazado 883875" d="M49.612,40.2c-.426.147-.9.486-1.292.409-.968-.191-.686-1.1-.724-1.842-.347-.021-.638-.054-.928-.054-2.857,0-5.715.006-8.572,0a15.838,15.838,0,0,0-5.664.9,8.047,8.047,0,0,0-5.607,8.077c-.023,4.663-.006,9.327-.006,13.991,0,.271.012.543-.012.812-.058.646-.474,1.078-1.02,1.025a.958.958,0,0,1-.942-1.011c-.012-.27-.009-.541-.009-.812,0-4.513.038-9.027-.025-13.539a14.482,14.482,0,0,0-.537-3.994,7.238,7.238,0,0,0-5.682-4.989,16.17,16.17,0,0,0-3.475-.436c-3.458-.057-6.918-.023-10.377-.021-.208,0-.415.029-.52.036a4.881,4.881,0,0,1-.64,1.729c-.494.514-1.091.118-1.663-.558.168,2.207.223,4.2.488,6.157.586,4.346,1.27,8.679,1.931,13.015.163,1.068.425,2.121.574,3.191.112.8-.461,1.378-1.133,1.22-.59-.139-.761-.6-.855-1.14-.4-2.308-.84-4.609-1.224-6.92A118.705,118.705,0,0,1,.017,40.856,31.314,31.314,0,0,1,1.575,30.745c1.4-4.782,2.825-9.559,4.346-14.3A21.564,21.564,0,0,0,5.2,1.716c-.043-.112-.112-.215-.146-.328A.973.973,0,0,1,5.64.063.93.93,0,0,1,6.885.656,32.928,32.928,0,0,1,7.973,3.8a20.49,20.49,0,0,1,.844,8.38,55.763,55.763,0,0,1-1.684,7.086C6.385,21.924,5.5,24.541,4.67,27.175c-.053.168-.079.344-.13.571h42.6c-.5-1.591-1.014-3.122-1.452-4.676-.952-3.378-1.928-6.752-2.764-10.159a15.346,15.346,0,0,1,.054-5.74A25.684,25.684,0,0,1,44.659.834c.213-.519.542-.884,1.146-.819.713.077,1.042.746.72,1.525a25.461,25.461,0,0,0-1.617,6.167,16.144,16.144,0,0,0,.38,6.964c1.294,4.375,2.643,8.734,3.936,13.109a44.6,44.6,0,0,1,2.258,10.088,39.234,39.234,0,0,1-.152,7.018c-.679,5.423-1.569,10.82-2.378,16.226-.075.5-.175,1.006-.289,1.5a1.024,1.024,0,0,1-1.144.9.968.968,0,0,1-.8-1.209c.31-1.9.693-3.781,1.01-5.677a138.236,138.236,0,0,0,1.875-15.113c.028-.5,0-1,0-1.312M47.82,29.822H3.88A49.314,49.314,0,0,0,2.31,36.728H3.5c3.669,0,7.338-.039,11.006.02a22.385,22.385,0,0,1,4.289.438,9.62,9.62,0,0,1,6.768,4.928c.1.19.217.375.32.552.542-.72,1-1.436,1.559-2.053a11.843,11.843,0,0,1,8.514-3.769c4.082-.19,8.176-.091,12.266-.117.348,0,.7,0,1.231,0L47.82,29.822" transform="translate(0 0)" fill="#fff"/>
    <path id="Trazado_883876" data-name="Trazado 883876" d="M257.446,259.006a15.056,15.056,0,0,1-.578,2.383,1.333,1.333,0,0,1-1.011.647.837.837,0,0,1-.828-.979,13.933,13.933,0,0,1,.465-2.278.821.821,0,0,1,1.148-.562c.347.154.582.561.8.788" transform="translate(-209.006 -211.561)" fill="#fff"/>
    <path id="Trazado_883877" data-name="Trazado 883877" d="M156,277.171c0,.329.022.659,0,.985a.942.942,0,0,1-.964.975.917.917,0,0,1-.992-.939,16.54,16.54,0,0,1,0-2.059.976.976,0,0,1,1.947-.036,8.765,8.765,0,0,1,.008,1.074h0" transform="translate(-126.222 -225.545)" fill="#fff"/>
    <path id="Trazado_883878" data-name="Trazado 883878" d="M26.435,288.164c-.253.253-.493.649-.841.8a.781.781,0,0,1-1.077-.531,15.224,15.224,0,0,1-.563-2.341.951.951,0,0,1,1.837-.374c.237.736.4,1.5.644,2.442" transform="translate(-19.624 -233.664)" fill="#fff"/>
    <path id="Trazado_883879" data-name="Trazado 883879" d="M154.088,332.2c0-.328-.02-.658,0-.985a.94.94,0,0,1,.958-.98.915.915,0,0,1,1,.932,15.956,15.956,0,0,1,0,2.058.918.918,0,0,1-1,.936.941.941,0,0,1-.961-.977c-.025-.327,0-.656,0-.985" transform="translate(-126.278 -270.649)" fill="#fff"/>
    <path id="Trazado_883880" data-name="Trazado 883880" d="M15.569,233.825c.008.7-.286,1.1-.869,1.172a.913.913,0,0,1-1.066-.752,14.008,14.008,0,0,1-.329-2.124.92.92,0,0,1,.823-1.017.884.884,0,0,1,1.087.706c.166.7.251,1.411.353,2.016" transform="translate(-10.903 -189.389)" fill="#fff"/>
    <path id="Trazado_883881" data-name="Trazado 883881" d="M262.488,232.105c-.1.724-.171,1.38-.3,2.023a.98.98,0,0,1-1.151.87.94.94,0,0,1-.8-1.116,20.287,20.287,0,0,1,.333-2.032.89.89,0,0,1,1.143-.732.948.948,0,0,1,.776.986" transform="translate(-213.272 -189.394)" fill="#fff"/>
    <path id="Trazado_883882" data-name="Trazado 883882" d="M20.459,260.933a1.027,1.027,0,0,1-.777,1.187.872.872,0,0,1-1.109-.664,16.3,16.3,0,0,1-.444-2.194.86.86,0,0,1,.713-1,.878.878,0,0,1,1.144.608c.216.711.338,1.452.473,2.06" transform="translate(-14.849 -211.632)" fill="#fff"/>
    <path id="Trazado_883883" data-name="Trazado 883883" d="M244.7,312.664c-.282.966-.467,1.754-.749,2.505a.784.784,0,0,1-1.119.442,1.263,1.263,0,0,1-.648-.915,10.681,10.681,0,0,1,.576-2.335.792.792,0,0,1,1.1-.5c.351.16.595.555.841.8" transform="translate(-198.481 -255.528)" fill="#fff"/>
    <path id="Trazado_883884" data-name="Trazado 883884" d="M122.929,249.753a5.716,5.716,0,0,1-.013,1.07.914.914,0,0,1-1.007.82.893.893,0,0,1-.918-.91,18.529,18.529,0,0,1-.005-2.057.9.9,0,0,1,.971-.95.939.939,0,0,1,.981.954,9.533,9.533,0,0,1,.007,1.073h-.017" transform="translate(-99.134 -203.027)" fill="#fff"/>
    <path id="Trazado_883885" data-name="Trazado 883885" d="M156.007,249.683c0,.328.025.659-.006.984a.939.939,0,0,1-.96.975.906.906,0,0,1-.994-.929,15.461,15.461,0,0,1,0-2.057.906.906,0,0,1,.993-.93.938.938,0,0,1,.961.973c.031.325.005.656.005.984" transform="translate(-126.223 -203.026)" fill="#fff"/>
    <path id="Trazado_883886" data-name="Trazado 883886" d="M122.934,277.235a6.31,6.31,0,0,1-.011,1.071.97.97,0,0,1-1.928-.08c-.039-.685-.034-1.374,0-2.059a.916.916,0,0,1,.97-.96.942.942,0,0,1,.986.954,10.244,10.244,0,0,1,.007,1.074Z" transform="translate(-99.14 -225.549)" fill="#fff"/>
    <path id="Trazado_883887" data-name="Trazado 883887" d="M251.316,286.3c-.17.635-.333,1.4-.583,2.128a.849.849,0,0,1-1.083.565.866.866,0,0,1-.724-.993,17.225,17.225,0,0,1,.521-2.265.849.849,0,0,1,1.067-.6c.533.115.794.491.8,1.163" transform="translate(-204 -233.662)" fill="#fff"/>
    <path id="Trazado_883888" data-name="Trazado 883888" d="M121.019,304.717a9.934,9.934,0,0,1,.007-1.073.906.906,0,0,1,.931-.9.884.884,0,0,1,.992.831,12.393,12.393,0,0,1,0,2.232.886.886,0,0,1-.971.856.925.925,0,0,1-.964-.963c-.027-.326,0-.656,0-.984h.006" transform="translate(-99.17 -248.118)" fill="#fff"/>
    <path id="Trazado_883889" data-name="Trazado 883889" d="M156.012,304.7c0,.3.018.6,0,.895-.048.667-.413,1.055-.973,1.063a.964.964,0,0,1-1-1.033,17.877,17.877,0,0,1,0-1.879.982.982,0,1,1,1.963-.03c.029.326.005.656.005.984Z" transform="translate(-126.226 -248.105)" fill="#fff"/>
    <path id="Trazado_883890" data-name="Trazado 883890" d="M33.169,314.8c-.253.245-.5.635-.849.785a.792.792,0,0,1-1.092-.511,9.892,9.892,0,0,1-.6-2.241,1.385,1.385,0,0,1,.685-1,.78.78,0,0,1,1.113.454c.283.751.461,1.541.739,2.51" transform="translate(-25.104 -255.492)" fill="#fff"/>
    <path id="Trazado_883891" data-name="Trazado 883891" d="M122.934,332.263a6.326,6.326,0,0,1-.011,1.071.97.97,0,0,1-1.928-.08c-.039-.684-.034-1.374,0-2.059a.916.916,0,0,1,.97-.96.942.942,0,0,1,.985.954,10.242,10.242,0,0,1,.007,1.074h-.018" transform="translate(-99.139 -270.648)" fill="#fff"/>
    <path id="Trazado_883892" data-name="Trazado 883892" d="M139.629,117.754a8.088,8.088,0,0,1-.009,1.079.89.89,0,0,1-.994.833.849.849,0,0,1-.91-.818,18.457,18.457,0,0,1,0-2.25.849.849,0,0,1,.9-.83.884.884,0,0,1,1.005.816,8.526,8.526,0,0,1,.01,1.169h0" transform="translate(-112.837 -94.878)" fill="#fff"/>
    <path id="Trazado_883893" data-name="Trazado 883893" d="M238.814,339.448c0,.795-.45,1.4-1.058,1.422a.986.986,0,0,1-1-1.025,1.38,1.38,0,0,1,1.076-1.441.994.994,0,0,1,.983,1.043" transform="translate(-194.035 -277.342)" fill="#fff"/>
    <path id="Trazado_883894" data-name="Trazado 883894" d="M39.977,339.84a.992.992,0,0,1-1,1.024c-.609-.021-1.056-.626-1.054-1.425A1,1,0,0,1,38.9,338.4a1.39,1.39,0,0,1,1.074,1.443" transform="translate(-31.078 -277.336)" fill="#fff"/>
  </g>
</svg>
