<svg xmlns="http://www.w3.org/2000/svg" xmlns:xlink="http://www.w3.org/1999/xlink" width="66.51" height="65.074" viewBox="0 0 66.51 65.074">
  <defs>
    <clipPath id="clip-path">
      <rect id="Rectángulo_404438" data-name="Rectángulo 404438" width="66.51" height="65.074" transform="translate(-2 -3)" fill="#fff" stroke="#fff" stroke-width="1"/>
    </clipPath>
  </defs>
  <g id="Grupo_1105367" data-name="Grupo 1105367" transform="translate(2 3)">
    <g id="Grupo_1105366" data-name="Grupo 1105366" clip-path="url(#clip-path)">
      <path id="Trazado_883854" data-name="Trazado 883854" d="M52.04,58.365c0,1.146,0,2.2,0,3.261-.007,1.138-.143,1.279-1.287,1.279q-19.435,0-38.871,0c-1.141,0-1.242-.114-1.245-1.3,0-1.035,0-2.071,0-3.244H1.465a1.788,1.788,0,0,1-.618-.014c-.3-.12-.7-.26-.822-.507-.1-.19.087-.633.28-.836,1.286-1.353,2.609-2.672,3.918-4,.248-.252.49-.511.8-.84-.345-.36-.663-.7-.988-1.03C2.9,49.971,1.734,48.828.622,47.636c-.291-.312-.64-.817-.576-1.159.123-.648.806-.437,1.282-.444,1.393-.02,2.787,0,4.181-.009.289,0,.579-.028.977-.049V44.792q0-19.924,0-39.849c0-1.477.015-1.494,1.492-1.495q5.07,0,10.14,0c1.122,0,1.239.12,1.24,1.209q0,14.543,0,29.086c0,.207.064.46-.03.612-.154.249-.407.589-.629.6s-.529-.322-.632-.572a2.663,2.663,0,0,1-.054-.967q0-13.654,0-27.307V4.9H7.934V7.476h3.847c.208,0,.416-.01.622.007.439.038.819.266.687.714a1.083,1.083,0,0,1-.767.634c-1.092.075-2.192.033-3.289.034H7.918v2.656c.7,0,1.374,0,2.044,0,.461,0,.852.1.847.663s-.394.659-.856.655c-.65-.007-1.3,0-2.024,0v2.8c1.416,0,2.777,0,4.138,0,.494,0,1.027,0,1.044.662.018.724-.555.729-1.075.73-1.357,0-2.715,0-4.125,0v2.637c.645,0,1.282-.009,1.919,0,.449.008.954,0,.973.634.021.682-.476.715-.982.711-.616-.005-1.232,0-1.906,0v2.654h3.647c.267,0,.534,0,.8,0,.443.012.752.192.758.68.006.5-.347.661-.763.681-.562.027-1.126.013-1.69.014-.886,0-1.772,0-2.735,0V27.8c.693,0,1.341-.015,1.989,0,.476.015.92.139.884.748-.032.54-.426.65-.885.646-.647,0-1.294,0-2,0v2.652h3.718a1.979,1.979,0,0,1,.79.026,3.222,3.222,0,0,1,.7.632c-.222.224-.423.608-.671.641a16.683,16.683,0,0,1-2.13.048c-.767,0-1.533,0-2.383,0v2.752c.613,0,1.2,0,1.788,0,.526,0,1.084.029,1.07.742-.013.652-.529.687-1.031.684-.591,0-1.182,0-1.842,0v2.649H54.561a2.522,2.522,0,0,1,.88.035c.231.091.552.39.535.567a1,1,0,0,1-.523.675,2.518,2.518,0,0,1-.966.053q-16.945,0-33.89,0H19.412V51.435h2.733c0-.658.006-1.3,0-1.934-.006-.489.086-.935.677-.944s.689.453.692.933c0,.618,0,1.236,0,1.93h2.628c0-1.29-.014-2.555.007-3.82.009-.561-.165-1.352.736-1.326.83.024.642.775.649,1.31.015,1.267,0,2.533,0,3.856H30.19c0-.688,0-1.333,0-1.977,0-.5.107-.923.708-.9.556.018.631.448.633.892,0,.643,0,1.286,0,1.986h2.763c0-1.243,0-2.45,0-3.657,0-.267-.085-.583.029-.789a3.8,3.8,0,0,1,.715-.742c.225.262.625.513.643.789.075,1.122.033,2.251.034,3.378,0,.319,0,.638,0,1.018h2.652c0-.689,0-1.361,0-2.034,0-.47.126-.853.672-.845s.66.408.659.867c0,.646,0,1.293,0,2.006H42.35c0-.976,0-1.914,0-2.852,0-.474,0-.949,0-1.423,0-.49.122-.926.724-.9.539.026.639.436.637.893q-.006,1.69,0,3.38c0,.289.024.579.039.9H46.52c0-.651,0-1.238,0-1.824,0-.486-.02-1.032.654-1.045s.7.5.7,1.008c0,.588,0,1.176,0,1.846h2.7c.016-.276.044-.558.045-.84.006-1.215.011-2.431,0-3.647-.005-.576.217-.9.828-.9,3.439,0,6.879-.009,10.318.022a.935.935,0,0,1,.733.462,1.063,1.063,0,0,1-.308.832c-1.328,1.4-2.691,2.759-4.039,4.135-.2.207-.394.427-.65.706l2.452,2.488c.645.655,1.324,1.28,1.919,1.976.3.347.661.862.6,1.238-.1.63-.785.472-1.272.474-2.7.007-5.4,0-8.094,0ZM12.064,61.486h38.5V52.9h-38.5ZM10.647,45.968c.85-1.545,1.839-2.052,3.068-1.605a2.1,2.1,0,0,1,1.36,2.491,2.854,2.854,0,0,1-.71,1.275,2.422,2.422,0,0,1-2.4.461v2.843h5.988v-10H7.914v4.534ZM2.367,56.894h8.164V47.417H2.293l4.66,4.76L2.367,56.894m57.885-9.2-.2-.267h-8v9.493h8.077c-.279-.313-.459-.531-.656-.734-1.054-1.084-2.116-2.16-3.166-3.247-.674-.7-.688-.843.012-1.523,1.3-1.257,2.621-2.484,3.934-3.723M13.1,45.47l-.35,0c-.231.32-.6.614-.663.965a.736.736,0,0,0,.787.862c.557.023.961-.313.883-.855-.05-.347-.427-.647-.657-.968" transform="translate(0 -2.833)" fill="#fff" stroke="#fff" stroke-width="1"/>
      <path id="Trazado_883855" data-name="Trazado 883855" d="M171.077,180.117q-3.953,0-7.906,0c-.237,0-.517.069-.7-.033-.245-.137-.578-.415-.571-.622s.341-.466.58-.634c.121-.085.345-.03.523-.03H179.17c.177,0,.411-.055.52.035a1.287,1.287,0,0,1,.512.683c.018.175-.294.449-.518.565a1.654,1.654,0,0,1-.7.036q-3.953,0-7.906,0" transform="translate(-133.096 -146.972)" fill="#fff" stroke="#fff" stroke-width="1"/>
      <path id="Trazado_883856" data-name="Trazado 883856" d="M132.559,35.492q0,3.91,0,7.821a1.82,1.82,0,0,1-.052.786.646.646,0,0,1-1.249.011,1.744,1.744,0,0,1-.069-.784q0-7.865,0-15.73c0-.554-.187-1.357.72-1.328.82.026.64.78.642,1.315.01,2.637,0,5.273,0,7.91" transform="translate(-107.839 -21.593)" fill="#fff" stroke="#fff" stroke-width="1"/>
      <path id="Trazado_883857" data-name="Trazado 883857" d="M246.975,113.174a5.337,5.337,0,0,0-3-2.973,5.3,5.3,0,0,0,2.98-2.983,4.96,4.96,0,0,0,3.2,2.954c-1.548.688-2.695,1.464-3.182,3" transform="translate(-200.568 -88.143)" fill="#fff" stroke="#fff" stroke-width="1"/>
      <path id="Trazado_883858" data-name="Trazado 883858" d="M189.75,6.162A5.238,5.238,0,0,0,186.756,3.2,4.958,4.958,0,0,0,189.7,0c.7,1.515,1.472,2.676,3.056,3.127a5.5,5.5,0,0,0-3,3.035" transform="translate(-153.53)" fill="#fff" stroke="#fff" stroke-width="1"/>
      <path id="Trazado_883859" data-name="Trazado 883859" d="M299.532,22.033a5.208,5.208,0,0,0-3.013-2.989,4.976,4.976,0,0,0,2.965-3.028A5.216,5.216,0,0,0,302.521,19a5.32,5.32,0,0,0-2.988,3.031" transform="translate(-243.765 -13.167)" fill="#fff" stroke="#fff" stroke-width="1"/>
      <path id="Trazado_883860" data-name="Trazado 883860" d="M275.858,180.131a2.445,2.445,0,0,1-.88-.022c-.253-.1-.592-.392-.6-.6a.856.856,0,0,1,.555-.634,8.128,8.128,0,0,1,2.036.008c.2.026.462.434.478.682.012.177-.309.48-.534.544a4.025,4.025,0,0,1-1.06.025" transform="translate(-225.567 -146.999)" fill="#fff" stroke="#fff" stroke-width="1"/>
      <path id="Trazado_883861" data-name="Trazado 883861" d="M132.462,140.534c0,.237.079.515-.019.7a3.817,3.817,0,0,1-.63.714c-.234-.217-.621-.405-.669-.658a4.59,4.59,0,0,1,0-1.675A.929.929,0,0,1,131.8,139c.224.005.516.379.635.653a2.379,2.379,0,0,1,.023.879" transform="translate(-107.748 -114.272)" fill="#fff" stroke="#fff" stroke-width="1"/>
      <path id="Trazado_883862" data-name="Trazado 883862" d="M308.628,226.449c-.482.319-.794.686-1.049.65-.276-.039-.5-.453-.746-.7.274-.251.523-.649.831-.7.22-.038.52.388.964.756" transform="translate(-252.244 -185.538)" fill="#fff" stroke="#fff" stroke-width="1"/>
      <path id="Trazado_883863" data-name="Trazado 883863" d="M101.695,188.359c.346.5.708.785.689,1.049s-.411.511-.64.765c-.256-.238-.684-.454-.719-.721s.331-.574.671-1.092" transform="translate(-83.049 -154.848)" fill="#fff" stroke="#fff" stroke-width="1"/>
      <path id="Trazado_883864" data-name="Trazado 883864" d="M134.829,304.2q-3.78,0-7.561,0a1.832,1.832,0,0,1-.787-.062c-.224-.115-.523-.418-.5-.6a1.15,1.15,0,0,1,.542-.672c.173-.109.461-.039.7-.039h15.3c.531.01,1.193-.081,1.173.7s-.7.664-1.216.67c-1.067.012-2.135,0-3.2,0h-4.447" transform="translate(-103.567 -248.932)" fill="#fff" stroke="#fff" stroke-width="1"/>
      <path id="Trazado_883865" data-name="Trazado 883865" d="M85.064,293.758c-.142.111-.533.509-.608.456a7.143,7.143,0,0,1-1.27-1.189,1.6,1.6,0,0,1,.622-.664c.374-.137,1.221.726,1.256,1.4" transform="translate(-68.385 -240.335)" fill="#fff" stroke="#fff" stroke-width="1"/>
      <path id="Trazado_883866" data-name="Trazado 883866" d="M260.1,293.11a15.373,15.373,0,0,1-1.584,1.164c-.07.04-.631-.581-.608-.611a6.946,6.946,0,0,1,1.208-1.233c.077-.058.492.332.985.679" transform="translate(-212.024 -240.399)" fill="#fff" stroke="#fff" stroke-width="1"/>
      <path id="Trazado_883867" data-name="Trazado 883867" d="M103.343,292.854c0,.681-.817,1.553-1.226,1.427a1.31,1.31,0,0,1-.6-.662,5.764,5.764,0,0,1,1.176-1.187c.086-.062.493.317.646.422" transform="translate(-83.457 -240.399)" fill="#fff" stroke="#fff" stroke-width="1"/>
      <path id="Trazado_883868" data-name="Trazado 883868" d="M83.743,312.43c-.176-.26-.557-.67-.5-.753a11.491,11.491,0,0,1,1.2-1.253c.218.225.661.571.616.654a11.6,11.6,0,0,1-.994,1.391l-.329-.039" transform="translate(-68.432 -255.196)" fill="#fff" stroke="#fff" stroke-width="1"/>
      <path id="Trazado_883869" data-name="Trazado 883869" d="M101.815,310.388c.672.014,1.524.859,1.389,1.266a1.5,1.5,0,0,1-.658.613,5.968,5.968,0,0,1-1.149-1.219c-.067-.1.31-.5.418-.66" transform="translate(-83.351 -255.166)" fill="#fff" stroke="#fff" stroke-width="1"/>
      <path id="Trazado_883870" data-name="Trazado 883870" d="M240.282,312.518c-.114-.158-.506-.544-.443-.643a5.739,5.739,0,0,1,1.118-1.237,1.385,1.385,0,0,1,.685.573c.147.381-.695,1.261-1.36,1.306" transform="translate(-197.163 -255.369)" fill="#fff" stroke="#fff" stroke-width="1"/>
      <path id="Trazado_883871" data-name="Trazado 883871" d="M259.739,311.959c-.16.111-.574.493-.652.434a6.966,6.966,0,0,1-1.2-1.234,1.519,1.519,0,0,1,.637-.61c.4-.1,1.227.787,1.214,1.41" transform="translate(-212.005 -255.291)" fill="#fff" stroke="#fff" stroke-width="1"/>
      <path id="Trazado_883872" data-name="Trazado 883872" d="M241.549,293.809c-.153.1-.4.37-.676.412-.441.066-1.278-.85-1.151-1.256a1.052,1.052,0,0,1,.62-.61c.4-.111,1.219.783,1.207,1.454" transform="translate(-197.062 -240.334)" fill="#fff" stroke="#fff" stroke-width="1"/>
    </g>
  </g>
</svg>
