<svg xmlns="http://www.w3.org/2000/svg" width="582.091" height="529.182" viewBox="0 0 582.091 529.182">
  <g id="Grupo_1105462" data-name="Grupo 1105462" transform="translate(-196.546 -4979.576)">
    <path id="Trazado_883489" data-name="Trazado 883489" d="M-2960.711-7904.536l11.656-10.567,11.656,10.567" transform="translate(3433.83 12914.752)" fill="none" stroke="#707070" stroke-width="2"/>
    <path id="Trazado_883490" data-name="Trazado 883490" d="M0,11.656,10.567,0,21.134,11.656" transform="translate(763.368 5244.208) rotate(90)" fill="none" stroke="#707070" stroke-width="2"/>
    <path id="Trazado_884019" data-name="Trazado 884019" d="M7.535,13.344l3.141-7.406h4.441l-5.5,10.934V23H5.449V16.871L-.035,5.938H4.383Z" transform="translate(444.483 4973.638)" fill="#e8624e"/>
    <path id="Trazado_884018" data-name="Trazado 884018" d="M5.672,23H1.57V5.938h4.1Zm7.242,0h-4.1V5.938h4.1Z" transform="translate(282.313 5004.933)" fill="#12263f"/>
    <path id="Trazado_884020" data-name="Trazado 884020" d="M5.672,23H1.57V5.938h4.1Z" transform="translate(676.152 5004.933)" fill="#12263f"/>
    <path id="Trazado_884038" data-name="Trazado 884038" d="M5.672,23H1.57V5.938h4.1Zm7.242,0h-4.1V5.938h4.1Zm7.242,0h-4.1V5.938h4.1Z" transform="translate(282.313 5448.933)" fill="#12263f"/>
    <path id="Trazado_884021" data-name="Trazado 884021" d="M1.406,16.063a17.909,17.909,0,0,1,.762-5.32,12.839,12.839,0,0,1,2.1-4.172A7.47,7.47,0,0,1,7.254,4.18L8,6.125A7.64,7.64,0,0,0,5.467,9.893,18.376,18.376,0,0,0,4.559,15.9v.516a18.734,18.734,0,0,0,.9,6.117A7.608,7.608,0,0,0,8,26.328l-.75,1.945a7.4,7.4,0,0,1-2.982-2.4,12.646,12.646,0,0,1-2.1-4.154,18,18,0,0,1-.762-5.133Zm15.891,1.1H10.254V14.117H17.3Zm6.621-4.348h1.863A1.937,1.937,0,0,0,28,10.648a1.875,1.875,0,0,0-.527-1.377,2,2,0,0,0-1.488-.533,2.141,2.141,0,0,0-1.365.457,1.394,1.394,0,0,0-.58,1.137H20.086a4.043,4.043,0,0,1,.75-2.4,4.953,4.953,0,0,1,2.08-1.646,7.112,7.112,0,0,1,2.924-.592,6.988,6.988,0,0,1,4.477,1.3,4.324,4.324,0,0,1,1.629,3.574,3.6,3.6,0,0,1-.674,2.08,4.8,4.8,0,0,1-1.963,1.588,4.587,4.587,0,0,1,2.133,1.494,3.935,3.935,0,0,1,.773,2.479,4.4,4.4,0,0,1-1.758,3.656,7.3,7.3,0,0,1-4.617,1.371,7.567,7.567,0,0,1-3.111-.639,4.875,4.875,0,0,1-2.174-1.77,4.6,4.6,0,0,1-.738-2.572h3.973a1.778,1.778,0,0,0,.633,1.359,2.234,2.234,0,0,0,1.559.574,2.34,2.34,0,0,0,1.664-.58,1.939,1.939,0,0,0,.621-1.482,2.267,2.267,0,0,0-.645-1.828,2.694,2.694,0,0,0-1.781-.539H23.918ZM35.66,27.594l-1.992-.937.4-.8a6.5,6.5,0,0,0,.855-2.906v-2.93h3.164l-.012,2.543a6.356,6.356,0,0,1-.691,2.742A6.967,6.967,0,0,1,35.66,27.594Zm12.8-10.43H41.414V14.117h7.043ZM60.223,23H56.262V10.391l-3.891,1.137v-3l7.488-2.59h.363ZM71.66,16.391a16.71,16.71,0,0,1-.809,5.227,13.344,13.344,0,0,1-2.232,4.248,7.432,7.432,0,0,1-3.076,2.408l-.75-1.945a7.716,7.716,0,0,0,2.52-3.75,18.1,18.1,0,0,0,.926-5.824v-.715a18.734,18.734,0,0,0-.9-6.117,7.608,7.608,0,0,0-2.549-3.8l.75-1.945A7.568,7.568,0,0,1,68.6,6.564a13.18,13.18,0,0,1,2.227,4.184,16.568,16.568,0,0,1,.838,5.127Z" transform="translate(273.489 5324.823)" fill="#e8624e"/>
    <path id="Trazado_884022" data-name="Trazado 884022" d="M1.406,16.063a17.909,17.909,0,0,1,.762-5.32,12.839,12.839,0,0,1,2.1-4.172A7.47,7.47,0,0,1,7.254,4.18L8,6.125A7.64,7.64,0,0,0,5.467,9.893,18.376,18.376,0,0,0,4.559,15.9v.516a18.734,18.734,0,0,0,.9,6.117A7.608,7.608,0,0,0,8,26.328l-.75,1.945a7.4,7.4,0,0,1-2.982-2.4,12.646,12.646,0,0,1-2.1-4.154,18,18,0,0,1-.762-5.133Zm15.891,1.1H10.254V14.117H17.3Zm6.621-4.348h1.863A1.937,1.937,0,0,0,28,10.648a1.875,1.875,0,0,0-.527-1.377,2,2,0,0,0-1.488-.533,2.141,2.141,0,0,0-1.365.457,1.394,1.394,0,0,0-.58,1.137H20.086a4.043,4.043,0,0,1,.75-2.4,4.953,4.953,0,0,1,2.08-1.646,7.112,7.112,0,0,1,2.924-.592,6.988,6.988,0,0,1,4.477,1.3,4.324,4.324,0,0,1,1.629,3.574,3.6,3.6,0,0,1-.674,2.08,4.8,4.8,0,0,1-1.963,1.588,4.587,4.587,0,0,1,2.133,1.494,3.935,3.935,0,0,1,.773,2.479,4.4,4.4,0,0,1-1.758,3.656,7.3,7.3,0,0,1-4.617,1.371,7.567,7.567,0,0,1-3.111-.639,4.875,4.875,0,0,1-2.174-1.77,4.6,4.6,0,0,1-.738-2.572h3.973a1.778,1.778,0,0,0,.633,1.359,2.234,2.234,0,0,0,1.559.574,2.34,2.34,0,0,0,1.664-.58,1.939,1.939,0,0,0,.621-1.482,2.267,2.267,0,0,0-.645-1.828,2.694,2.694,0,0,0-1.781-.539H23.918ZM35.66,27.594l-1.992-.937.4-.8a6.5,6.5,0,0,0,.855-2.906v-2.93h3.164l-.012,2.543a6.356,6.356,0,0,1-.691,2.742A6.967,6.967,0,0,1,35.66,27.594ZM49.43,23H45.469V10.391l-3.891,1.137v-3l7.488-2.59h.363Zm11.438-6.609a16.71,16.71,0,0,1-.809,5.227,13.344,13.344,0,0,1-2.232,4.248,7.432,7.432,0,0,1-3.076,2.408L54,26.328a7.716,7.716,0,0,0,2.52-3.75,18.1,18.1,0,0,0,.926-5.824v-.715a18.734,18.734,0,0,0-.9-6.117A7.608,7.608,0,0,0,54,6.125l.75-1.945A7.568,7.568,0,0,1,57.8,6.564a13.18,13.18,0,0,1,2.227,4.184,16.568,16.568,0,0,1,.838,5.127Z" transform="translate(249.24 5152.004)" fill="#e8624e"/>
    <path id="Trazado_884023" data-name="Trazado 884023" d="M1.406,16.063a17.909,17.909,0,0,1,.762-5.32,12.839,12.839,0,0,1,2.1-4.172A7.47,7.47,0,0,1,7.254,4.18L8,6.125A7.64,7.64,0,0,0,5.467,9.893,18.376,18.376,0,0,0,4.559,15.9v.516a18.734,18.734,0,0,0,.9,6.117A7.608,7.608,0,0,0,8,26.328l-.75,1.945a7.4,7.4,0,0,1-2.982-2.4,12.646,12.646,0,0,1-2.1-4.154,18,18,0,0,1-.762-5.133Zm11.719-3.246h1.863A1.937,1.937,0,0,0,17.2,10.648a1.875,1.875,0,0,0-.527-1.377,2,2,0,0,0-1.488-.533,2.141,2.141,0,0,0-1.365.457,1.394,1.394,0,0,0-.58,1.137H9.293a4.043,4.043,0,0,1,.75-2.4,4.953,4.953,0,0,1,2.08-1.646,7.112,7.112,0,0,1,2.924-.592,6.988,6.988,0,0,1,4.477,1.3,4.324,4.324,0,0,1,1.629,3.574,3.6,3.6,0,0,1-.674,2.08,4.8,4.8,0,0,1-1.963,1.588,4.587,4.587,0,0,1,2.133,1.494,3.935,3.935,0,0,1,.773,2.479,4.4,4.4,0,0,1-1.758,3.656,7.3,7.3,0,0,1-4.617,1.371,7.567,7.567,0,0,1-3.111-.639,4.875,4.875,0,0,1-2.174-1.77,4.6,4.6,0,0,1-.738-2.572H13a1.778,1.778,0,0,0,.633,1.359,2.234,2.234,0,0,0,1.559.574,2.34,2.34,0,0,0,1.664-.58,1.939,1.939,0,0,0,.621-1.482,2.267,2.267,0,0,0-.645-1.828,2.694,2.694,0,0,0-1.781-.539H13.125ZM24.867,27.594l-1.992-.937.4-.8a6.5,6.5,0,0,0,.855-2.906v-2.93h3.164l-.012,2.543a6.356,6.356,0,0,1-.691,2.742A6.967,6.967,0,0,1,24.867,27.594Zm12.8-10.43H30.621V14.117h7.043ZM52.582,23H40.676V20.422l5.484-5.766q2.027-2.309,2.027-3.668a2.551,2.551,0,0,0-.48-1.676,1.715,1.715,0,0,0-1.395-.574,1.737,1.737,0,0,0-1.465.768,3.155,3.155,0,0,0-.562,1.916H40.324a5.6,5.6,0,0,1,.785-2.9,5.506,5.506,0,0,1,2.18-2.08,6.475,6.475,0,0,1,3.117-.75,6.369,6.369,0,0,1,4.26,1.277,4.56,4.56,0,0,1,1.494,3.668,5.326,5.326,0,0,1-.375,1.963,8.608,8.608,0,0,1-1.166,2A29.372,29.372,0,0,1,48.07,17.41l-2.2,2.543h6.715Zm8.285-6.609a16.71,16.71,0,0,1-.809,5.227,13.344,13.344,0,0,1-2.232,4.248,7.432,7.432,0,0,1-3.076,2.408L54,26.328a7.716,7.716,0,0,0,2.52-3.75,18.1,18.1,0,0,0,.926-5.824v-.715a18.734,18.734,0,0,0-.9-6.117A7.608,7.608,0,0,0,54,6.125l.75-1.945A7.568,7.568,0,0,1,57.8,6.564a13.18,13.18,0,0,1,2.227,4.184,16.568,16.568,0,0,1,.838,5.127Z" transform="translate(646.369 5376.822)" fill="#e8624e"/>
    <path id="Trazado_884024" data-name="Trazado 884024" d="M1.406,16.063a17.909,17.909,0,0,1,.762-5.32,12.839,12.839,0,0,1,2.1-4.172A7.47,7.47,0,0,1,7.254,4.18L8,6.125A7.64,7.64,0,0,0,5.467,9.893,18.376,18.376,0,0,0,4.559,15.9v.516a18.734,18.734,0,0,0,.9,6.117A7.608,7.608,0,0,0,8,26.328l-.75,1.945a7.4,7.4,0,0,1-2.982-2.4,12.646,12.646,0,0,1-2.1-4.154,18,18,0,0,1-.762-5.133ZM21.422,23H9.516V20.422L15,14.656q2.027-2.309,2.027-3.668a2.551,2.551,0,0,0-.48-1.676,1.715,1.715,0,0,0-1.395-.574,1.737,1.737,0,0,0-1.465.768,3.155,3.155,0,0,0-.562,1.916H9.164a5.6,5.6,0,0,1,.785-2.9,5.506,5.506,0,0,1,2.18-2.08,6.475,6.475,0,0,1,3.117-.75,6.369,6.369,0,0,1,4.26,1.277A4.56,4.56,0,0,1,21,10.637a5.326,5.326,0,0,1-.375,1.963,8.608,8.608,0,0,1-1.166,2A29.372,29.372,0,0,1,16.91,17.41l-2.2,2.543h6.715Zm3.445,4.594-1.992-.937.4-.8a6.5,6.5,0,0,0,.855-2.906v-2.93h3.164l-.012,2.543a6.356,6.356,0,0,1-.691,2.742A6.967,6.967,0,0,1,24.867,27.594Zm8.625-14.777h1.863a1.937,1.937,0,0,0,2.215-2.168,1.875,1.875,0,0,0-.527-1.377,2,2,0,0,0-1.488-.533,2.141,2.141,0,0,0-1.365.457,1.394,1.394,0,0,0-.58,1.137H29.66a4.043,4.043,0,0,1,.75-2.4,4.953,4.953,0,0,1,2.08-1.646,7.112,7.112,0,0,1,2.924-.592,6.988,6.988,0,0,1,4.477,1.3,4.324,4.324,0,0,1,1.629,3.574,3.6,3.6,0,0,1-.674,2.08,4.8,4.8,0,0,1-1.963,1.588,4.587,4.587,0,0,1,2.133,1.494,3.935,3.935,0,0,1,.773,2.479,4.4,4.4,0,0,1-1.758,3.656,7.3,7.3,0,0,1-4.617,1.371A7.567,7.567,0,0,1,32.3,22.6a4.875,4.875,0,0,1-2.174-1.77,4.6,4.6,0,0,1-.738-2.572h3.973A1.778,1.778,0,0,0,34,19.613a2.234,2.234,0,0,0,1.559.574,2.34,2.34,0,0,0,1.664-.58,1.939,1.939,0,0,0,.621-1.482A2.267,2.267,0,0,0,37.2,16.3a2.694,2.694,0,0,0-1.781-.539H33.492Zm16.582,3.574a16.71,16.71,0,0,1-.809,5.227,13.344,13.344,0,0,1-2.232,4.248,7.432,7.432,0,0,1-3.076,2.408l-.75-1.945a7.716,7.716,0,0,0,2.52-3.75,18.1,18.1,0,0,0,.926-5.824v-.715a18.734,18.734,0,0,0-.9-6.117,7.608,7.608,0,0,0-2.549-3.8l.75-1.945A7.568,7.568,0,0,1,47.01,6.564a13.18,13.18,0,0,1,2.227,4.184,16.568,16.568,0,0,1,.838,5.127Z" transform="translate(592.065 5046.187)" fill="#e8624e"/>
    <path id="Trazado_884039" data-name="Trazado 884039" d="M5.672,23H1.57V5.938h4.1Zm9.48-4.641,3.4-12.422h4.594L17.4,23H12.9L7.207,5.938h4.559Z" transform="translate(676.152 5448.933)" fill="#12263f"/>
    <path id="Trazado_884025" data-name="Trazado 884025" d="M4.652,12.816H6.516A1.937,1.937,0,0,0,8.73,10.648,1.875,1.875,0,0,0,8.2,9.271a2,2,0,0,0-1.488-.533A2.141,2.141,0,0,0,5.35,9.2a1.394,1.394,0,0,0-.58,1.137H.82a4.043,4.043,0,0,1,.75-2.4A4.953,4.953,0,0,1,3.65,6.283a7.112,7.112,0,0,1,2.924-.592,6.988,6.988,0,0,1,4.477,1.3,4.324,4.324,0,0,1,1.629,3.574,3.6,3.6,0,0,1-.674,2.08,4.8,4.8,0,0,1-1.963,1.588,4.587,4.587,0,0,1,2.133,1.494,3.935,3.935,0,0,1,.773,2.479,4.4,4.4,0,0,1-1.758,3.656,7.3,7.3,0,0,1-4.617,1.371A7.567,7.567,0,0,1,3.463,22.6a4.875,4.875,0,0,1-2.174-1.77,4.6,4.6,0,0,1-.738-2.572H4.523a1.778,1.778,0,0,0,.633,1.359,2.234,2.234,0,0,0,1.559.574,2.34,2.34,0,0,0,1.664-.58A1.939,1.939,0,0,0,9,18.125,2.267,2.267,0,0,0,8.355,16.3a2.694,2.694,0,0,0-1.781-.539H4.652Z" transform="translate(444.483 5069.765)" fill="#12263f"/>
    <path id="Trazado_884026" data-name="Trazado 884026" d="M8.824,17.164H1.781V14.117H8.824ZM20.59,23H16.629V10.391l-3.891,1.137v-3l7.488-2.59h.363Z" transform="translate(432.35 5298.197)" fill="#12263f"/>
    <path id="Trazado_884027" data-name="Trazado 884027" d="M8.824,17.164H1.781V14.117H8.824ZM23.742,23H11.836V20.422l5.484-5.766q2.027-2.309,2.027-3.668a2.551,2.551,0,0,0-.48-1.676,1.715,1.715,0,0,0-1.395-.574,1.737,1.737,0,0,0-1.465.768,3.155,3.155,0,0,0-.562,1.916H11.484a5.6,5.6,0,0,1,.785-2.9,5.506,5.506,0,0,1,2.18-2.08,6.475,6.475,0,0,1,3.117-.75,6.369,6.369,0,0,1,4.26,1.277,4.56,4.56,0,0,1,1.494,3.668,5.326,5.326,0,0,1-.375,1.963,8.608,8.608,0,0,1-1.166,2A29.372,29.372,0,0,1,19.23,17.41l-2.2,2.543h6.715Z" transform="translate(432.35 5353.197)" fill="#12263f"/>
    <path id="Trazado_884037" data-name="Trazado 884037" d="M8.824,17.164H1.781V14.117H8.824Zm6.621-4.348h1.863a1.937,1.937,0,0,0,2.215-2.168A1.875,1.875,0,0,0,19,9.271a2,2,0,0,0-1.488-.533,2.141,2.141,0,0,0-1.365.457,1.394,1.394,0,0,0-.58,1.137H11.613a4.043,4.043,0,0,1,.75-2.4,4.953,4.953,0,0,1,2.08-1.646,7.112,7.112,0,0,1,2.924-.592,6.988,6.988,0,0,1,4.477,1.3,4.324,4.324,0,0,1,1.629,3.574,3.6,3.6,0,0,1-.674,2.08,4.8,4.8,0,0,1-1.963,1.588,4.587,4.587,0,0,1,2.133,1.494,3.935,3.935,0,0,1,.773,2.479,4.4,4.4,0,0,1-1.758,3.656,7.3,7.3,0,0,1-4.617,1.371,7.567,7.567,0,0,1-3.111-.639,4.875,4.875,0,0,1-2.174-1.77,4.6,4.6,0,0,1-.738-2.572h3.973a1.778,1.778,0,0,0,.633,1.359,2.234,2.234,0,0,0,1.559.574,2.34,2.34,0,0,0,1.664-.58,1.939,1.939,0,0,0,.621-1.482,2.267,2.267,0,0,0-.645-1.828,2.694,2.694,0,0,0-1.781-.539H15.445Z" transform="translate(432.35 5410.197)" fill="#12263f"/>
    <path id="Trazado_884028" data-name="Trazado 884028" d="M8.824,17.164H1.781V14.117H8.824Zm6.621-4.348h1.863a1.937,1.937,0,0,0,2.215-2.168A1.875,1.875,0,0,0,19,9.271a2,2,0,0,0-1.488-.533,2.141,2.141,0,0,0-1.365.457,1.394,1.394,0,0,0-.58,1.137H11.613a4.043,4.043,0,0,1,.75-2.4,4.953,4.953,0,0,1,2.08-1.646,7.112,7.112,0,0,1,2.924-.592,6.988,6.988,0,0,1,4.477,1.3,4.324,4.324,0,0,1,1.629,3.574,3.6,3.6,0,0,1-.674,2.08,4.8,4.8,0,0,1-1.963,1.588,4.587,4.587,0,0,1,2.133,1.494,3.935,3.935,0,0,1,.773,2.479,4.4,4.4,0,0,1-1.758,3.656,7.3,7.3,0,0,1-4.617,1.371,7.567,7.567,0,0,1-3.111-.639,4.875,4.875,0,0,1-2.174-1.77,4.6,4.6,0,0,1-.738-2.572h3.973a1.778,1.778,0,0,0,.633,1.359,2.234,2.234,0,0,0,1.559.574,2.34,2.34,0,0,0,1.664-.58,1.939,1.939,0,0,0,.621-1.482,2.267,2.267,0,0,0-.645-1.828,2.694,2.694,0,0,0-1.781-.539H15.445Z" transform="translate(275.713 5271.765)" fill="#12263f"/>
    <path id="Trazado_884029" data-name="Trazado 884029" d="M17.038,23H13.077V10.391L9.187,11.527v-3l7.488-2.59h.363Z" transform="translate(533.459 5271.765)" fill="#12263f"/>
    <path id="Trazado_884030" data-name="Trazado 884030" d="M8.824,17.164H1.781V14.117H8.824ZM23.742,23H11.836V20.422l5.484-5.766q2.027-2.309,2.027-3.668a2.551,2.551,0,0,0-.48-1.676,1.715,1.715,0,0,0-1.395-.574,1.737,1.737,0,0,0-1.465.768,3.155,3.155,0,0,0-.562,1.916H11.484a5.6,5.6,0,0,1,.785-2.9,5.506,5.506,0,0,1,2.18-2.08,6.475,6.475,0,0,1,3.117-.75,6.369,6.369,0,0,1,4.26,1.277,4.56,4.56,0,0,1,1.494,3.668,5.326,5.326,0,0,1-.375,1.963,8.608,8.608,0,0,1-1.166,2A29.372,29.372,0,0,1,19.23,17.41l-2.2,2.543h6.715Z" transform="translate(337.485 5271.765)" fill="#12263f"/>
    <path id="Trazado_884031" data-name="Trazado 884031" d="M20.191,23H8.284V20.422l5.484-5.766Q15.8,12.348,15.8,10.988a2.551,2.551,0,0,0-.48-1.676,1.715,1.715,0,0,0-1.395-.574,1.737,1.737,0,0,0-1.465.768,3.155,3.155,0,0,0-.562,1.916H7.933a5.6,5.6,0,0,1,.785-2.9,5.506,5.506,0,0,1,2.18-2.08,6.475,6.475,0,0,1,3.117-.75,6.369,6.369,0,0,1,4.26,1.277,4.56,4.56,0,0,1,1.494,3.668,5.326,5.326,0,0,1-.375,1.963,8.608,8.608,0,0,1-1.166,2,29.372,29.372,0,0,1-2.549,2.807l-2.2,2.543h6.715Z" transform="translate(595.605 5271.765)" fill="#12263f"/>
    <path id="Trazado_884032" data-name="Trazado 884032" d="M8.824,17.164H1.781V14.117H8.824ZM20.59,23H16.629V10.391l-3.891,1.137v-3l7.488-2.59h.363Z" transform="translate(399.258 5271.765)" fill="#12263f"/>
    <path id="Trazado_884033" data-name="Trazado 884033" d="M11.894,12.816h1.863a1.937,1.937,0,0,0,2.215-2.168,1.875,1.875,0,0,0-.527-1.377,2,2,0,0,0-1.488-.533,2.141,2.141,0,0,0-1.365.457,1.394,1.394,0,0,0-.58,1.137H8.062a4.043,4.043,0,0,1,.75-2.4,4.953,4.953,0,0,1,2.08-1.646,7.112,7.112,0,0,1,2.924-.592,6.988,6.988,0,0,1,4.477,1.3,4.324,4.324,0,0,1,1.629,3.574,3.6,3.6,0,0,1-.674,2.08,4.8,4.8,0,0,1-1.963,1.588,4.587,4.587,0,0,1,2.133,1.494,3.935,3.935,0,0,1,.773,2.479,4.4,4.4,0,0,1-1.758,3.656,7.3,7.3,0,0,1-4.617,1.371A7.567,7.567,0,0,1,10.7,22.6a4.875,4.875,0,0,1-2.174-1.77,4.6,4.6,0,0,1-.738-2.572h3.973a1.778,1.778,0,0,0,.633,1.359,2.234,2.234,0,0,0,1.559.574,2.34,2.34,0,0,0,1.664-.58,1.939,1.939,0,0,0,.621-1.482A2.267,2.267,0,0,0,15.6,16.3a2.694,2.694,0,0,0-1.781-.539H11.894Z" transform="translate(660.306 5271.765)" fill="#12263f"/>
    <path id="Trazado_884034" data-name="Trazado 884034" d="M12.949,23H1.043V20.422l5.484-5.766q2.027-2.309,2.027-3.668a2.551,2.551,0,0,0-.48-1.676A1.715,1.715,0,0,0,6.68,8.738a1.737,1.737,0,0,0-1.465.768,3.155,3.155,0,0,0-.562,1.916H.691a5.6,5.6,0,0,1,.785-2.9,5.506,5.506,0,0,1,2.18-2.08,6.475,6.475,0,0,1,3.117-.75,6.369,6.369,0,0,1,4.26,1.277,4.56,4.56,0,0,1,1.494,3.668,5.326,5.326,0,0,1-.375,1.963,8.608,8.608,0,0,1-1.166,2A29.372,29.372,0,0,1,8.438,17.41l-2.2,2.543h6.715Z" transform="translate(444.483 5127.765)" fill="#12263f"/>
    <path id="Trazado_884035" data-name="Trazado 884035" d="M9.8,23H5.836V10.391L1.945,11.527v-3l7.488-2.59H9.8Z" transform="translate(444.483 5181.765)" fill="#12263f"/>
    <path id="Trazado_884036" data-name="Trazado 884036" d="M12.891,16.027a8.147,8.147,0,0,1-1.553,5.332,5.366,5.366,0,0,1-4.377,1.875,5.4,5.4,0,0,1-4.406-1.887A8.135,8.135,0,0,1,1,16.027V12.91A8.147,8.147,0,0,1,2.549,7.578,5.379,5.379,0,0,1,6.938,5.7,5.381,5.381,0,0,1,11.332,7.59a8.155,8.155,0,0,1,1.559,5.332ZM8.941,12.406a6.085,6.085,0,0,0-.48-2.748A1.606,1.606,0,0,0,6.938,8.75a1.568,1.568,0,0,0-1.482.844,5.733,5.733,0,0,0-.5,2.555v4.359a6.131,6.131,0,0,0,.48,2.795,1.612,1.612,0,0,0,1.523.885,1.59,1.59,0,0,0,1.488-.861,5.853,5.853,0,0,0,.492-2.7Z" transform="translate(462.133 5256.765)" fill="#e8624e"/>
    <path id="Trazado_884040" data-name="Trazado 884040" d="M7.652,11.609l2.789-5.672h4.7L10.371,14.4l4.9,8.6H10.523L7.652,17.223,4.781,23H.047l4.887-8.6L.176,5.938H4.863Z" transform="translate(763.368 5272.638)" fill="#e8624e"/>
    <path id="Trazado_883491" data-name="Trazado 883491" d="M-2964.111-7827.409h29.578" transform="translate(3434.097 12907.752)" fill="none" stroke="#707070" stroke-width="2"/>
    <path id="Trazado_883500" data-name="Trazado 883500" d="M-2964.111-7827.409h29.578" transform="translate(3434.097 13136.185)" fill="none" stroke="#707070" stroke-width="2"/>
    <path id="Trazado_883492" data-name="Trazado 883492" d="M-2964.111-7827.409h29.578" transform="translate(3434.097 12965.752)" fill="none" stroke="#707070" stroke-width="2"/>
    <path id="Trazado_883502" data-name="Trazado 883502" d="M-2964.111-7827.409h29.578" transform="translate(3434.097 13194.185)" fill="none" stroke="#707070" stroke-width="2"/>
    <path id="Trazado_883493" data-name="Trazado 883493" d="M-2964.111-7827.409h29.578" transform="translate(3434.097 13022.752)" fill="none" stroke="#707070" stroke-width="2"/>
    <path id="Trazado_883501" data-name="Trazado 883501" d="M-2964.111-7827.409h29.578" transform="translate(3434.097 13251.185)" fill="none" stroke="#707070" stroke-width="2"/>
    <path id="Trazado_883494" data-name="Trazado 883494" d="M0,0H26.814" transform="translate(293.943 5241.368) rotate(90)" fill="none" stroke="#707070" stroke-width="2"/>
    <path id="Trazado_883497" data-name="Trazado 883497" d="M0,0H26.814" transform="translate(547.65 5241.368) rotate(90)" fill="none" stroke="#707070" stroke-width="2"/>
    <path id="Trazado_883495" data-name="Trazado 883495" d="M0,0H26.814" transform="translate(357.915 5241.368) rotate(90)" fill="none" stroke="#707070" stroke-width="2"/>
    <path id="Trazado_883498" data-name="Trazado 883498" d="M0,0H26.814" transform="translate(611.622 5241.368) rotate(90)" fill="none" stroke="#707070" stroke-width="2"/>
    <path id="Trazado_883496" data-name="Trazado 883496" d="M0,0H26.814" transform="translate(420.79 5241.368) rotate(90)" fill="none" stroke="#707070" stroke-width="2"/>
    <path id="Trazado_883499" data-name="Trazado 883499" d="M0,0H26.814" transform="translate(674.497 5241.368) rotate(90)" fill="none" stroke="#707070" stroke-width="2"/>
    <path id="Trazado_883487" data-name="Trazado 883487" d="M-2951-7906.958v507.963" transform="translate(3435.448 12907.752)" fill="none" stroke="#707070" stroke-width="2"/>
    <path id="Trazado_883488" data-name="Trazado 883488" d="M-3212-7652.977h565.527" transform="translate(3408.546 12907.752)" fill="none" stroke="#707070" stroke-width="2"/>
    <path id="Trazado_883549" data-name="Trazado 883549" d="M-1902.093-6629.756v-31.464h138.375" transform="translate(2195.288 11856.754)" fill="none" stroke="#e8624e" stroke-width="2" stroke-dasharray="5"/>
    <path id="Trazado_883552" data-name="Trazado 883552" d="M0,96.228V0H146.4" transform="translate(609.716 5090.037) rotate(90)" fill="none" stroke="#e8624e" stroke-width="2" stroke-dasharray="5"/>
    <path id="Trazado_883550" data-name="Trazado 883550" d="M-1902.093-6553.458v11.155h135.356" transform="translate(2195.288 11854.752)" fill="none" stroke="#e8624e" stroke-width="1" stroke-dasharray="5"/>
    <path id="Trazado_883551" data-name="Trazado 883551" d="M-1744.345-6553.459v63.156h-157.748" transform="translate(2415.581 11854.752)" fill="none" stroke="#e8624e" stroke-width="2" stroke-dasharray="5"/>
  </g>
</svg>
