<svg xmlns="http://www.w3.org/2000/svg" width="294.088" height="284.417" viewBox="0 0 294.088 284.417">
  <g id="Grupo_1105460" data-name="Grupo 1105460" transform="translate(-1076.912 -2769.352)">
    <path id="Trazado_883489" data-name="Trazado 883489" d="M-2960.711-7909.369l5.734-5.733,5.734,5.733" transform="translate(4173.669 10692.63)" fill="none" stroke="#707070" stroke-width="2"/>
    <path id="Trazado_883490" data-name="Trazado 883490" d="M0,5.734,5.734,0l5.734,5.734" transform="translate(1355.73 2910.225) rotate(90)" fill="none" stroke="#707070" stroke-width="2"/>
    <path id="Trazado_883998" data-name="Trazado 883998" d="M7.535,13.344l3.141-7.406h4.441l-5.5,10.934V23H5.449V16.871L-.035,5.938H4.383Z" transform="translate(1198.872 2763.414)" fill="#e8624e"/>
    <path id="Trazado_883999" data-name="Trazado 883999" d="M15.205,14.609H10.978L10.239,17h-3.3L11.637,4.2h2.9L19.266,17H15.952Zm-3.489-2.382h2.751l-1.38-4.438ZM20.2,17V4.2h4.6a6.509,6.509,0,0,1,3.757.905,3.012,3.012,0,0,1,1.288,2.628,3.045,3.045,0,0,1-.457,1.7,2.663,2.663,0,0,1-1.345,1.037,2.7,2.7,0,0,1,1.538.984,2.862,2.862,0,0,1,.536,1.758,3.388,3.388,0,0,1-1.191,2.826A5.667,5.667,0,0,1,25.392,17Zm3.085-5.44v3.067H25.3a1.923,1.923,0,0,0,1.283-.382,1.338,1.338,0,0,0,.448-1.077,1.419,1.419,0,0,0-1.591-1.608Zm0-2.021h1.608a2.285,2.285,0,0,0,1.441-.37A1.314,1.314,0,0,0,26.763,8.1,1.379,1.379,0,0,0,26.3,6.933a2.493,2.493,0,0,0-1.5-.357H23.282ZM38.408,13.6a1.268,1.268,0,0,0-.479-1.055,5.954,5.954,0,0,0-1.683-.782,16.147,16.147,0,0,1-1.969-.782Q31.79,9.758,31.79,7.622a3.011,3.011,0,0,1,.62-1.876A4.008,4.008,0,0,1,34.163,4.48a6.823,6.823,0,0,1,2.549-.453,5.969,5.969,0,0,1,2.474.492,3.917,3.917,0,0,1,1.7,1.4A3.661,3.661,0,0,1,41.493,8H38.417a1.547,1.547,0,0,0-.479-1.213,1.867,1.867,0,0,0-1.3-.431,2.106,2.106,0,0,0-1.305.365,1.074,1.074,0,0,0,.048,1.819,6.65,6.65,0,0,0,1.854.826,11.36,11.36,0,0,1,2.18.918,3.663,3.663,0,0,1,2.074,3.3,3.125,3.125,0,0,1-1.266,2.637,5.629,5.629,0,0,1-3.472.958,6.888,6.888,0,0,1-2.817-.558,4.247,4.247,0,0,1-1.9-1.529,3.985,3.985,0,0,1-.637-2.237H34.5a1.963,1.963,0,0,0,.532,1.516,2.513,2.513,0,0,0,1.727.488,1.985,1.985,0,0,0,1.208-.33A1.088,1.088,0,0,0,38.408,13.6Zm15.021-.932a4.673,4.673,0,0,1-.721,2.36,4.35,4.35,0,0,1-1.85,1.586,6.3,6.3,0,0,1-2.72.563,5.025,5.025,0,0,1-3.973-1.644,6.786,6.786,0,0,1-1.45-4.641v-.633a7.746,7.746,0,0,1,.655-3.292,4.961,4.961,0,0,1,1.885-2.18A5.26,5.26,0,0,1,48.1,4.019a5.516,5.516,0,0,1,3.744,1.226,4.844,4.844,0,0,1,1.608,3.379H50.379a2.292,2.292,0,0,0-.589-1.679,2.422,2.422,0,0,0-1.687-.51,1.843,1.843,0,0,0-1.687.861,5.536,5.536,0,0,0-.562,2.751v.905a6.126,6.126,0,0,0,.514,2.927,1.882,1.882,0,0,0,1.771.879,2.369,2.369,0,0,0,1.626-.5,2.126,2.126,0,0,0,.6-1.591ZM58.175,17H55.1V4.2h3.076Zm8.745-3.4a1.268,1.268,0,0,0-.479-1.055,5.954,5.954,0,0,0-1.683-.782,16.147,16.147,0,0,1-1.969-.782Q60.3,9.758,60.3,7.622a3.011,3.011,0,0,1,.62-1.876A4.008,4.008,0,0,1,62.675,4.48a6.823,6.823,0,0,1,2.549-.453A5.969,5.969,0,0,1,67.7,4.52a3.917,3.917,0,0,1,1.7,1.4A3.661,3.661,0,0,1,70,8H66.929a1.547,1.547,0,0,0-.479-1.213,1.867,1.867,0,0,0-1.3-.431,2.106,2.106,0,0,0-1.305.365A1.074,1.074,0,0,0,63.9,8.541a6.65,6.65,0,0,0,1.854.826,11.361,11.361,0,0,1,2.18.918A3.663,3.663,0,0,1,70,13.581a3.125,3.125,0,0,1-1.266,2.637,5.629,5.629,0,0,1-3.472.958,6.888,6.888,0,0,1-2.817-.558,4.247,4.247,0,0,1-1.9-1.529,3.985,3.985,0,0,1-.637-2.237h3.094a1.963,1.963,0,0,0,.532,1.516,2.513,2.513,0,0,0,1.727.488,1.985,1.985,0,0,0,1.208-.33A1.088,1.088,0,0,0,66.92,13.6Zm11.936,1.011H74.628L73.89,17h-3.3L75.287,4.2h2.9L82.916,17H79.6Zm-3.489-2.382h2.751l-1.38-4.438Z" transform="translate(1281.087 3002.157)" fill="#7000d2"/>
    <path id="Trazado_884000" data-name="Trazado 884000" d="M16.044,10.865a7.546,7.546,0,0,1-.694,3.313A5.132,5.132,0,0,1,13.377,16.4a5.494,5.494,0,0,1-2.914.778,5.572,5.572,0,0,1-2.9-.751A5.123,5.123,0,0,1,5.59,14.275a7.329,7.329,0,0,1-.743-3.208v-.721a7.58,7.58,0,0,1,.69-3.318A5.119,5.119,0,0,1,7.514,4.81a5.533,5.533,0,0,1,2.931-.782,5.479,5.479,0,0,1,2.9.773A5.211,5.211,0,0,1,15.328,7a7.362,7.362,0,0,1,.716,3.274Zm-3.138-.536a5.381,5.381,0,0,0-.637-2.9,2.044,2.044,0,0,0-1.824-.989q-2.32,0-2.452,3.48l-.009.94a5.535,5.535,0,0,0,.624,2.892,2.041,2.041,0,0,0,1.854,1.011,2.016,2.016,0,0,0,1.8-.993,5.383,5.383,0,0,0,.642-2.856Zm9.483,2.145H20.72V17H17.635V4.2h5.036a5.621,5.621,0,0,1,3.56,1.01,3.421,3.421,0,0,1,1.283,2.853,4.155,4.155,0,0,1-.541,2.213A3.837,3.837,0,0,1,25.281,11.7l2.672,5.167V17h-3.3ZM20.72,10.1h1.951a1.751,1.751,0,0,0,1.323-.463,1.788,1.788,0,0,0,.444-1.291,1.809,1.809,0,0,0-.448-1.3,1.735,1.735,0,0,0-1.318-.471H20.72ZM29.377,17V4.2H33.5a6.064,6.064,0,0,1,3.05.769,5.406,5.406,0,0,1,2.114,2.171,6.554,6.554,0,0,1,.769,3.142v.589a6.592,6.592,0,0,1-.743,3.151A5.429,5.429,0,0,1,36.6,16.2a5.93,5.93,0,0,1-3.01.8ZM32.462,6.585v8.042h1.072a2.4,2.4,0,0,0,2.039-.945,4.63,4.63,0,0,0,.712-2.808V10.32a4.592,4.592,0,0,0-.712-2.795,2.442,2.442,0,0,0-2.074-.94ZM48.95,11.568H44.1v3.059h5.73V17H41.014V4.2h8.833V6.585H44.1v2.7H48.95ZM61.774,17H58.706L54.171,9.037V17H51.086V4.2h3.085L58.7,12.166V4.2h3.076Zm9.378-2.391H66.924L66.186,17h-3.3L67.583,4.2h2.9L75.212,17H71.9Zm-3.489-2.382h2.751l-1.38-4.438ZM76.144,17V4.2h4.122a6.064,6.064,0,0,1,3.05.769,5.406,5.406,0,0,1,2.114,2.171,6.554,6.554,0,0,1,.769,3.142v.589a6.592,6.592,0,0,1-.743,3.151,5.429,5.429,0,0,1-2.092,2.18,5.93,5.93,0,0,1-3.01.8ZM79.229,6.585v8.042H80.3a2.4,2.4,0,0,0,2.039-.945,4.63,4.63,0,0,0,.712-2.808V10.32a4.592,4.592,0,0,0-.712-2.795,2.442,2.442,0,0,0-2.074-.94Zm15.636,8.024H90.637L89.9,17H86.6L91.3,4.2h2.9L98.925,17H95.612Zm-3.489-2.382h2.751l-1.38-4.438Z" transform="translate(1084.087 2777.527)" fill="#7000d2"/>
    <path id="Trazado_884001" data-name="Trazado 884001" d="M7.652,11.609l2.789-5.672h4.7L10.371,14.4l4.9,8.6H10.523L7.652,17.223,4.781,23H.047l4.887-8.6L.176,5.938H4.863Z" transform="translate(1355.73 2925.651)" fill="#e8624e"/>
    <path id="Trazado_883491" data-name="Trazado 883491" d="M-2964.111-7827.409h14.55" transform="translate(4175.528 10648.721)" fill="none" stroke="#707070" stroke-width="2"/>
    <path id="Trazado_883500" data-name="Trazado 883500" d="M-2964.111-7827.409h14.55" transform="translate(4175.528 10772.669)" fill="none" stroke="#707070" stroke-width="2"/>
    <path id="Trazado_883492" data-name="Trazado 883492" d="M-2964.111-7827.409h14.55" transform="translate(4175.528 10680.191)" fill="none" stroke="#707070" stroke-width="2"/>
    <path id="Trazado_883502" data-name="Trazado 883502" d="M-2964.111-7827.409h14.55" transform="translate(4175.528 10804.14)" fill="none" stroke="#707070" stroke-width="2"/>
    <path id="Trazado_883493" data-name="Trazado 883493" d="M-2964.111-7827.409h14.55" transform="translate(4175.528 10711.119)" fill="none" stroke="#707070" stroke-width="2"/>
    <path id="Trazado_883501" data-name="Trazado 883501" d="M-2964.111-7827.409h14.55" transform="translate(4175.528 10835.067)" fill="none" stroke="#707070" stroke-width="2"/>
    <path id="Trazado_883494" data-name="Trazado 883494" d="M0,0H14.55" transform="translate(1124.821 2908.684) rotate(90)" fill="none" stroke="#707070" stroke-width="2"/>
    <path id="Trazado_883497" data-name="Trazado 883497" d="M0,0H14.55" transform="translate(1249.619 2908.684) rotate(90)" fill="none" stroke="#707070" stroke-width="2"/>
    <path id="Trazado_883495" data-name="Trazado 883495" d="M0,0H14.55" transform="translate(1156.289 2908.684) rotate(90)" fill="none" stroke="#707070" stroke-width="2"/>
    <path id="Trazado_883498" data-name="Trazado 883498" d="M0,0H14.55" transform="translate(1281.087 2908.684) rotate(90)" fill="none" stroke="#707070" stroke-width="2"/>
    <path id="Trazado_883496" data-name="Trazado 883496" d="M0,0H14.55" transform="translate(1187.217 2908.684) rotate(90)" fill="none" stroke="#707070" stroke-width="2"/>
    <path id="Trazado_883499" data-name="Trazado 883499" d="M0,0H14.55" transform="translate(1312.015 2908.684) rotate(90)" fill="none" stroke="#707070" stroke-width="2"/>
    <path id="Trazado_883487" data-name="Trazado 883487" d="M-2951-7906.958v275.621" transform="translate(4169.531 10685.105)" fill="none" stroke="#707070" stroke-width="2"/>
    <path id="Trazado_883488" data-name="Trazado 883488" d="M-3212-7652.977h278.181" transform="translate(4288.912 10568.935)" fill="none" stroke="#707070" stroke-width="2"/>
  </g>
</svg>
