<svg xmlns="http://www.w3.org/2000/svg" xmlns:xlink="http://www.w3.org/1999/xlink" width="117" height="117" viewBox="0 0 117 117">
  <defs>
    <clipPath id="clip-path">
      <rect id="Rectángulo_404437" data-name="Rectángulo 404437" width="73.018" height="72.983" fill="#fff"/>
    </clipPath>
  </defs>
  <g id="Grupo_1105471" data-name="Grupo 1105471" transform="translate(-224.711 -3993.83)">
    <circle id="Elipse_11616" data-name="Elipse 11616" cx="58.5" cy="58.5" r="58.5" transform="translate(224.711 3993.83)" fill="#e8624e"/>
    <g id="Grupo_1105363" data-name="Grupo 1105363" transform="translate(246.701 4015.325)">
      <g id="Grupo_1105362" data-name="Grupo 1105362" clip-path="url(#clip-path)">
        <path id="Trazado_883570" data-name="Trazado 883570" d="M56.458,27.1h13.98a1.255,1.255,0,0,1,1.4,1.376c.25,4.837.636,9.67.751,14.51.223,9.37.3,18.744.428,28.117.022,1.6-.267,1.877-1.858,1.878q-7.593.006-15.186,0c-1.474,0-1.719-.246-1.8-1.736-.358-6.331-.713-12.663-1.225-19q-.2,3.573-.407,7.145-.343,6.084-.687,12.168c-.064,1.1-.438,1.423-1.676,1.425q-7.7.012-15.4,0-11.657,0-23.315,0c-1.885,0-2.089-.21-1.968-2.125.361-5.724.883-11.443,1.062-17.173A78.644,78.644,0,0,0,8.628,34.8a1.752,1.752,0,0,0-1.206-1.422c-2.146-.86-4.25-1.822-6.387-2.706A1.486,1.486,0,0,1,0,29.124c.02-2.139-.022-4.278.012-6.417.1-6.22,3.027-10.6,8.671-13.18,1.618-.739,3.326-1.314,4.862-2.194A16.855,16.855,0,0,0,17.9,4.164,10.885,10.885,0,0,1,23.3.743,16.352,16.352,0,0,1,36.674,2.318a2.376,2.376,0,0,1,.75.586c1.983,2.868,4.922,4.34,8.03,5.587,1.023.41,2.035.856,3.019,1.351a13.59,13.59,0,0,1,7.97,12.114c.09,1.666.014,3.341.014,5.142m-6.4,34.073c.047-.456.082-.7.1-.944.148-2.7.233-5.413.478-8.108a4.017,4.017,0,0,1,.971-2.126,1.978,1.978,0,0,1,2.384-.326,2.625,2.625,0,0,1,1.51,2.506q.327,6.619.679,13.238c.092,1.7.229,3.4.349,5.154H70.652c.03-12.16.241-24.256-1.1-36.354H36.438a44.605,44.605,0,0,1-.4,4.615,9.487,9.487,0,0,0,1.208,6.216c1.685,3.374,3.115,6.877,5.585,9.8a29.439,29.439,0,0,0,7.225,6.327M27.011,11.792a21.564,21.564,0,0,1-9.867-3.22.986.986,0,0,0-.784.035c-2.4,1.076-4.8,2.153-7.177,3.278C5.758,13.5,3.34,16.1,2.736,19.862a63.817,63.817,0,0,0-.348,8.4.75.75,0,0,0,.385.549C4.4,29.546,6.041,30.241,7.8,31l-.673-3.645,2.214-.476.619,2.513H27.011ZM54.114,27.1c0-1.734.062-3.335-.012-4.931a11.3,11.3,0,0,0-7-10.366A58.889,58.889,0,0,1,41.576,9.3a3.255,3.255,0,0,0-3.831.139A19.482,19.482,0,0,1,29.5,11.793V29.388h4.621c.223-2.289.223-2.289,2.544-2.289H54.114ZM12.4,65.831H27V48.337H13.067c-.222,5.853-.441,11.637-.663,17.494m37.168,4.249c.116-1.91.2-3.649.338-5.383a1.181,1.181,0,0,0-.686-1.268A31.37,31.37,0,0,1,37.4,50.81c-.566-1.092-1.067-2.218-1.6-3.328l-.276.089c.49,4.279,1.111,8.53,3.218,12.41a22.944,22.944,0,0,0,10.829,10.1M69.434,29.523H36.6v2.214H69.434ZM12.114,41.139h14.9V36.584H11.369l.745,4.556m20.92,7.223H29.483V65.845h3.551Zm2.428,10.365V70.508H45.3c-5.337-4.082-6.062-4.951-9.842-11.781M27.019,31.882H10.377l.53,2.221H27.019Zm-14.4,13.97H26.984v-2.22H12.473c.05.763.095,1.46.144,2.22m-.774,24.691H27v-2.2H12.082l-.239,2.2M33.9,36.592H29.474v4.574H33.5c.131-1.522.259-3,.4-4.574M22.715,3.575a13.562,13.562,0,0,0,11.064-.022,13.658,13.658,0,0,0-11.064.022M29.455,9.4a17.9,17.9,0,0,0,8.1-2.537c-1.188-1.715-1.187-1.712-2.887-.983a5.964,5.964,0,0,1-.9.329c-1.429.356-2.862.695-4.314,1.044ZM18.886,6.847a18.148,18.148,0,0,0,8.1,2.539V7.307c-1.753-.479-3.418-.831-5.007-1.4-1.813-.644-1.784-.727-3.093.936M34.1,31.876H29.5v2.251h4.6ZM29.458,45.844h3.818c.036-.777.067-1.476.1-2.209H29.458Zm0,24.712h3.5V68.367h-3.5Z" transform="translate(0 0)" fill="#fff"/>
      </g>
    </g>
  </g>
</svg>
