<svg xmlns="http://www.w3.org/2000/svg" xmlns:xlink="http://www.w3.org/1999/xlink" width="117" height="117" viewBox="0 0 117 117">
  <defs>
    <clipPath id="clip-path">
      <rect id="Rectángulo_404435" data-name="Rectángulo 404435" width="79.417" height="79.149" fill="#fff"/>
    </clipPath>
  </defs>
  <g id="Grupo_1105469" data-name="Grupo 1105469" transform="translate(-224.711 -3673.83)">
    <circle id="Elipse_11616" data-name="Elipse 11616" cx="58.5" cy="58.5" r="58.5" transform="translate(224.711 3673.83)" fill="#e8624e"/>
    <g id="Grupo_1105359" data-name="Grupo 1105359" transform="translate(246.294 3692.755)">
      <g id="Grupo_1105358" data-name="Grupo 1105358" clip-path="url(#clip-path)">
        <path id="Trazado_883553" data-name="Trazado 883553" d="M91.99,94.979q0-9.807-.008-19.614a2.687,2.687,0,0,1,1.161-2.611,3.665,3.665,0,0,1,1.742-.49c7.778-.032,15.556-.017,23.334-.027a2.928,2.928,0,0,1,2.185.89q3.688,3.695,7.39,7.377a2.925,2.925,0,0,1,.9,2.181q-.011,16.074-.011,32.148a2.637,2.637,0,0,1-2.909,2.867q-15.44.016-30.88,0a2.651,2.651,0,0,1-2.9-2.991q-.014-9.865,0-19.73m25.746-20.072H94.619v40.13H102.6v-3.649c-.42-.029-.8-.038-1.173-.084a1.264,1.264,0,0,1-1.272-1.25,1.281,1.281,0,0,1,1.266-1.264c.372-.053.75-.064,1.155-.1v-2.017c-.978-.171-2.349.234-2.383-1.251-.036-1.566,1.406-1.288,2.4-1.463v-1.945c-1-.167-2.413.2-2.4-1.345.011-1.5,1.4-1.216,2.405-1.362V96.918c-.242-.1-.491-.192-.733-.3a5.309,5.309,0,0,1-3.144-6.358,20.132,20.132,0,0,0,.725-6.411,3.439,3.439,0,0,1,.025-.81,1.711,1.711,0,0,1,1.653-1.516q2.785-.062,5.572,0a1.608,1.608,0,0,1,1.643,1.5,8.967,8.967,0,0,1,.061,1.619,12.469,12.469,0,0,0,.354,4.006c.2.663.31,1.353.468,2.03a5.343,5.343,0,0,1-2.594,5.615c-.435.238-.9.428-1.319.628v4.715c1.864.133,2.338.36,2.336,1.216,0,1.649-1.4,1.284-2.344,1.491V106.3c1.858.143,2.3.364,2.338,1.211a1.572,1.572,0,0,1-.226.87c-.5.775-1.4.428-2.116.607v1.967c1.841.168,2.3.4,2.341,1.23a1.632,1.632,0,0,1-.222.872c-.493.813-1.419.375-2.121.61v1.377h20.737V83.254c-2.029,0-3.962.023-5.894-.007-1.745-.027-2.38-.687-2.4-2.4-.007-.774,0-1.548,0-2.321V74.907M101.921,87.83c-.3,1.177-.632,2.243-.823,3.335a2.855,2.855,0,0,0,4.288,2.87,2.59,2.59,0,0,0,1.356-2.622,34.416,34.416,0,0,0-.809-3.584ZM120.4,76.925v3.709c1.254,0,2.41.069,3.487-.029l-3.487-3.68M101.98,84.11l.1,1.064h3.662V84.11Z" transform="translate(-70.63 -55.47)" fill="#fff"/>
        <path id="Trazado_883554" data-name="Trazado 883554" d="M20.567,78.728H7.377A5.894,5.894,0,0,1,6.45,78.7a1.36,1.36,0,0,1-1.164-1.372,1.309,1.309,0,0,1,1.251-1.149,6.743,6.743,0,0,1,.7-.012q6.44,0,12.881,0c2.208,0,3.121.878,3.123,3.077q.015,18.736,0,37.472c0,2.21-.908,3.091-3.108,3.094q-6.44.007-12.881,0c-.232,0-.466.012-.7-.011a1.326,1.326,0,0,1-1.277-1.251,1.383,1.383,0,0,1,1.273-1.282,8.072,8.072,0,0,1,.928-.015H20.567Z" transform="translate(-4.051 -58.487)" fill="#fff"/>
        <path id="Trazado_883555" data-name="Trazado 883555" d="M262.108,78.731v38.528h1.333q5.976,0,11.952,0a4.971,4.971,0,0,1,.926.033,1.377,1.377,0,0,1,1.1,1.314,1.312,1.312,0,0,1-1.208,1.194,5.786,5.786,0,0,1-.7.016q-6.5,0-13,0c-2.121,0-3.052-.9-3.054-3.029q-.016-18.794,0-37.587c0-2.128.931-3.022,3.056-3.025q6.5-.008,13,0c1.253,0,1.866.4,1.9,1.211.036.841-.669,1.344-1.914,1.345q-6.034.005-12.068,0h-1.329" transform="translate(-199.231 -58.489)" fill="#fff"/>
        <path id="Trazado_883556" data-name="Trazado 883556" d="M118.11,15.049V6.722c0-.387-.021-.775.007-1.16a1.339,1.339,0,0,1,1.291-1.367,1.257,1.257,0,0,1,1.249,1.376c.027,2.088.01,4.177.011,6.265,0,1.121.019,2.244-.006,3.364a2.315,2.315,0,0,1-2.445,2.5c-.309.017-.619.008-.929.008h-36.9c-.348,0-.7.01-1.044-.016A2.268,2.268,0,0,1,77.026,15.3c-.033-3.209-.021-6.42-.007-9.629,0-.929.521-1.492,1.263-1.481a1.342,1.342,0,0,1,1.279,1.5c.02,2.668.008,5.337.009,8.005,0,.42,0,.84,0,1.353Z" transform="translate(-59.13 -3.221)" fill="#fff"/>
        <path id="Trazado_883557" data-name="Trazado 883557" d="M118.112,280.575H79.639c-.023.37-.063.7-.063,1.04q-.008,3.828,0,7.657c0,.232.009.465,0,.7-.048.909-.545,1.487-1.281,1.5s-1.256-.55-1.267-1.478c-.021-1.817-.007-3.635-.007-5.453,0-1.354-.019-2.708.007-4.06a2.319,2.319,0,0,1,2.432-2.515c.308-.017.619-.009.928-.009h36.9c.386,0,.775-.01,1.159.026a2.214,2.214,0,0,1,2.2,2.247c.043,3.286.03,6.574.012,9.861a1.257,1.257,0,0,1-1.246,1.381,1.336,1.336,0,0,1-1.293-1.481c-.022-2.63-.009-5.259-.009-7.889v-1.522" transform="translate(-59.132 -213.43)" fill="#fff"/>
        <path id="Trazado_883558" data-name="Trazado 883558" d="M10.2,158.422H4.455c-.929,0-1.858.011-2.786,0-1.154-.019-1.685-.443-1.669-1.3s.539-1.242,1.721-1.248c2.361-.012,4.721,0,7.082,0h1.384c-.206-.344-.318-.538-.436-.728a1.16,1.16,0,0,1,.241-1.574,1.124,1.124,0,0,1,1.591-.062c1,.911,1.961,1.87,2.867,2.873.5.553.408,1.142-.173,1.763-.766.818-1.567,1.606-2.378,2.382a1.338,1.338,0,0,1-1.868.257c-.544-.449-.585-1.054-.124-1.863.055-.1.113-.191.291-.49" transform="translate(0 -117.637)" fill="#fff"/>
        <path id="Trazado_883559" data-name="Trazado 883559" d="M283.18,158.537c.7,1.3.685,1.962.03,2.412-.619.425-1.231.246-2.11-.624-.659-.653-1.329-1.3-1.966-1.971a1.34,1.34,0,0,1,.015-2.206c.693-.728,1.413-1.431,2.133-2.133s1.37-.846,1.944-.435c.619.443.647,1.066.1,2.035a2.007,2.007,0,0,0-.088.365h1.146q3.481,0,6.963,0a4.95,4.95,0,0,1,1.038.065,1.119,1.119,0,0,1,.934,1.163,1.138,1.138,0,0,1-.953,1.263,4.99,4.99,0,0,1-1.039.062q-3.6.007-7.195,0h-.951" transform="translate(-213.901 -117.752)" fill="#fff"/>
        <path id="Trazado_883560" data-name="Trazado 883560" d="M151.868,6.17c0-1.467,0-2.777,0-4.088a7.95,7.95,0,0,1,.047-1.039A1.118,1.118,0,0,1,152.988.011a1.121,1.121,0,0,1,1.278.772,4.016,4.016,0,0,1,.164,1.248c.02,1.307.007,2.615.007,4.069a6.888,6.888,0,0,1,.9-.449,1.211,1.211,0,0,1,1.44.444,1.08,1.08,0,0,1,0,1.485c-.92.987-1.864,1.956-2.856,2.87a1.24,1.24,0,0,1-1.773-.146c-.814-.767-1.606-1.559-2.381-2.366-.685-.714-.734-1.357-.207-1.946.469-.524,1.02-.531,1.861-.028.092.055.195.091.45.208" transform="translate(-114.567 0)" fill="#fff"/>
        <path id="Trazado_883561" data-name="Trazado 883561" d="M151.874,299.12c-1.233.727-1.864.747-2.343.178-.55-.653-.409-1.264.515-2.2.653-.658,1.3-1.324,1.971-1.964.828-.789,1.377-.8,2.2-.032.759.715,1.494,1.457,2.218,2.208s.808,1.344.329,1.935c-.467.575-1.014.6-1.952.087a1.935,1.935,0,0,0-.364-.08c0,1.284.007,2.541,0,3.8a5.808,5.808,0,0,1-.089,1.265,1.2,1.2,0,0,1-1.367.981,1.142,1.142,0,0,1-1.078-1.165c-.033-1.236-.025-2.473-.032-3.709,0-.381,0-.762,0-1.309" transform="translate(-114.573 -226.169)" fill="#fff"/>
        <path id="Trazado_883562" data-name="Trazado 883562" d="M139.322,154.3a1.223,1.223,0,0,1-1.222-1.25,1.23,1.23,0,0,1,2.459.014,1.219,1.219,0,0,1-1.237,1.236" transform="translate(-106.043 -116.61)" fill="#fff"/>
      </g>
    </g>
  </g>
</svg>
