<svg id="Grupo_1105451" data-name="Grupo 1105451" xmlns="http://www.w3.org/2000/svg" xmlns:xlink="http://www.w3.org/1999/xlink" width="459.203" height="281.824" viewBox="0 0 459.203 281.824">
  <defs>
    <clipPath id="clip-path">
      <rect id="Rectángulo_404502" data-name="Rectángulo 404502" width="459.203" height="281.824" fill="none"/>
    </clipPath>
    <clipPath id="clip-path-3">
      <path id="Trazado_883914" data-name="Trazado 883914" d="M236.7,72.5H59.03a7.081,7.081,0,0,0-7.081,7.082V274.508a18.72,18.72,0,0,0,18.72,18.72H330.634a17.755,17.755,0,0,0,17.754-17.755V231.01a17.754,17.754,0,0,0-17.754-17.755H157.383a6.789,6.789,0,0,1-6.789-6.789v-33.32a23.164,23.164,0,0,1,23.164-23.165h33.32a10.907,10.907,0,0,1,10.906,10.906,18.72,18.72,0,0,0,18.719,18.72h58.6a18.72,18.72,0,0,0,18.72-18.72V91.218A18.72,18.72,0,0,0,295.3,72.5Z" transform="translate(-51.949 -72.498)" fill="none"/>
    </clipPath>
    <clipPath id="clip-path-5">
      <rect id="Rectángulo_404476" data-name="Rectángulo 404476" width="13.362" height="51.728" fill="none"/>
    </clipPath>
    <clipPath id="clip-path-6">
      <rect id="Rectángulo_404478" data-name="Rectángulo 404478" width="13.363" height="51.728" fill="none"/>
    </clipPath>
    <clipPath id="clip-path-12">
      <path id="Trazado_883956" data-name="Trazado 883956" d="M221.427,61.438c2.068,20.347-10.919,39.066-9.909,55.728.736,12.137,1.01,12.117,1.01,12.117a53.707,53.707,0,0,0,30.742,1.327c-4.607-47.765,9.363-67.49-6.586-74.371,0,0-6.574,6.583-15.256,5.2" transform="translate(-211.462 -56.239)" fill="none"/>
    </clipPath>
  </defs>
  <g id="Grupo_1105450" data-name="Grupo 1105450" clip-path="url(#clip-path)">
    <rect id="Rectángulo_404445" data-name="Rectángulo 404445" width="73.397" height="52.955" transform="translate(369.486 195.103)" fill="#353c8e"/>
    <rect id="Rectángulo_404446" data-name="Rectángulo 404446" width="144.631" height="27.897" transform="translate(276.287 233.506)" fill="#ff92a4"/>
    <path id="Trazado_883895" data-name="Trazado 883895" d="M633.445,350.678l9.572-3.487-9.572-3.487Z" transform="translate(-183.814 -99.736)" fill="#ff5053"/>
    <path id="Trazado_883896" data-name="Trazado 883896" d="M621.707,339.427l-28.714-10.461v27.9L621.707,346.4Z" transform="translate(-172.075 -95.459)" fill="#ffe9ce"/>
    <rect id="Rectángulo_404447" data-name="Rectángulo 404447" width="144.631" height="6.975" transform="translate(276.287 243.967)" fill="#f97d97"/>
    <rect id="Rectángulo_404448" data-name="Rectángulo 404448" width="79.144" height="36.987" transform="translate(243.631 230.764)" fill="#353c8e"/>
    <path id="Trazado_883897" data-name="Trazado 883897" d="M396.273,302.649H385.735L425.886,104.52h8.822Z" transform="translate(-111.933 -30.33)" fill="#142544"/>
    <path id="Trazado_883898" data-name="Trazado 883898" d="M480.735,302.649h10.538L451.122,104.52H442.3Z" transform="translate(-128.347 -30.33)" fill="#142544"/>
    <rect id="Rectángulo_404449" data-name="Rectángulo 404449" width="168.544" height="165.693" transform="translate(238.233 81.908)" fill="#f4f5fe"/>
    <rect id="Rectángulo_404450" data-name="Rectángulo 404450" width="2.703" height="156.012" transform="translate(249.269 81.908)" fill="#7c87d8"/>
    <rect id="Rectángulo_404451" data-name="Rectángulo 404451" width="2.703" height="156.012" transform="translate(393.038 81.908)" fill="#7c87d8"/>
    <rect id="Rectángulo_404452" data-name="Rectángulo 404452" width="156.212" height="153.018" transform="translate(244.526 88.245)" fill="#f6e5e8"/>
    <rect id="Rectángulo_404453" data-name="Rectángulo 404453" width="156.466" height="6.387" transform="translate(244.272 88.245)" fill="#4e51bf"/>
    <g id="Grupo_1105420" data-name="Grupo 1105420">
      <g id="Grupo_1105419" data-name="Grupo 1105419" clip-path="url(#clip-path)">
        <path id="Trazado_883899" data-name="Trazado 883899" d="M537.956,285.79h0c-15.282,0-32.558-17.819-33.6-35.093l3.959-17.249c18.907-25.077,29.643,52.343,29.643,52.343" transform="translate(-146.354 -66.291)" fill="#ff92a4"/>
        <path id="Trazado_883900" data-name="Trazado 883900" d="M518.3,156.377h-7.243s.453,6.187-10.713,10.713v8.148s5.358,9.959,5.358,20.521a8.778,8.778,0,0,0,2.5,1.64,15.46,15.46,0,0,0,12.953,0,8.779,8.779,0,0,0,2.5-1.64c0-10.562,5.358-20.521,5.358-20.521V167.09c-11.166-4.527-10.713-10.713-10.713-10.713" transform="translate(-145.189 -45.378)" fill="#243172"/>
        <path id="Trazado_883901" data-name="Trazado 883901" d="M521.465,207.248H506.112s-10.593,9.443-8.2,37.3h0a46.433,46.433,0,0,0,31.747,0h0c2.4-27.853-8.2-37.3-8.2-37.3" transform="translate(-144.383 -60.139)" fill="#243172"/>
        <path id="Trazado_883902" data-name="Trazado 883902" d="M504.006,202.171s-11.31,20.433-4.547,37.8,36.451,38.194,36.451,38.194-.29-52.923-11.887-68.95c-11.376-6.823-20.017-7.044-20.017-7.044" transform="translate(-144.308 -58.666)" fill="#f97d97"/>
        <path id="Trazado_883903" data-name="Trazado 883903" d="M527.655,167.835s-4.882,6.867-14.761,19.852c3.325,7.327,15.653,1.823,15.653,1.823l2.237-6.811,1.867-12.283Z" transform="translate(-148.832 -48.702)" fill="#f97d97"/>
        <path id="Trazado_883904" data-name="Trazado 883904" d="M508.694,163.506l-8.529,5.652s-5.713,33.222,24.564,28.836v-9.742s-13.37-2.814-16.035-24.746" transform="translate(-145.014 -47.446)" fill="#ff92a4"/>
        <path id="Trazado_883905" data-name="Trazado 883905" d="M377.2,156.377H357a40.151,40.151,0,0,0,39.533,39.949V176.063A22.269,22.269,0,0,1,377.2,156.377Z" transform="translate(-103.595 -45.378)" fill="none" stroke="#c56f60" stroke-miterlimit="10" stroke-width="0.501"/>
        <path id="Trazado_883906" data-name="Trazado 883906" d="M357,234.27c0,52.29,35.11,55.291,35.11,55.291V234.27Z" transform="translate(-103.595 -67.981)" fill="none" stroke="#c56f60" stroke-miterlimit="10" stroke-width="0.501"/>
        <path id="Trazado_883907" data-name="Trazado 883907" d="M426.431,234.27c0,58.878,36.623,62.258,36.623,62.258V234.27Z" transform="translate(-123.742 -67.981)" fill="none" stroke="#c56f60" stroke-miterlimit="10" stroke-width="0.482"/>
        <path id="Trazado_883908" data-name="Trazado 883908" d="M433.917,196.325l14.454-39.949h16.855v39.949Z" transform="translate(-125.914 -45.377)" fill="none" stroke="#c56f60" stroke-miterlimit="10" stroke-width="0.501"/>
        <line id="Línea_4401" data-name="Línea 4401" x1="31.131" transform="translate(308.091 153.443)" fill="none" stroke="#c56f60" stroke-miterlimit="10" stroke-width="0.251"/>
        <rect id="Rectángulo_404454" data-name="Rectángulo 404454" width="0.178" height="1.156" transform="translate(339.133 152.865)" fill="#c56f60"/>
        <rect id="Rectángulo_404455" data-name="Rectángulo 404455" width="0.178" height="1.156" transform="translate(308.003 152.865)" fill="#c56f60"/>
        <line id="Línea_4402" data-name="Línea 4402" x1="39.355" transform="translate(253.497 153.443)" fill="none" stroke="#c56f60" stroke-miterlimit="10" stroke-width="0.251"/>
        <rect id="Rectángulo_404456" data-name="Rectángulo 404456" width="0.178" height="1.156" transform="translate(292.763 152.865)" fill="#c56f60"/>
        <rect id="Rectángulo_404457" data-name="Rectángulo 404457" width="0.178" height="1.156" transform="translate(253.408 152.865)" fill="#c56f60"/>
        <line id="Línea_4403" data-name="Línea 4403" y1="39.628" transform="translate(341.8 111.089)" fill="none" stroke="#c56f60" stroke-miterlimit="10" stroke-width="0.251"/>
        <rect id="Rectángulo_404458" data-name="Rectángulo 404458" width="1.156" height="0.178" transform="translate(341.221 150.627)" fill="#c56f60"/>
        <rect id="Rectángulo_404459" data-name="Rectángulo 404459" width="1.156" height="0.178" transform="translate(341.221 110.999)" fill="#c56f60"/>
        <line id="Línea_4404" data-name="Línea 4404" y1="19.725" transform="translate(295.511 130.991)" fill="none" stroke="#c56f60" stroke-miterlimit="10" stroke-width="0.251"/>
        <rect id="Rectángulo_404460" data-name="Rectángulo 404460" width="1.156" height="0.178" transform="translate(294.933 150.627)" fill="#c56f60"/>
        <rect id="Rectángulo_404461" data-name="Rectángulo 404461" width="1.156" height="0.178" transform="translate(294.933 130.902)" fill="#c56f60"/>
        <line id="Línea_4405" data-name="Línea 4405" y2="55.114" transform="translate(291.087 166.378)" fill="none" stroke="#c56f60" stroke-miterlimit="10" stroke-width="0.251"/>
        <rect id="Rectángulo_404462" data-name="Rectángulo 404462" width="1.156" height="0.178" transform="translate(290.509 166.289)" fill="#c56f60"/>
        <rect id="Rectángulo_404463" data-name="Rectángulo 404463" width="1.156" height="0.178" transform="translate(290.509 221.403)" fill="#c56f60"/>
        <line id="Línea_4406" data-name="Línea 4406" x2="34.932" transform="translate(253.497 163.927)" fill="none" stroke="#c56f60" stroke-miterlimit="10" stroke-width="0.251"/>
        <rect id="Rectángulo_404464" data-name="Rectángulo 404464" width="0.178" height="1.156" transform="translate(253.408 163.349)" fill="#c56f60"/>
        <rect id="Rectángulo_404465" data-name="Rectángulo 404465" width="0.178" height="1.156" transform="translate(288.339 163.349)" fill="#c56f60"/>
        <line id="Línea_4407" data-name="Línea 4407" y1="62.08" transform="translate(341.8 166.378)" fill="none" stroke="#c56f60" stroke-miterlimit="10" stroke-width="0.251"/>
        <rect id="Rectángulo_404466" data-name="Rectángulo 404466" width="1.156" height="0.178" transform="translate(341.221 228.369)" fill="#c56f60"/>
        <rect id="Rectángulo_404467" data-name="Rectángulo 404467" width="1.156" height="0.178" transform="translate(341.221 166.289)" fill="#c56f60"/>
        <line id="Línea_4408" data-name="Línea 4408" x2="36.445" transform="translate(302.778 163.927)" fill="none" stroke="#c56f60" stroke-miterlimit="10" stroke-width="0.251"/>
        <rect id="Rectángulo_404468" data-name="Rectángulo 404468" width="0.178" height="1.156" transform="translate(302.688 163.349)" fill="#c56f60"/>
        <rect id="Rectángulo_404469" data-name="Rectángulo 404469" width="0.178" height="1.156" transform="translate(339.133 163.349)" fill="#c56f60"/>
        <line id="Línea_4409" data-name="Línea 4409" x1="16.477" transform="translate(322.707 108.195)" fill="none" stroke="#c56f60" stroke-miterlimit="10" stroke-width="0.251"/>
        <rect id="Rectángulo_404470" data-name="Rectángulo 404470" width="0.178" height="1.156" transform="translate(339.095 107.616)" fill="#c56f60"/>
        <rect id="Rectángulo_404471" data-name="Rectángulo 404471" width="0.178" height="1.156" transform="translate(322.618 107.616)" fill="#c56f60"/>
        <path id="Trazado_883909" data-name="Trazado 883909" d="M52.282,147.3H40.995a13.879,13.879,0,0,1-13.88-13.879V112.534a13.88,13.88,0,0,1,13.88-13.879H52.282a2.964,2.964,0,0,1,2.964,2.964v42.715a2.964,2.964,0,0,1-2.964,2.964" transform="translate(-7.868 -28.628)" fill="#656dce"/>
        <path id="Trazado_883910" data-name="Trazado 883910" d="M354.509,226.763h0a5.7,5.7,0,0,0,5.7-5.7v-5.7H348.812v5.7a5.7,5.7,0,0,0,5.7,5.7" transform="translate(-101.219 -62.496)" fill="#656dce"/>
        <path id="Trazado_883911" data-name="Trazado 883911" d="M356.339,252.376h0a1.221,1.221,0,0,0,1.221-1.221V230.4h-2.442v20.754a1.221,1.221,0,0,0,1.221,1.221" transform="translate(-103.048 -66.858)" fill="#656dce"/>
        <path id="Trazado_883912" data-name="Trazado 883912" d="M330.634,213.256H157.383a6.79,6.79,0,0,1-6.79-6.789v-33.32a23.165,23.165,0,0,1,23.165-23.165h33.32a10.907,10.907,0,0,1,10.906,10.906,18.72,18.72,0,0,0,18.719,18.72h58.6a18.72,18.72,0,0,0,18.72-18.72V91.218A18.72,18.72,0,0,0,295.3,72.5H59.031a7.082,7.082,0,0,0-7.082,7.082V274.508a18.719,18.719,0,0,0,18.719,18.719H330.634a17.754,17.754,0,0,0,17.754-17.754V231.01a17.754,17.754,0,0,0-17.754-17.754" transform="translate(-15.075 -21.038)" fill="#7c87d8"/>
      </g>
    </g>
    <g id="Grupo_1105422" data-name="Grupo 1105422" transform="translate(36.874 51.46)">
      <g id="Grupo_1105421" data-name="Grupo 1105421" clip-path="url(#clip-path-3)">
        <path id="Trazado_883913" data-name="Trazado 883913" d="M380.071,265.9H165.544a11.813,11.813,0,0,1-11.814-11.814V193.471a11.813,11.813,0,0,1,11.814-11.814H212.1a11.813,11.813,0,0,1,11.813,11.814v21.154a11.814,11.814,0,0,0,8.862,11.439l61.37,15.832a11.791,11.791,0,0,0,2.951.375h82.974a11.813,11.813,0,1,1,0,23.626" transform="translate(-81.484 -104.174)" fill="#656dce"/>
      </g>
    </g>
    <g id="Grupo_1105445" data-name="Grupo 1105445">
      <g id="Grupo_1105444" data-name="Grupo 1105444" clip-path="url(#clip-path)">
        <path id="Trazado_883915" data-name="Trazado 883915" d="M252.53,104.729H181.4A16.848,16.848,0,0,1,164.547,87.88V72.5h104.83V87.88a16.848,16.848,0,0,1-16.848,16.848" transform="translate(-47.748 -21.038)" fill="#656dce"/>
        <path id="Trazado_883916" data-name="Trazado 883916" d="M322.822,188.847h9.167a1.739,1.739,0,0,0,1.739-1.739V183.4a1.739,1.739,0,0,0-1.739-1.739h-9.167a1.739,1.739,0,0,0-1.739,1.739v3.712a1.739,1.739,0,0,0,1.739,1.739" transform="translate(-93.172 -52.713)" fill="#656dce"/>
        <path id="Trazado_883917" data-name="Trazado 883917" d="M299.353,188.847h9.167a1.739,1.739,0,0,0,1.739-1.739V183.4a1.739,1.739,0,0,0-1.739-1.739h-9.167a1.739,1.739,0,0,0-1.739,1.739v3.712a1.739,1.739,0,0,0,1.739,1.739" transform="translate(-86.362 -52.713)" fill="#656dce"/>
        <path id="Trazado_883918" data-name="Trazado 883918" d="M118.168,72.5h1.912V294.985h-1.912" transform="translate(-34.29 -21.038)" fill="#656dce"/>
        <path id="Trazado_883919" data-name="Trazado 883919" d="M110.54,72.5h1.912V294.985H110.54" transform="translate(-32.077 -21.038)" fill="#656dce"/>
        <path id="Trazado_883920" data-name="Trazado 883920" d="M83.807,324.417a22.684,22.684,0,1,0,22.684-22.684,22.684,22.684,0,0,0-22.684,22.684" transform="translate(-24.319 -87.557)" fill="#353c8e"/>
        <path id="Trazado_883921" data-name="Trazado 883921" d="M98.755,328.755a12.074,12.074,0,1,0,12.073-12.074,12.073,12.073,0,0,0-12.073,12.074" transform="translate(-28.657 -91.895)" fill="#142544"/>
        <path id="Trazado_883922" data-name="Trazado 883922" d="M106.042,99.415h0A23.781,23.781,0,1,0,129.824,123.2a23.782,23.782,0,0,0-23.782-23.782" transform="translate(-23.87 -28.848)" fill="#656dce"/>
        <path id="Trazado_883923" data-name="Trazado 883923" d="M97.517,69.156h26.925l-6.855-8.176H104.372Z" transform="translate(-28.297 -17.695)" fill="#353c8e"/>
        <path id="Trazado_883924" data-name="Trazado 883924" d="M124.441,13.04H97.516l6.855,8.176h13.215Z" transform="translate(-28.297 -3.784)" fill="#353c8e"/>
        <rect id="Rectángulo_404473" data-name="Rectángulo 404473" width="15.517" height="28.598" transform="translate(74.923 16.06)" fill="#353c8e"/>
        <path id="Trazado_883925" data-name="Trazado 883925" d="M122.073,22.827V50.4A1.268,1.268,0,0,1,120.8,51.67H104.427a1.268,1.268,0,0,1-1.268-1.268V22.827a1.268,1.268,0,0,1,1.268-1.268H120.8a1.268,1.268,0,0,1,1.268,1.268" transform="translate(-29.935 -6.256)" fill="#f3a6b4"/>
        <path id="Trazado_883926" data-name="Trazado 883926" d="M103.16,21.56l18.914,5.147-18.914,4.91,18.914,3.959-18.914,7.5L122.074,46.9,103.16,51.67" transform="translate(-29.935 -6.256)" fill="none" stroke="#ff5053" stroke-linecap="round" stroke-linejoin="round" stroke-width="0.749"/>
        <path id="Trazado_883927" data-name="Trazado 883927" d="M122.073,51.018,103.159,48.46l18.914-6.866-18.914-3.326,18.914-7.523-18.914-6.493,18.914-2.692" transform="translate(-29.935 -6.256)" fill="none" stroke="#ff5053" stroke-linecap="round" stroke-linejoin="round" stroke-width="0.749"/>
        <rect id="Rectángulo_404474" data-name="Rectángulo 404474" width="153.021" height="51.728" transform="translate(106.397 224.787)" fill="#353c8e"/>
        <g id="Grupo_1105425" data-name="Grupo 1105425" transform="translate(106.398 224.787)" opacity="0.5">
          <g id="Grupo_1105424" data-name="Grupo 1105424">
            <g id="Grupo_1105423" data-name="Grupo 1105423" clip-path="url(#clip-path-5)">
              <rect id="Rectángulo_404475" data-name="Rectángulo 404475" width="13.362" height="51.728" transform="translate(0 0)" fill="#293277"/>
            </g>
          </g>
        </g>
        <g id="Grupo_1105428" data-name="Grupo 1105428" transform="translate(129.692 224.787)" opacity="0.5">
          <g id="Grupo_1105427" data-name="Grupo 1105427">
            <g id="Grupo_1105426" data-name="Grupo 1105426" clip-path="url(#clip-path-6)">
              <rect id="Rectángulo_404477" data-name="Rectángulo 404477" width="13.363" height="51.728" transform="translate(0 0)" fill="#293277"/>
            </g>
          </g>
        </g>
        <g id="Grupo_1105431" data-name="Grupo 1105431" transform="translate(152.986 224.787)" opacity="0.5">
          <g id="Grupo_1105430" data-name="Grupo 1105430">
            <g id="Grupo_1105429" data-name="Grupo 1105429" clip-path="url(#clip-path-6)">
              <rect id="Rectángulo_404479" data-name="Rectángulo 404479" width="13.363" height="51.728" transform="translate(0 0)" fill="#293277"/>
            </g>
          </g>
        </g>
        <g id="Grupo_1105434" data-name="Grupo 1105434" transform="translate(176.281 224.787)" opacity="0.5">
          <g id="Grupo_1105433" data-name="Grupo 1105433">
            <g id="Grupo_1105432" data-name="Grupo 1105432" clip-path="url(#clip-path-5)">
              <rect id="Rectángulo_404481" data-name="Rectángulo 404481" width="13.362" height="51.728" transform="translate(0 0)" fill="#293277"/>
            </g>
          </g>
        </g>
        <g id="Grupo_1105437" data-name="Grupo 1105437" transform="translate(199.575 224.787)" opacity="0.5">
          <g id="Grupo_1105436" data-name="Grupo 1105436">
            <g id="Grupo_1105435" data-name="Grupo 1105435" clip-path="url(#clip-path-5)">
              <rect id="Rectángulo_404483" data-name="Rectángulo 404483" width="13.363" height="51.728" transform="translate(-0.001 0)" fill="#293277"/>
            </g>
          </g>
        </g>
        <g id="Grupo_1105440" data-name="Grupo 1105440" transform="translate(222.869 224.787)" opacity="0.5">
          <g id="Grupo_1105439" data-name="Grupo 1105439">
            <g id="Grupo_1105438" data-name="Grupo 1105438" clip-path="url(#clip-path-5)">
              <rect id="Rectángulo_404485" data-name="Rectángulo 404485" width="13.363" height="51.728" transform="translate(-0.001 0)" fill="#293277"/>
            </g>
          </g>
        </g>
        <g id="Grupo_1105443" data-name="Grupo 1105443" transform="translate(246.163 224.787)" opacity="0.5">
          <g id="Grupo_1105442" data-name="Grupo 1105442">
            <g id="Grupo_1105441" data-name="Grupo 1105441" clip-path="url(#clip-path-5)">
              <rect id="Rectángulo_404487" data-name="Rectángulo 404487" width="13.363" height="51.728" transform="translate(-0.001 0)" fill="#293277"/>
            </g>
          </g>
        </g>
        <path id="Trazado_883928" data-name="Trazado 883928" d="M288.855,56.324a27.273,27.273,0,0,0,5.22.723c.8-.007,5.315-.684,5-1.849-.151-.552-3.972-.172-3.972-.172a66.144,66.144,0,0,1,5.085-4.483c2.716-2.131,1.714-2.1-1.095-2.5s-7.621,1.589-11.4,5.065" transform="translate(-83.481 -13.926)" fill="#f7a079"/>
        <path id="Trazado_883929" data-name="Trazado 883929" d="M292.174,183.868s-.569,110.084,45.454,118.088c-14.15-39.8-14.73-113.073-14.73-113.073Z" transform="translate(-84.783 -53.355)" fill="#ff92a4"/>
        <path id="Trazado_883930" data-name="Trazado 883930" d="M313.254,36.933h-12.31s.769,10.515-18.209,18.209V68.991s9.107,16.926,9.107,34.879a14.931,14.931,0,0,0,4.25,2.787,26.274,26.274,0,0,0,22.015,0,14.921,14.921,0,0,0,4.25-2.787c0-17.953,9.107-34.879,9.107-34.879V55.142c-18.978-7.694-18.209-18.209-18.209-18.209" transform="translate(-82.044 -10.717)" fill="#fff"/>
        <path id="Trazado_883931" data-name="Trazado 883931" d="M309.217,279.875c-12.15,0-19.118,1.765-19.118,4.842h1.038c0-1.413,3.808-3.8,18.081-3.8s18.079,2.391,18.079,3.8h1.038c0-3.077-6.968-4.842-19.117-4.842" transform="translate(-84.181 -81.214)" fill="#fff"/>
        <path id="Trazado_883932" data-name="Trazado 883932" d="M318.846,122.9H292.552s-18.142,16.172-14.038,63.874a79.5,79.5,0,0,0,54.37,0c4.1-47.7-14.038-63.874-14.038-63.874" transform="translate(-80.644 -35.665)" fill="#fff"/>
        <rect id="Rectángulo_404489" data-name="Rectángulo 404489" width="2.308" height="138.6" transform="translate(223.901 134.444)" fill="#142544"/>
        <path id="Trazado_883933" data-name="Trazado 883933" d="M320.112,376.034c-5.674-9.541-13.313-10.477-13.313-10.477s-7.638.936-13.313,10.477S281.7,386.511,281.7,386.511v1.31s9.3.078,13.479-6.561a22.182,22.182,0,0,1,4.108-4.874c4.3-3.781,7.511-3.906,7.511-3.906s3.207.125,7.511,3.906a22.2,22.2,0,0,1,4.108,4.874C322.6,387.9,331.9,387.82,331.9,387.82v-1.31s-6.111-.936-11.785-10.477" transform="translate(-81.744 -106.078)" fill="#142544"/>
        <path id="Trazado_883934" data-name="Trazado 883934" d="M311.46,343.005a3.975,3.975,0,1,0,3.975-3.975,3.975,3.975,0,0,0-3.975,3.975" transform="translate(-90.38 -98.38)" fill="#142544"/>
        <path id="Trazado_883935" data-name="Trazado 883935" d="M311.46,384.1a3.975,3.975,0,1,0,3.975-3.975,3.975,3.975,0,0,0-3.975,3.975" transform="translate(-90.38 -110.304)" fill="#142544"/>
        <path id="Trazado_883936" data-name="Trazado 883936" d="M308.75,356.13a5.9,5.9,0,1,0,5.9-5.9,5.9,5.9,0,0,0-5.9,5.9" transform="translate(-89.593 -101.63)" fill="#142544"/>
        <rect id="Rectángulo_404490" data-name="Rectángulo 404490" width="1.044" height="54.07" transform="translate(198.42 150.274) rotate(-8.018)" fill="#fff"/>
        <rect id="Rectángulo_404491" data-name="Rectángulo 404491" width="1.045" height="58.468" transform="translate(211.475 149.003) rotate(-4.294)" fill="#fff"/>
        <rect id="Rectángulo_404492" data-name="Rectángulo 404492" width="54.07" height="1.044" transform="translate(243.137 203.674) rotate(-82.03)" fill="#fff"/>
        <rect id="Rectángulo_404493" data-name="Rectángulo 404493" width="58.468" height="1.045" transform="matrix(0.074, -0.997, 0.997, 0.074, 233.24, 207.231)" fill="#fff"/>
        <path id="Trazado_883937" data-name="Trazado 883937" d="M309.216,291.538c12.15,0,19.118-1.765,19.118-4.842H327.3c0,1.413-3.808,3.8-18.081,3.8s-18.079-2.391-18.079-3.8H290.1c0,3.077,6.968,4.842,19.117,4.842" transform="translate(-84.181 -83.194)" fill="#fff"/>
        <path id="Trazado_883938" data-name="Trazado 883938" d="M288.2,126.876s-9.713,13.872-9.713,37.007,34.87,56.261,39.473,85.483,15.694,36.051,15.694,36.051-5.662-32.249-1.672-67.074,4.591-55.641-1.754-72.258c-26.2,3-42.028-19.209-42.028-19.209" transform="translate(-80.812 -36.817)" fill="#f97d97"/>
        <path id="Trazado_883939" data-name="Trazado 883939" d="M322.774,100.57c-20.993-11.43-25.665-51.317-25.665-51.317l-14.375,9.465s-.391,33.327,10.021,53.106a17.11,17.11,0,0,0,19.308,8.838,16.026,16.026,0,0,0,11.214-10.314,12.222,12.222,0,0,0-.5-9.777" transform="translate(-82.043 -14.292)" fill="#ff92a4"/>
        <path id="Trazado_883940" data-name="Trazado 883940" d="M300.222,143.212c-2.437-2.457,1.994,2.857,0,0" transform="translate(-86.9 -41.363)" fill="#ff92a4"/>
        <path id="Trazado_883941" data-name="Trazado 883941" d="M46.807,290.321H0l11.917,14.215H34.89Z" transform="translate(0 -84.246)" fill="#ff92a4"/>
        <path id="Trazado_883942" data-name="Trazado 883942" d="M0,387.874H46.808L34.89,373.659H11.917Z" transform="translate(0 -108.429)" fill="#ff92a4"/>
        <rect id="Rectángulo_404494" data-name="Rectángulo 404494" width="26.977" height="49.716" transform="translate(9.915 217.902)" fill="#353c8e"/>
        <path id="Trazado_883943" data-name="Trazado 883943" d="M9.811,355.271V307.336a2.2,2.2,0,0,1,2.2-2.2h28.47a2.205,2.205,0,0,1,2.2,2.2v47.936a2.205,2.205,0,0,1-2.2,2.2H12.016a2.2,2.2,0,0,1-2.2-2.2" transform="translate(-2.847 -88.543)" fill="#ff5053"/>
        <path id="Trazado_883944" data-name="Trazado 883944" d="M9.811,311.653l32.88,7.524-32.88,7.176,32.88,5.788L9.811,343.1l32.88,5.593-32.88,6.973" transform="translate(-2.847 -90.436)" fill="none" stroke="#ff92a4" stroke-linecap="round" stroke-linejoin="round" stroke-width="0.736"/>
        <path id="Trazado_883945" data-name="Trazado 883945" d="M42.69,354.713,9.81,350.974l32.88-10.036L9.81,336.077l32.88-11L9.81,315.588l32.88-3.936" transform="translate(-2.847 -90.436)" fill="none" stroke="#ff92a4" stroke-linecap="round" stroke-linejoin="round" stroke-width="0.736"/>
        <rect id="Rectángulo_404495" data-name="Rectángulo 404495" width="81.991" height="49.716" transform="translate(116.717 176.48)" fill="#243172"/>
        <line id="Línea_4410" data-name="Línea 4410" x2="81.703" transform="translate(116.717 188.234)" fill="none" stroke="#353c8e" stroke-miterlimit="10" stroke-width="1.471"/>
        <line id="Línea_4411" data-name="Línea 4411" y1="37.962" transform="translate(158.616 188.234)" fill="none" stroke="#353c8e" stroke-miterlimit="10" stroke-width="1.471"/>
        <rect id="Rectángulo_404496" data-name="Rectángulo 404496" width="68.127" height="44.941" transform="translate(95.811 215.537)" fill="#142544"/>
        <line id="Línea_4412" data-name="Línea 4412" x2="68.127" transform="translate(95.811 221.541)" fill="none" stroke="#353c8e" stroke-miterlimit="10" stroke-width="1.471"/>
        <line id="Línea_4413" data-name="Línea 4413" x2="68.127" transform="translate(95.811 253.454)" fill="none" stroke="#353c8e" stroke-miterlimit="10" stroke-width="1.471"/>
        <line id="Línea_4414" data-name="Línea 4414" x2="68.127" transform="translate(95.811 237.497)" fill="none" stroke="#353c8e" stroke-miterlimit="10" stroke-width="1.471"/>
        <rect id="Rectángulo_404497" data-name="Rectángulo 404497" width="113.121" height="22.436" transform="translate(68.787 259.388)" fill="#4957ba"/>
        <rect id="Rectángulo_404498" data-name="Rectángulo 404498" width="114.121" height="8.364" transform="translate(68.287 259.387)" fill="#243172"/>
        <path id="Trazado_883946" data-name="Trazado 883946" d="M231.623,46.46s-6.122.46-6.122,9.654,7.029,14.71,0,29.42a58.5,58.5,0,0,0,17.9,6.413s.466-12.849,2.507-21.813,4.761-11.263-14.285-23.674" transform="translate(-65.436 -13.482)" fill="#243172"/>
        <path id="Trazado_883947" data-name="Trazado 883947" d="M239.194,194.634c-4.806-9.838-8.616-21.087-5.028-43.081-17.006-32.867-8.657-53.615-8.657-53.615s14.592-11.789,16.859,4.069.454,33.647.454,38.934v52.774a56.2,56.2,0,0,0,4.678,5.8c2.017,2.016,6.793,1.653,5.929,4.165-3.744,0-15.84-.509-15.84-.509s-2.023-4.906,1.6-8.534" transform="translate(-64.844 -27.197)" fill="#f7a079"/>
        <path id="Trazado_883948" data-name="Trazado 883948" d="M228.415,44.594l3.849-12.819,7.676,4.723-2.671,10.383Z" transform="translate(-66.282 -9.221)" fill="#f7a079"/>
        <path id="Trazado_883949" data-name="Trazado 883949" d="M252.539,74.291,233.51,62.254a5.7,5.7,0,0,1-1.569-1.462c-3.294-4.5,2.358-10.4,7.041-7.372a12.175,12.175,0,0,1,2.124,1.784c4.294,4.453,13.538,10.551,13.538,10.551L272.106,53.9l2.3,1.373s-11.769,16.743-21.871,19.017" transform="translate(-67.019 -15.26)" fill="#f7a079"/>
        <path id="Trazado_883950" data-name="Trazado 883950" d="M243.559,54.315l12.007,8.92-6,8.247L240.888,62.9Z" transform="translate(-69.901 -15.761)" fill="#243172"/>
        <path id="Trazado_883951" data-name="Trazado 883951" d="M247.52,74.143l7.605-10.159,4.835,4.244-7.283,9.95Z" transform="translate(-71.825 -18.567)" fill="#353c8e"/>
        <path id="Trazado_883952" data-name="Trazado 883952" d="M231.7,111.007l-13.736-9.5a36.955,36.955,0,0,0-2.974,6.991,39.473,39.473,0,0,0-.492,22.209c1.292,4.984,2.774,9.661,3.531,23.707-8.729,12.154-12.242,29.575-13.361,36.617-4.443,1.525-5.143,6.351-5.143,6.351l13.644,8.045c2.02-1.724-1.771-3.6-2.484-6.358-.608-2.352-1.522-5.9-1.78-6.893,5.41-8.92,18.561-30.958,18.992-35.132.542-5.258,3.8-46.037,3.8-46.037" transform="translate(-57.898 -29.455)" fill="#f6b28f"/>
        <path id="Trazado_883953" data-name="Trazado 883953" d="M236.684,56.239s-6.574,6.583-15.256,5.2c2.068,20.347-10.918,39.066-9.908,55.729.735,12.137,1.009,12.117,1.009,12.117a53.7,53.7,0,0,0,30.742,1.327c-4.607-47.764,9.362-67.49-6.587-74.371" transform="translate(-61.362 -16.319)" fill="#f4bacd"/>
      </g>
    </g>
    <g id="Grupo_1105447" data-name="Grupo 1105447" transform="translate(150.1 39.92)">
      <g id="Grupo_1105446" data-name="Grupo 1105446" clip-path="url(#clip-path-12)">
        <path id="Trazado_883954" data-name="Trazado 883954" d="M208.448,147.931a50.569,50.569,0,0,0,35.768,1.026" transform="translate(-210.587 -82.846)" fill="none" stroke="#ff92a4" stroke-miterlimit="10" stroke-width="0.736"/>
        <path id="Trazado_883955" data-name="Trazado 883955" d="M208.448,152.285a50.569,50.569,0,0,0,35.768,1.026" transform="translate(-210.587 -84.11)" fill="none" stroke="#ff92a4" stroke-miterlimit="10" stroke-width="0.736"/>
      </g>
    </g>
    <g id="Grupo_1105449" data-name="Grupo 1105449">
      <g id="Grupo_1105448" data-name="Grupo 1105448" clip-path="url(#clip-path)">
        <path id="Trazado_883957" data-name="Trazado 883957" d="M248.582,77.416,232.615,61.541a5.7,5.7,0,0,1-1.216-1.767c-2.239-5.11,4.558-9.646,8.473-5.67a12.155,12.155,0,0,1,1.687,2.2c3.227,5.277,10.928,13.235,10.928,13.235A196.874,196.874,0,0,1,273.5,82.95l-2.13,4.362s-15.593-5.088-22.787-9.9" transform="translate(-67.019 -15.26)" fill="#f6b28f"/>
        <path id="Trazado_883958" data-name="Trazado 883958" d="M233.349,49.123V47.1c-3.871-3.871-12.658-4.881-12.658-4.881l-1.079,3.008c-8.449,8.449.958,23.967-6.569,31.494a26.544,26.544,0,0,0-7.835,16.326s9.425,8.078,21.038,5.44a104.416,104.416,0,0,0,7.1-29.339l4.678,4.386,7.186-8.762Z" transform="translate(-59.547 -12.252)" fill="#243172"/>
        <path id="Trazado_883959" data-name="Trazado 883959" d="M238.207,219.043l9.505-1.146v6.144a14.755,14.755,0,0,0,5.2,11.356,8.284,8.284,0,0,0,.7.532c1.894,1.254,4.888,1.39,4.888,3.779H241.173a12.979,12.979,0,0,1-.455-4.639,33.251,33.251,0,0,0-.92-9.267c-.84-3.59-1.591-6.76-1.591-6.76" transform="translate(-69.123 -63.23)" fill="#142544"/>
        <path id="Trazado_883960" data-name="Trazado 883960" d="M206.57,208.962l8.744,3.9-3.157,5.271a14.757,14.757,0,0,0-1.376,12.413,8.277,8.277,0,0,0,.328.817c.98,2.049,3.479,3.7,2.252,5.753l-14.863-8.9A12.979,12.979,0,0,1,200.489,224a33.229,33.229,0,0,0,3.973-8.423c1.123-3.511,2.107-6.617,2.107-6.617" transform="translate(-57.6 -60.637)" fill="#142544"/>
        <path id="Trazado_883961" data-name="Trazado 883961" d="M228.386,21.213a10.071,10.071,0,0,1,1.454-5.911,7.724,7.724,0,0,1,6.887-3.7c7.336,0,7.63,5.344,7.9,10.211,1.437,2.668.449,6.126-1.508,9.448a2.661,2.661,0,0,1-2.7,1.267c-3.634-.565-9.7-1.511-12.035-11.317" transform="translate(-66.269 -3.368)" fill="#f6b28f"/>
        <path id="Trazado_883962" data-name="Trazado 883962" d="M228.866,26.184s-9.837-2.686-6.043-15.346c-3.519,0-2.925-4.022-1.28-4.571-1.306-4.25,4.664-9.047,9.415-4.3a3.431,3.431,0,0,1,3.885,3.474s8.873-1.39,9.438,7.219c-5.559,2.254-12.951-.941-12.951-.941s2.207,9.194-2.464,14.46" transform="translate(-63.909 0)" fill="#142544"/>
        <path id="Trazado_883963" data-name="Trazado 883963" d="M234.761,30.135a5.117,5.117,0,0,0-1.857-3.971c-.987-.844-2.232-1.485-3.042-.363-1.522,2.106,1.608,6.509,3.672,6.246.93-.118,1.205-.989,1.227-1.913" transform="translate(-66.585 -7.313)" fill="#f6b28f"/>
        <path id="Trazado_883964" data-name="Trazado 883964" d="M243,26.234a.584.584,0,1,1-1.136,0c0-.418.255-.757.568-.757s.568.339.568.757" transform="translate(-70.184 -7.393)" fill="#262425"/>
        <path id="Trazado_883965" data-name="Trazado 883965" d="M249.331,26.234a.584.584,0,1,1-1.136,0c0-.418.254-.757.568-.757s.568.339.568.757" transform="translate(-72.021 -7.393)" fill="#262425"/>
        <path id="Trazado_883966" data-name="Trazado 883966" d="M241.054,23.579h0a.52.52,0,0,0,.778.221,2.677,2.677,0,0,1,.691-.373.538.538,0,0,0,.382-.5v-.118a.523.523,0,0,0-.632-.514,1.965,1.965,0,0,0-1.146.745.538.538,0,0,0-.072.541" transform="translate(-69.937 -6.465)" fill="#142544"/>
        <path id="Trazado_883967" data-name="Trazado 883967" d="M249.638,23.681h0a.52.52,0,0,1-.779.221,2.685,2.685,0,0,0-.69-.373.538.538,0,0,1-.383-.5v-.118a.523.523,0,0,1,.632-.514,1.965,1.965,0,0,1,1.146.745.54.54,0,0,1,.073.541" transform="translate(-71.903 -6.495)" fill="#142544"/>
        <path id="Trazado_883968" data-name="Trazado 883968" d="M246.279,25.84a12.645,12.645,0,0,0,1.32,2.975c.945,1.559-.593,1.2-.593,1.2" transform="translate(-71.465 -7.498)" fill="none" stroke="#262425" stroke-linecap="round" stroke-linejoin="round" stroke-width="0.348"/>
        <path id="Trazado_883969" data-name="Trazado 883969" d="M242.207,32.589s1.044.085,2.107.085a3.031,3.031,0,0,1,1.693.424.775.775,0,0,1,1.2,0c-.33,2.161-2.494,2.362-5-.511" transform="translate(-70.284 -9.457)" fill="#ff5053"/>
        <path id="Trazado_883970" data-name="Trazado 883970" d="M246.482,78.289l8.249-9.644,4.549,4.549-7.913,9.455Z" transform="translate(-71.524 -19.92)" fill="#353c8e"/>
        <path id="Trazado_883971" data-name="Trazado 883971" d="M225.26,41.13l-.59,4.422s9.6-.256,15.483,4.78a15.406,15.406,0,0,1,.41-4.333s-4.2-4.869-15.3-4.869" transform="translate(-65.195 -11.935)" fill="#353c8e"/>
        <path id="Trazado_883972" data-name="Trazado 883972" d="M231.79,92.437c-3.595,5.248-7.121,6.438-7.121,6.438l1,1.835a15.049,15.049,0,0,0,7.656-6.735Z" transform="translate(-65.195 -26.823)" fill="#353c8e"/>
        <path id="Trazado_883973" data-name="Trazado 883973" d="M242.648,78.111l-6.823-6.2L241.7,82.416Z" transform="translate(-68.432 -20.866)" fill="#1e2c60"/>
        <path id="Trazado_883974" data-name="Trazado 883974" d="M242.344,32.589s3.345,1.485,4.81.6" transform="translate(-70.324 -9.457)" fill="none" stroke="#262425" stroke-linecap="round" stroke-linejoin="round" stroke-width="0.348"/>
        <path id="Trazado_883975" data-name="Trazado 883975" d="M231.3,27.595s1.328-.484,1.907,2.139a1.093,1.093,0,0,0,0,1.4" transform="translate(-67.12 -7.997)" fill="none" stroke="#262425" stroke-linecap="round" stroke-linejoin="round" stroke-width="0.348"/>
        <path id="Trazado_883976" data-name="Trazado 883976" d="M300.084,97.681a69.361,69.361,0,0,1-6.386-3.125s3.969-.674,3.969-1.275c0-1.267-4.753-.7-5.566-.486a28.583,28.583,0,0,0-5.079,2.177l-.29,3.58c4.788,2.467,10.206,3.144,12.936,1.962s3.752-1.43.415-2.833" transform="translate(-83.204 -26.836)" fill="#f6b28f"/>
        <path id="Trazado_883977" data-name="Trazado 883977" d="M545.919,393.569h27.925l-7.109-8.48H553.028Z" transform="translate(-158.415 -111.745)" fill="#353c8e"/>
        <path id="Trazado_883978" data-name="Trazado 883978" d="M573.844,335.37H545.919l7.11,8.48h13.706Z" transform="translate(-158.415 -97.318)" fill="#353c8e"/>
        <rect id="Rectángulo_404500" data-name="Rectángulo 404500" width="16.094" height="29.661" transform="translate(393.419 245.108)" fill="#353c8e"/>
        <path id="Trazado_883979" data-name="Trazado 883979" d="M571.388,345.52v28.6a1.315,1.315,0,0,1-1.315,1.315H553.087a1.315,1.315,0,0,1-1.315-1.315v-28.6a1.315,1.315,0,0,1,1.315-1.315h16.985a1.316,1.316,0,0,1,1.315,1.315" transform="translate(-160.114 -99.882)" fill="#142544"/>
        <path id="Trazado_883980" data-name="Trazado 883980" d="M551.771,345.354l19.616,5.065-19.616,4.831,19.616,3.9-19.616,7.378,19.616,3.765-19.616,4.694" transform="translate(-160.113 -100.215)" fill="none" stroke="#353c8e" stroke-linecap="round" stroke-linejoin="round" stroke-width="0.736"/>
        <path id="Trazado_883981" data-name="Trazado 883981" d="M571.388,374.341l-19.616-2.516,19.616-6.757L551.772,361.8l19.616-7.4L551.772,348l19.616-2.649" transform="translate(-160.114 -100.215)" fill="none" stroke="#353c8e" stroke-linecap="round" stroke-linejoin="round" stroke-width="0.736"/>
        <path id="Trazado_883982" data-name="Trazado 883982" d="M63.072,347.862h0A11.492,11.492,0,0,0,51.58,359.354v21.7H74.564v-21.7a11.492,11.492,0,0,0-11.492-11.492" transform="translate(-14.968 -100.943)" fill="#c6cefb"/>
        <path id="Trazado_883983" data-name="Trazado 883983" d="M50.395,395.634h23.67a1.715,1.715,0,0,0,0-3.431H50.395a1.715,1.715,0,0,0,0,3.431" transform="translate(-14.126 -113.81)" fill="#e2e5ff"/>
        <line id="Línea_4415" data-name="Línea 4415" y2="29.245" transform="translate(48.104 248.235)" fill="none" stroke="#e2e5ff" stroke-miterlimit="10" stroke-width="0.866" stroke-dasharray="0.866 2.598"/>
        <path id="Trazado_883984" data-name="Trazado 883984" d="M54.619,378.961V359.329a9.339,9.339,0,1,1,18.669,0v19.631" transform="translate(-15.849 -101.481)" fill="none" stroke="#e2e5ff" stroke-miterlimit="10" stroke-width="0.866" stroke-dasharray="0.866 2.598"/>
        <path id="Trazado_883985" data-name="Trazado 883985" d="M61.014,378.961v-24.2a4.9,4.9,0,1,1,9.8,0v24.2" transform="translate(-17.705 -101.481)" fill="none" stroke="#e2e5ff" stroke-miterlimit="10" stroke-width="0.866" stroke-dasharray="0.866 2.598"/>
      </g>
    </g>
  </g>
</svg>
