<svg xmlns="http://www.w3.org/2000/svg" width="529.125" height="527.182" viewBox="0 0 529.125 527.182">
  <g id="Grupo_1105532" data-name="Grupo 1105532" transform="translate(-536.711 -3944.576)">
    <path id="Trazado_883489" data-name="Trazado 883489" d="M-2960.711-7904.536l10.567-10.567,10.567,10.567" transform="translate(3748.151 11877.752)" fill="none" stroke="#707070" stroke-width="2"/>
    <path id="Trazado_883490" data-name="Trazado 883490" d="M-2960.711-7904.536l10.567-10.567,10.567,10.567" transform="translate(-6864.535 7167.919) rotate(90)" fill="none" stroke="#707070" stroke-width="2"/>
    <path id="Trazado_884081" data-name="Trazado 884081" d="M7.535,15.344l3.141-7.406h4.441l-5.5,10.934V25H5.449V18.871L-.035,7.938H4.383Z" transform="translate(761.48 3936.638)" fill="#e8624e"/>
    <path id="Trazado_884066" data-name="Trazado 884066" d="M46.869,16.82a10.062,10.062,0,0,1-.926,4.418A6.842,6.842,0,0,1,43.313,24.2a7.326,7.326,0,0,1-3.885,1.037,7.429,7.429,0,0,1-3.867-1,6.831,6.831,0,0,1-2.631-2.865,9.772,9.772,0,0,1-.99-4.277v-.961a10.106,10.106,0,0,1,.92-4.424A6.825,6.825,0,0,1,35.5,8.746a7.805,7.805,0,0,1,7.775-.012,6.948,6.948,0,0,1,2.643,2.936,9.816,9.816,0,0,1,.955,4.365Zm-4.184-.715a7.175,7.175,0,0,0-.85-3.861A2.725,2.725,0,0,0,39.4,10.926q-3.094,0-3.27,4.641l-.012,1.254a7.379,7.379,0,0,0,.832,3.855,2.721,2.721,0,0,0,2.473,1.348,2.688,2.688,0,0,0,2.4-1.324,7.178,7.178,0,0,0,.855-3.809Zm13.793-.211-1.3-.094a2.336,2.336,0,0,0-2.391,1.172V25H48.838V12.32h3.7l.129,1.629a3.058,3.058,0,0,1,2.777-1.863,3.851,3.851,0,0,1,1.1.141ZM62.069,25H58.108V12.32h3.961Zm-4.2-15.949a1.763,1.763,0,0,1,.609-1.383,2.591,2.591,0,0,1,3.164,0,1.763,1.763,0,0,1,.609,1.383,1.763,1.763,0,0,1-.609,1.383,2.591,2.591,0,0,1-3.164,0A1.763,1.763,0,0,1,57.873,9.051Zm6.164,9.516a8.561,8.561,0,0,1,.633-3.4,5.094,5.094,0,0,1,1.816-2.279,4.788,4.788,0,0,1,2.754-.8,3.807,3.807,0,0,1,3.094,1.336l.141-1.1h3.586v12.2a5.346,5.346,0,0,1-.779,2.912,5,5,0,0,1-2.256,1.9,8.292,8.292,0,0,1-3.422.662,7.153,7.153,0,0,1-2.7-.527,4.876,4.876,0,0,1-2-1.371l1.652-2.32a3.621,3.621,0,0,0,2.906,1.3q2.625,0,2.625-2.7v-.4a3.708,3.708,0,0,1-2.871,1.254,4.583,4.583,0,0,1-3.75-1.775,7.356,7.356,0,0,1-1.43-4.752ZM68,18.813a4.511,4.511,0,0,0,.586,2.467,1.849,1.849,0,0,0,1.641.908,2.1,2.1,0,0,0,1.863-.855V16a2.045,2.045,0,0,0-1.84-.867,1.861,1.861,0,0,0-1.652.943A5.144,5.144,0,0,0,68,18.813ZM84.44,25.234a6.518,6.518,0,0,1-4.723-1.74,6.009,6.009,0,0,1-1.8-4.529v-.328a7.787,7.787,0,0,1,.721-3.434,5.274,5.274,0,0,1,2.1-2.3,6.35,6.35,0,0,1,3.281-.814,5.489,5.489,0,0,1,4.219,1.658,6.516,6.516,0,0,1,1.547,4.623V19.9H81.932a2.846,2.846,0,0,0,.926,1.676,2.755,2.755,0,0,0,1.852.609,3.549,3.549,0,0,0,2.93-1.312l1.8,2.133a5.045,5.045,0,0,1-2.092,1.623A7.069,7.069,0,0,1,84.44,25.234Zm-.445-10.1q-1.734,0-2.062,2.3h3.984v-.3a1.956,1.956,0,0,0-.48-1.471A1.912,1.912,0,0,0,83.994,15.133ZM95,12.32l.129,1.488a4.3,4.3,0,0,1,3.621-1.723,3.618,3.618,0,0,1,2.959,1.184,5.635,5.635,0,0,1,1.014,3.563V25H98.76V17a2.14,2.14,0,0,0-.387-1.412,1.789,1.789,0,0,0-1.406-.451,1.883,1.883,0,0,0-1.723.914V25H91.3V12.32Zm15.387,6.223a7.484,7.484,0,0,1,.738-3.381,5.28,5.28,0,0,1,2.121-2.279,6.388,6.388,0,0,1,3.246-.8,5.83,5.83,0,0,1,4.488,1.764,6.768,6.768,0,0,1,1.641,4.8v.141a6.566,6.566,0,0,1-1.646,4.705,5.846,5.846,0,0,1-4.459,1.74,5.912,5.912,0,0,1-4.348-1.623,6.348,6.348,0,0,1-1.77-4.4Zm3.949.246a4.718,4.718,0,0,0,.551,2.578,1.835,1.835,0,0,0,1.629.82q2.109,0,2.156-3.246v-.4q0-3.41-2.18-3.41-1.98,0-2.145,2.941ZM32.268,48.754a7.646,7.646,0,0,1-1.33,4.717,4.264,4.264,0,0,1-3.592,1.764,3.655,3.655,0,0,1-2.871-1.277v5.918H20.526V42.32h3.691l.117,1.172a3.656,3.656,0,0,1,2.988-1.406,4.3,4.3,0,0,1,3.645,1.729,7.741,7.741,0,0,1,1.3,4.752Zm-3.949-.246q0-3.375-1.969-3.375a1.859,1.859,0,0,0-1.875,1.008v4.992a1.919,1.919,0,0,0,1.9,1.055q1.887,0,1.945-3.258Zm13.242,5.121a4.072,4.072,0,0,1-3.387,1.605,3.993,3.993,0,0,1-3.158-1.213,5.1,5.1,0,0,1-1.072-3.486V42.32h3.949v8.238a1.419,1.419,0,0,0,1.582,1.629,2.064,2.064,0,0,0,1.934-.973V42.32h3.973V55h-3.7ZM51.17,42.32l.129,1.488a4.3,4.3,0,0,1,3.621-1.723,3.618,3.618,0,0,1,2.959,1.184,5.635,5.635,0,0,1,1.014,3.563V55H54.932V47a2.14,2.14,0,0,0-.387-1.412,1.789,1.789,0,0,0-1.406-.451,1.883,1.883,0,0,0-1.723.914V55H47.467V42.32Zm14.508-3.152V42.32h2.086v2.742H65.678v5.8a1.481,1.481,0,0,0,.258,1,1.383,1.383,0,0,0,1.02.281,5.793,5.793,0,0,0,.984-.07v2.824a7.288,7.288,0,0,1-2.227.34,4.137,4.137,0,0,1-3.012-.961,3.939,3.939,0,0,1-.973-2.918V45.063H60.112V42.32h1.617V39.168Zm2.789,9.375a7.484,7.484,0,0,1,.738-3.381,5.28,5.28,0,0,1,2.121-2.279,6.388,6.388,0,0,1,3.246-.8,5.83,5.83,0,0,1,4.488,1.764,6.768,6.768,0,0,1,1.641,4.8v.141a6.566,6.566,0,0,1-1.646,4.705,5.846,5.846,0,0,1-4.459,1.74,5.912,5.912,0,0,1-4.348-1.623,6.348,6.348,0,0,1-1.77-4.4Zm3.949.246a4.718,4.718,0,0,0,.551,2.578,1.835,1.835,0,0,0,1.629.82q2.109,0,2.156-3.246v-.4q0-3.41-2.18-3.41-1.98,0-2.145,2.941Zm21.363,3.4a1.756,1.756,0,0,0,1.289-.451,1.654,1.654,0,0,0,.445-1.26h3.7A4.384,4.384,0,0,1,97.723,53.9a5.558,5.558,0,0,1-3.85,1.336A5.627,5.627,0,0,1,89.514,53.5a6.834,6.834,0,0,1-1.594-4.8v-.164a7.723,7.723,0,0,1,.709-3.393,5.162,5.162,0,0,1,2.045-2.262,6.1,6.1,0,0,1,3.164-.791,5.488,5.488,0,0,1,3.926,1.371,4.863,4.863,0,0,1,1.453,3.715h-3.7a2.168,2.168,0,0,0-.48-1.512,1.658,1.658,0,0,0-1.289-.527q-1.535,0-1.793,1.957a13.809,13.809,0,0,0-.082,1.711,5.424,5.424,0,0,0,.457,2.648A1.582,1.582,0,0,0,93.78,52.188Zm13.242,3.047a6.518,6.518,0,0,1-4.723-1.74,6.009,6.009,0,0,1-1.8-4.529v-.328a7.787,7.787,0,0,1,.721-3.434,5.274,5.274,0,0,1,2.1-2.3,6.35,6.35,0,0,1,3.281-.814,5.489,5.489,0,0,1,4.219,1.658,6.516,6.516,0,0,1,1.547,4.623V49.9h-7.852a2.846,2.846,0,0,0,.926,1.676,2.755,2.755,0,0,0,1.852.609,3.549,3.549,0,0,0,2.93-1.312l1.8,2.133a5.045,5.045,0,0,1-2.092,1.623A7.069,7.069,0,0,1,107.022,55.234Zm-.445-10.1q-1.734,0-2.062,2.3H108.5v-.3a1.956,1.956,0,0,0-.48-1.471A1.912,1.912,0,0,0,106.576,45.133Zm15.047.762-1.3-.094a2.336,2.336,0,0,0-2.391,1.172V55h-3.949V42.32h3.7l.129,1.629a3.058,3.058,0,0,1,2.777-1.863,3.851,3.851,0,0,1,1.1.141Zm.5,2.648a7.484,7.484,0,0,1,.738-3.381,5.28,5.28,0,0,1,2.121-2.279,6.388,6.388,0,0,1,3.246-.8,5.83,5.83,0,0,1,4.488,1.764,6.768,6.768,0,0,1,1.641,4.8v.141a6.566,6.566,0,0,1-1.646,4.705,5.846,5.846,0,0,1-4.459,1.74,5.912,5.912,0,0,1-4.348-1.623,6.348,6.348,0,0,1-1.77-4.4Zm3.949.246a4.718,4.718,0,0,0,.551,2.578,1.835,1.835,0,0,0,1.629.82q2.109,0,2.156-3.246v-.4q0-3.41-2.18-3.41-1.98,0-2.145,2.941Z" transform="translate(924.209 4376.638)" fill="#e8624e"/>
    <path id="Trazado_884072" data-name="Trazado 884072" d="M4.652,14.816H6.516A1.937,1.937,0,0,0,8.73,12.648,1.875,1.875,0,0,0,8.2,11.271a2,2,0,0,0-1.488-.533A2.141,2.141,0,0,0,5.35,11.2a1.394,1.394,0,0,0-.58,1.137H.82a4.043,4.043,0,0,1,.75-2.4A4.953,4.953,0,0,1,3.65,8.283a7.112,7.112,0,0,1,2.924-.592,6.988,6.988,0,0,1,4.477,1.3,4.324,4.324,0,0,1,1.629,3.574,3.6,3.6,0,0,1-.674,2.08,4.8,4.8,0,0,1-1.963,1.588,4.587,4.587,0,0,1,2.133,1.494,3.935,3.935,0,0,1,.773,2.479,4.4,4.4,0,0,1-1.758,3.656,7.3,7.3,0,0,1-4.617,1.371A7.567,7.567,0,0,1,3.463,24.6a4.875,4.875,0,0,1-2.174-1.77,4.6,4.6,0,0,1-.738-2.572H4.523a1.778,1.778,0,0,0,.633,1.359,2.234,2.234,0,0,0,1.559.574,2.34,2.34,0,0,0,1.664-.58A1.939,1.939,0,0,0,9,20.125,2.267,2.267,0,0,0,8.355,18.3a2.694,2.694,0,0,0-1.781-.539H4.652Z" transform="translate(761.48 4032.765)" fill="#12263f"/>
    <path id="Trazado_884073" data-name="Trazado 884073" d="M8.824,19.176H1.781V16.117H8.824ZM20.59,25H16.629V12.391l-3.891,1.137v-3l7.488-2.59h.363Z" transform="translate(750.48 4261.197)" fill="#12263f"/>
    <path id="Trazado_884074" data-name="Trazado 884074" d="M8.824,19.176H1.781V16.117H8.824ZM23.742,25H11.836V22.422l5.484-5.766q2.027-2.309,2.027-3.668a2.551,2.551,0,0,0-.48-1.676,1.715,1.715,0,0,0-1.395-.574,1.737,1.737,0,0,0-1.465.768,3.155,3.155,0,0,0-.562,1.916H11.484a5.6,5.6,0,0,1,.785-2.9,5.506,5.506,0,0,1,2.18-2.08,6.475,6.475,0,0,1,3.117-.75,6.369,6.369,0,0,1,4.26,1.277,4.56,4.56,0,0,1,1.494,3.668,5.326,5.326,0,0,1-.375,1.963,8.608,8.608,0,0,1-1.166,2A29.372,29.372,0,0,1,19.23,19.41l-2.2,2.543h6.715Z" transform="translate(750.48 4316.197)" fill="#12263f"/>
    <path id="Trazado_884075" data-name="Trazado 884075" d="M8.824,19.176H1.781V16.117H8.824Zm6.621-4.359h1.863a1.937,1.937,0,0,0,2.215-2.168A1.875,1.875,0,0,0,19,11.271a2,2,0,0,0-1.488-.533,2.141,2.141,0,0,0-1.365.457,1.394,1.394,0,0,0-.58,1.137H11.613a4.043,4.043,0,0,1,.75-2.4,4.953,4.953,0,0,1,2.08-1.646,7.112,7.112,0,0,1,2.924-.592,6.988,6.988,0,0,1,4.477,1.3,4.324,4.324,0,0,1,1.629,3.574,3.6,3.6,0,0,1-.674,2.08,4.8,4.8,0,0,1-1.963,1.588,4.587,4.587,0,0,1,2.133,1.494,3.935,3.935,0,0,1,.773,2.479,4.4,4.4,0,0,1-1.758,3.656,7.3,7.3,0,0,1-4.617,1.371,7.567,7.567,0,0,1-3.111-.639,4.875,4.875,0,0,1-2.174-1.77,4.6,4.6,0,0,1-.738-2.572h3.973a1.778,1.778,0,0,0,.633,1.359,2.234,2.234,0,0,0,1.559.574,2.34,2.34,0,0,0,1.664-.58,1.939,1.939,0,0,0,.621-1.482,2.267,2.267,0,0,0-.645-1.828,2.694,2.694,0,0,0-1.781-.539H15.445Z" transform="translate(750.48 4373.197)" fill="#12263f"/>
    <path id="Trazado_884080" data-name="Trazado 884080" d="M8.824,19.176H1.781V16.117H8.824Zm6.621-4.359h1.863a1.937,1.937,0,0,0,2.215-2.168A1.875,1.875,0,0,0,19,11.271a2,2,0,0,0-1.488-.533,2.141,2.141,0,0,0-1.365.457,1.394,1.394,0,0,0-.58,1.137H11.613a4.043,4.043,0,0,1,.75-2.4,4.953,4.953,0,0,1,2.08-1.646,7.112,7.112,0,0,1,2.924-.592,6.988,6.988,0,0,1,4.477,1.3,4.324,4.324,0,0,1,1.629,3.574,3.6,3.6,0,0,1-.674,2.08,4.8,4.8,0,0,1-1.963,1.588,4.587,4.587,0,0,1,2.133,1.494,3.935,3.935,0,0,1,.773,2.479,4.4,4.4,0,0,1-1.758,3.656,7.3,7.3,0,0,1-4.617,1.371,7.567,7.567,0,0,1-3.111-.639,4.875,4.875,0,0,1-2.174-1.77,4.6,4.6,0,0,1-.738-2.572h3.973a1.778,1.778,0,0,0,.633,1.359,2.234,2.234,0,0,0,1.559.574,2.34,2.34,0,0,0,1.664-.58,1.939,1.939,0,0,0,.621-1.482,2.267,2.267,0,0,0-.645-1.828,2.694,2.694,0,0,0-1.781-.539H15.445Z" transform="translate(608.48 4234.765)" fill="#12263f"/>
    <path id="Trazado_884067" data-name="Trazado 884067" d="M15.712,25H11.751V12.391L7.861,13.527v-3l7.488-2.59h.363Z" transform="translate(842.142 4234.765)" fill="#12263f"/>
    <path id="Trazado_884079" data-name="Trazado 884079" d="M8.824,19.176H1.781V16.117H8.824ZM23.742,25H11.836V22.422l5.484-5.766q2.027-2.309,2.027-3.668a2.551,2.551,0,0,0-.48-1.676,1.715,1.715,0,0,0-1.395-.574,1.737,1.737,0,0,0-1.465.768,3.155,3.155,0,0,0-.562,1.916H11.484a5.6,5.6,0,0,1,.785-2.9,5.506,5.506,0,0,1,2.18-2.08,6.475,6.475,0,0,1,3.117-.75,6.369,6.369,0,0,1,4.26,1.277,4.56,4.56,0,0,1,1.494,3.668,5.326,5.326,0,0,1-.375,1.963,8.608,8.608,0,0,1-1.166,2A29.372,29.372,0,0,1,19.23,19.41l-2.2,2.543h6.715Z" transform="translate(664.48 4234.765)" fill="#12263f"/>
    <path id="Trazado_884068" data-name="Trazado 884068" d="M18.865,25H6.958V22.422l5.484-5.766q2.027-2.309,2.027-3.668a2.551,2.551,0,0,0-.48-1.676,1.715,1.715,0,0,0-1.395-.574,1.737,1.737,0,0,0-1.465.768,3.155,3.155,0,0,0-.562,1.916H6.607a5.6,5.6,0,0,1,.785-2.9,5.506,5.506,0,0,1,2.18-2.08,6.475,6.475,0,0,1,3.117-.75,6.369,6.369,0,0,1,4.26,1.277,4.56,4.56,0,0,1,1.494,3.668,5.326,5.326,0,0,1-.375,1.963,8.608,8.608,0,0,1-1.166,2,29.372,29.372,0,0,1-2.549,2.807l-2.2,2.543h6.715Z" transform="translate(898.48 4234.765)" fill="#12263f"/>
    <path id="Trazado_884078" data-name="Trazado 884078" d="M8.824,19.176H1.781V16.117H8.824ZM20.59,25H16.629V12.391l-3.891,1.137v-3l7.488-2.59h.363Z" transform="translate(720.48 4234.765)" fill="#12263f"/>
    <path id="Trazado_884069" data-name="Trazado 884069" d="M10.568,14.816h1.863a1.937,1.937,0,0,0,2.215-2.168,1.875,1.875,0,0,0-.527-1.377,2,2,0,0,0-1.488-.533,2.141,2.141,0,0,0-1.365.457,1.394,1.394,0,0,0-.58,1.137H6.736a4.043,4.043,0,0,1,.75-2.4,4.953,4.953,0,0,1,2.08-1.646,7.112,7.112,0,0,1,2.924-.592,6.988,6.988,0,0,1,4.477,1.3A4.324,4.324,0,0,1,18.6,12.566a3.6,3.6,0,0,1-.674,2.08,4.8,4.8,0,0,1-1.963,1.588,4.587,4.587,0,0,1,2.133,1.494,3.935,3.935,0,0,1,.773,2.479,4.4,4.4,0,0,1-1.758,3.656,7.3,7.3,0,0,1-4.617,1.371A7.567,7.567,0,0,1,9.378,24.6,4.875,4.875,0,0,1,7.2,22.826a4.6,4.6,0,0,1-.738-2.572h3.973a1.778,1.778,0,0,0,.633,1.359,2.234,2.234,0,0,0,1.559.574,2.34,2.34,0,0,0,1.664-.58,1.939,1.939,0,0,0,.621-1.482,2.267,2.267,0,0,0-.645-1.828,2.694,2.694,0,0,0-1.781-.539H10.568Z" transform="translate(957.136 4234.765)" fill="#12263f"/>
    <path id="Trazado_884076" data-name="Trazado 884076" d="M12.949,25H1.043V22.422l5.484-5.766q2.027-2.309,2.027-3.668a2.551,2.551,0,0,0-.48-1.676,1.715,1.715,0,0,0-1.395-.574,1.737,1.737,0,0,0-1.465.768,3.155,3.155,0,0,0-.562,1.916H.691a5.6,5.6,0,0,1,.785-2.9,5.506,5.506,0,0,1,2.18-2.08,6.475,6.475,0,0,1,3.117-.75,6.369,6.369,0,0,1,4.26,1.277,4.56,4.56,0,0,1,1.494,3.668,5.326,5.326,0,0,1-.375,1.963,8.608,8.608,0,0,1-1.166,2A29.372,29.372,0,0,1,8.438,19.41l-2.2,2.543h6.715Z" transform="translate(761.48 4090.765)" fill="#12263f"/>
    <path id="Trazado_884077" data-name="Trazado 884077" d="M9.8,25H5.836V12.391L1.945,13.527v-3l7.488-2.59H9.8Z" transform="translate(761.48 4144.765)" fill="#12263f"/>
    <path id="Trazado_884071" data-name="Trazado 884071" d="M12.891,18.027a8.147,8.147,0,0,1-1.553,5.332,5.366,5.366,0,0,1-4.377,1.875,5.4,5.4,0,0,1-4.406-1.887A8.135,8.135,0,0,1,1,18.027V14.91A8.147,8.147,0,0,1,2.549,9.578,5.379,5.379,0,0,1,6.938,7.7,5.381,5.381,0,0,1,11.332,9.59a8.155,8.155,0,0,1,1.559,5.332ZM8.941,14.406a6.085,6.085,0,0,0-.48-2.748,1.606,1.606,0,0,0-1.523-.908,1.568,1.568,0,0,0-1.482.844,5.733,5.733,0,0,0-.5,2.555v4.359a6.131,6.131,0,0,0,.48,2.795,1.612,1.612,0,0,0,1.523.885,1.59,1.59,0,0,0,1.488-.861,5.853,5.853,0,0,0,.492-2.7Z" transform="translate(777.48 4219.765)" fill="#e8624e"/>
    <path id="Trazado_884070" data-name="Trazado 884070" d="M7.652,13.609l2.789-5.672h4.7L10.371,16.4l4.9,8.6H10.523L7.652,19.223,4.781,25H.047l4.887-8.6L.176,7.938H4.863Z" transform="translate(1050.567 4235.638)" fill="#e8624e"/>
    <path id="Trazado_883491" data-name="Trazado 883491" d="M-2964.111-7827.409h26.814" transform="translate(3748.711 11870.752)" fill="none" stroke="#707070" stroke-width="2"/>
    <path id="Trazado_883500" data-name="Trazado 883500" d="M-2964.111-7827.409h26.814" transform="translate(3748.711 12099.185)" fill="none" stroke="#707070" stroke-width="2"/>
    <path id="Trazado_883492" data-name="Trazado 883492" d="M-2964.111-7827.409h26.814" transform="translate(3748.711 11928.752)" fill="none" stroke="#707070" stroke-width="2"/>
    <path id="Trazado_883502" data-name="Trazado 883502" d="M-2964.111-7827.409h26.814" transform="translate(3748.711 12157.185)" fill="none" stroke="#707070" stroke-width="2"/>
    <path id="Trazado_883493" data-name="Trazado 883493" d="M-2964.111-7827.409h26.814" transform="translate(3748.711 11985.752)" fill="none" stroke="#707070" stroke-width="2"/>
    <path id="Trazado_883501" data-name="Trazado 883501" d="M-2964.111-7827.409h26.814" transform="translate(3748.711 12214.185)" fill="none" stroke="#707070" stroke-width="2"/>
    <path id="Trazado_883494" data-name="Trazado 883494" d="M-2964.111-7827.409h26.814" transform="translate(-7202.402 7168.479) rotate(90)" fill="none" stroke="#707070" stroke-width="2"/>
    <path id="Trazado_883497" data-name="Trazado 883497" d="M-2964.111-7827.409h26.814" transform="translate(-6972.402 7168.479) rotate(90)" fill="none" stroke="#707070" stroke-width="2"/>
    <path id="Trazado_883495" data-name="Trazado 883495" d="M-2964.111-7827.409h26.814" transform="translate(-7144.408 7168.479) rotate(90)" fill="none" stroke="#707070" stroke-width="2"/>
    <path id="Trazado_883498" data-name="Trazado 883498" d="M-2964.111-7827.409h26.814" transform="translate(-6914.408 7168.479) rotate(90)" fill="none" stroke="#707070" stroke-width="2"/>
    <path id="Trazado_883496" data-name="Trazado 883496" d="M-2964.111-7827.409h26.814" transform="translate(-7087.408 7168.479) rotate(90)" fill="none" stroke="#707070" stroke-width="2"/>
    <path id="Trazado_883499" data-name="Trazado 883499" d="M-2964.111-7827.409h26.814" transform="translate(-6857.408 7168.479) rotate(90)" fill="none" stroke="#707070" stroke-width="2"/>
    <path id="Trazado_883503" data-name="Trazado 883503" d="M-2950.7-7652.977l178.06,154.445" transform="translate(3748.711 11870.752)" fill="none" stroke="#e8624e" stroke-width="2"/>
    <path id="Trazado_883487" data-name="Trazado 883487" d="M-2951-7906.958v507.963" transform="translate(3748.711 11870.752)" fill="none" stroke="#707070" stroke-width="2"/>
    <path id="Trazado_883488" data-name="Trazado 883488" d="M-3212-7652.977h512.683" transform="translate(3748.711 11870.752)" fill="none" stroke="#707070" stroke-width="2"/>
  </g>
</svg>
