<svg xmlns="http://www.w3.org/2000/svg" width="759.19" height="512.877" viewBox="0 0 759.19 512.877">
  <g id="Grupo_1105534" data-name="Grupo 1105534" transform="translate(-417.711 -5620.263)">
    <path id="Trazado_883523" data-name="Trazado 883523" d="M-2960.711-5635.74v743.92" transform="translate(-4474.108 8843.474) rotate(90)" fill="none" stroke="#000" stroke-width="2"/>
    <path id="Trazado_884104" data-name="Trazado 884104" d="M7.5,0,15,13H0Z" transform="translate(1173.375 5875.263) rotate(90)"/>
    <path id="Trazado_884105" data-name="Trazado 884105" d="M7.5,0,15,13H0Z" transform="translate(778.588 5620.263)"/>
    <path id="Trazado_883524" data-name="Trazado 883524" d="M-3150.711-5256.3l339.693-307.125" transform="translate(3746.799 11268.125)" fill="none" stroke="#e8624e" stroke-width="2"/>
    <path id="Trazado_884106" data-name="Trazado 884106" d="M10.5,0A10.5,10.5,0,1,1,0,10.5,10.5,10.5,0,0,1,10.5,0Z" transform="translate(578.799 6008.125)" fill="#e8624e"/>
    <path id="Trazado_884107" data-name="Trazado 884107" d="M10.5,0A10.5,10.5,0,1,1,0,10.5,10.5,10.5,0,0,1,10.5,0Z" transform="translate(930.799 5689.125)" fill="#e8624e"/>
    <path id="Trazado_884108" data-name="Trazado 884108" d="M7.535,15.344l3.141-7.406h4.441l-5.5,10.934V25H5.449V18.871L-.035,7.938H4.383Z" transform="translate(802.568 5620.263)" fill="#12263f"/>
    <path id="Trazado_884109" data-name="Trazado 884109" d="M1.277,16.656,2.32,7.938h9.973v3.07H5.531l-.387,3.387a4.67,4.67,0,0,1,1.107-.434,5.073,5.073,0,0,1,1.342-.187A5.006,5.006,0,0,1,11.5,15.279,6.066,6.066,0,0,1,12.867,19.5a6.055,6.055,0,0,1-.732,2.971,5.034,5.034,0,0,1-2.057,2.045,6.493,6.493,0,0,1-3.129.715,6.982,6.982,0,0,1-3.012-.662,5.4,5.4,0,0,1-2.2-1.816,4.416,4.416,0,0,1-.785-2.607H4.91a2.247,2.247,0,0,0,.6,1.488,1.9,1.9,0,0,0,1.418.551q1.992,0,1.992-2.953,0-2.73-2.437-2.73a2.43,2.43,0,0,0-2.062.891Z" transform="translate(758.568 5641.263)" fill="#12263f"/>
    <path id="Trazado_884110" data-name="Trazado 884110" d="M8.824,19.176H1.781V16.117H8.824ZM20.59,25H16.629V12.391l-3.891,1.137v-3l7.488-2.59h.363Z" transform="translate(749.568 5917.386)" fill="#12263f"/>
    <path id="Trazado_884111" data-name="Trazado 884111" d="M8.824,19.176H1.781V16.117H8.824ZM23.7,10.047,17.32,25H13.148l6.387-14.016H11.4V7.938H23.7Z" transform="translate(421.568 5893.386)" fill="#12263f"/>
    <path id="Trazado_884112" data-name="Trazado 884112" d="M9.8,25H5.836V12.391L1.945,13.527v-3l7.488-2.59H9.8Z" transform="translate(822.606 5893.386)" fill="#12263f"/>
    <path id="Trazado_884113" data-name="Trazado 884113" d="M8.824,19.176H1.781V16.117H8.824Zm13.441-.844H24v3.047H22.266V25H18.316V21.379h-6.6l-.234-2.414L18.316,7.973V7.938h3.949Zm-7.02,0h3.07v-5.25l-.246.4Z" transform="translate(576.088 5893.386)" fill="#12263f"/>
    <path id="Trazado_884114" data-name="Trazado 884114" d="M11.473,18.332h1.734v3.047H11.473V25H7.523V21.379H.926L.691,18.965,7.523,7.973V7.938h3.949Zm-7.02,0h3.07v-5.25l-.246.4Z" transform="translate(977.126 5893.386)" fill="#12263f"/>
    <path id="Trazado_884115" data-name="Trazado 884115" d="M8.824,19.176H1.781V16.117H8.824ZM21.375,7.691V10.8H21.2a5.929,5.929,0,0,0-3.639,1.061A4.478,4.478,0,0,0,15.809,14.8a4.618,4.618,0,0,1,3.375-1.312,4.308,4.308,0,0,1,3.527,1.617,6.523,6.523,0,0,1,1.313,4.242,5.973,5.973,0,0,1-.768,2.988,5.477,5.477,0,0,1-2.145,2.127,6.162,6.162,0,0,1-3.053.768,6.369,6.369,0,0,1-3.246-.826,5.68,5.68,0,0,1-2.227-2.361,7.776,7.776,0,0,1-.82-3.539V16.926a9.85,9.85,0,0,1,1.131-4.74,8.2,8.2,0,0,1,3.229-3.3,9.231,9.231,0,0,1,4.652-1.2Zm-3.562,8.824a2.26,2.26,0,0,0-1.312.363,2.306,2.306,0,0,0-.785.891v1.184q0,3.234,2.238,3.234a1.816,1.816,0,0,0,1.506-.809,3.3,3.3,0,0,0,.6-2.027,3.235,3.235,0,0,0-.615-2.045A1.968,1.968,0,0,0,17.813,16.516Z" transform="translate(471.088 5893.386)" fill="#12263f"/>
    <path id="Trazado_884116" data-name="Trazado 884116" d="M12.949,25H1.043V22.422l5.484-5.766q2.027-2.309,2.027-3.668a2.551,2.551,0,0,0-.48-1.676,1.715,1.715,0,0,0-1.395-.574,1.737,1.737,0,0,0-1.465.768,3.155,3.155,0,0,0-.562,1.916H.691a5.6,5.6,0,0,1,.785-2.9,5.506,5.506,0,0,1,2.18-2.08,6.475,6.475,0,0,1,3.117-.75,6.369,6.369,0,0,1,4.26,1.277,4.56,4.56,0,0,1,1.494,3.668,5.326,5.326,0,0,1-.375,1.963,8.608,8.608,0,0,1-1.166,2A29.372,29.372,0,0,1,8.438,19.41l-2.2,2.543h6.715Z" transform="translate(872.126 5893.386)" fill="#12263f"/>
    <path id="Trazado_884117" data-name="Trazado 884117" d="M8.824,19.176H1.781V16.117H8.824Zm6.621-4.359h1.863a1.937,1.937,0,0,0,2.215-2.168A1.875,1.875,0,0,0,19,11.271a2,2,0,0,0-1.488-.533,2.141,2.141,0,0,0-1.365.457,1.394,1.394,0,0,0-.58,1.137H11.613a4.043,4.043,0,0,1,.75-2.4,4.953,4.953,0,0,1,2.08-1.646,7.112,7.112,0,0,1,2.924-.592,6.988,6.988,0,0,1,4.477,1.3,4.324,4.324,0,0,1,1.629,3.574,3.6,3.6,0,0,1-.674,2.08,4.8,4.8,0,0,1-1.963,1.588,4.587,4.587,0,0,1,2.133,1.494,3.935,3.935,0,0,1,.773,2.479,4.4,4.4,0,0,1-1.758,3.656,7.3,7.3,0,0,1-4.617,1.371,7.567,7.567,0,0,1-3.111-.639,4.875,4.875,0,0,1-2.174-1.77,4.6,4.6,0,0,1-.738-2.572h3.973a1.778,1.778,0,0,0,.633,1.359,2.234,2.234,0,0,0,1.559.574,2.34,2.34,0,0,0,1.664-.58,1.939,1.939,0,0,0,.621-1.482,2.267,2.267,0,0,0-.645-1.828,2.694,2.694,0,0,0-1.781-.539H15.445Z" transform="translate(625.607 5893.386)" fill="#12263f"/>
    <path id="Trazado_884118" data-name="Trazado 884118" d="M1.277,16.656,2.32,7.938h9.973v3.07H5.531l-.387,3.387a4.67,4.67,0,0,1,1.107-.434,5.073,5.073,0,0,1,1.342-.187A5.006,5.006,0,0,1,11.5,15.279,6.066,6.066,0,0,1,12.867,19.5a6.055,6.055,0,0,1-.732,2.971,5.034,5.034,0,0,1-2.057,2.045,6.493,6.493,0,0,1-3.129.715,6.982,6.982,0,0,1-3.012-.662,5.4,5.4,0,0,1-2.2-1.816,4.416,4.416,0,0,1-.785-2.607H4.91a2.247,2.247,0,0,0,.6,1.488,1.9,1.9,0,0,0,1.418.551q1.992,0,1.992-2.953,0-2.73-2.437-2.73a2.43,2.43,0,0,0-2.062.891Z" transform="translate(1026.645 5893.386)" fill="#12263f"/>
    <path id="Trazado_884119" data-name="Trazado 884119" d="M8.824,19.176H1.781V16.117H8.824Zm3.246-2.52,1.043-8.719h9.973v3.07H16.324l-.387,3.387a4.67,4.67,0,0,1,1.107-.434,5.073,5.073,0,0,1,1.342-.187,5.006,5.006,0,0,1,3.908,1.506A6.066,6.066,0,0,1,23.66,19.5a6.055,6.055,0,0,1-.732,2.971,5.034,5.034,0,0,1-2.057,2.045,6.493,6.493,0,0,1-3.129.715,6.982,6.982,0,0,1-3.012-.662,5.4,5.4,0,0,1-2.2-1.816,4.416,4.416,0,0,1-.785-2.607H15.7a2.247,2.247,0,0,0,.6,1.488,1.9,1.9,0,0,0,1.418.551q1.992,0,1.992-2.953,0-2.73-2.437-2.73a2.43,2.43,0,0,0-2.062.891Z" transform="translate(520.607 5893.386)" fill="#12263f"/>
    <path id="Trazado_884120" data-name="Trazado 884120" d="M4.652,14.816H6.516A1.937,1.937,0,0,0,8.73,12.648,1.875,1.875,0,0,0,8.2,11.271a2,2,0,0,0-1.488-.533A2.141,2.141,0,0,0,5.35,11.2a1.394,1.394,0,0,0-.58,1.137H.82a4.043,4.043,0,0,1,.75-2.4A4.953,4.953,0,0,1,3.65,8.283a7.112,7.112,0,0,1,2.924-.592,6.988,6.988,0,0,1,4.477,1.3,4.324,4.324,0,0,1,1.629,3.574,3.6,3.6,0,0,1-.674,2.08,4.8,4.8,0,0,1-1.963,1.588,4.587,4.587,0,0,1,2.133,1.494,3.935,3.935,0,0,1,.773,2.479,4.4,4.4,0,0,1-1.758,3.656,7.3,7.3,0,0,1-4.617,1.371A7.567,7.567,0,0,1,3.463,24.6a4.875,4.875,0,0,1-2.174-1.77,4.6,4.6,0,0,1-.738-2.572H4.523a1.778,1.778,0,0,0,.633,1.359,2.234,2.234,0,0,0,1.559.574,2.34,2.34,0,0,0,1.664-.58A1.939,1.939,0,0,0,9,20.125,2.267,2.267,0,0,0,8.355,18.3a2.694,2.694,0,0,0-1.781-.539H4.652Z" transform="translate(921.645 5893.386)" fill="#12263f"/>
    <path id="Trazado_884121" data-name="Trazado 884121" d="M8.824,19.176H1.781V16.117H8.824ZM23.742,25H11.836V22.422l5.484-5.766q2.027-2.309,2.027-3.668a2.551,2.551,0,0,0-.48-1.676,1.715,1.715,0,0,0-1.395-.574,1.737,1.737,0,0,0-1.465.768,3.155,3.155,0,0,0-.562,1.916H11.484a5.6,5.6,0,0,1,.785-2.9,5.506,5.506,0,0,1,2.18-2.08,6.475,6.475,0,0,1,3.117-.75,6.369,6.369,0,0,1,4.26,1.277,4.56,4.56,0,0,1,1.494,3.668,5.326,5.326,0,0,1-.375,1.963,8.608,8.608,0,0,1-1.166,2A29.372,29.372,0,0,1,19.23,19.41l-2.2,2.543h6.715Z" transform="translate(675.127 5893.386)" fill="#12263f"/>
    <path id="Trazado_884122" data-name="Trazado 884122" d="M10.582,7.691V10.8h-.176a5.929,5.929,0,0,0-3.639,1.061A4.478,4.478,0,0,0,5.016,14.8a4.618,4.618,0,0,1,3.375-1.312,4.308,4.308,0,0,1,3.527,1.617,6.523,6.523,0,0,1,1.313,4.242,5.973,5.973,0,0,1-.768,2.988,5.477,5.477,0,0,1-2.145,2.127,6.162,6.162,0,0,1-3.053.768,6.369,6.369,0,0,1-3.246-.826,5.68,5.68,0,0,1-2.227-2.361,7.776,7.776,0,0,1-.82-3.539V16.926A9.85,9.85,0,0,1,2.1,12.186a8.2,8.2,0,0,1,3.229-3.3,9.231,9.231,0,0,1,4.652-1.2ZM7.02,16.516a2.26,2.26,0,0,0-1.312.363,2.306,2.306,0,0,0-.785.891v1.184q0,3.234,2.238,3.234a1.816,1.816,0,0,0,1.506-.809,3.3,3.3,0,0,0,.6-2.027,3.235,3.235,0,0,0-.615-2.045A1.968,1.968,0,0,0,7.02,16.516Z" transform="translate(1076.165 5893.386)" fill="#12263f"/>
    <path id="Trazado_884123" data-name="Trazado 884123" d="M8.824,19.176H1.781V16.117H8.824ZM20.59,25H16.629V12.391l-3.891,1.137v-3l7.488-2.59h.363Z" transform="translate(730.607 5893.386)" fill="#12263f"/>
    <path id="Trazado_884124" data-name="Trazado 884124" d="M12.9,10.047,6.527,25H2.355L8.742,10.984H.609V7.938H12.9Z" transform="translate(1131.645 5893.386)" fill="#12263f"/>
    <path id="Trazado_884125" data-name="Trazado 884125" d="M8.824,19.176H1.781V16.117H8.824Zm6.621-4.359h1.863a1.937,1.937,0,0,0,2.215-2.168A1.875,1.875,0,0,0,19,11.271a2,2,0,0,0-1.488-.533,2.141,2.141,0,0,0-1.365.457,1.394,1.394,0,0,0-.58,1.137H11.613a4.043,4.043,0,0,1,.75-2.4,4.953,4.953,0,0,1,2.08-1.646,7.112,7.112,0,0,1,2.924-.592,6.988,6.988,0,0,1,4.477,1.3,4.324,4.324,0,0,1,1.629,3.574,3.6,3.6,0,0,1-.674,2.08,4.8,4.8,0,0,1-1.963,1.588,4.587,4.587,0,0,1,2.133,1.494,3.935,3.935,0,0,1,.773,2.479,4.4,4.4,0,0,1-1.758,3.656,7.3,7.3,0,0,1-4.617,1.371,7.567,7.567,0,0,1-3.111-.639,4.875,4.875,0,0,1-2.174-1.77,4.6,4.6,0,0,1-.738-2.572h3.973a1.778,1.778,0,0,0,.633,1.359,2.234,2.234,0,0,0,1.559.574,2.34,2.34,0,0,0,1.664-.58,1.939,1.939,0,0,0,.621-1.482,2.267,2.267,0,0,0-.645-1.828,2.694,2.694,0,0,0-1.781-.539H15.445Z" transform="translate(749.568 6006.386)" fill="#12263f"/>
    <path id="Trazado_884126" data-name="Trazado 884126" d="M8.824,19.176H1.781V16.117H8.824ZM23.742,25H11.836V22.422l5.484-5.766q2.027-2.309,2.027-3.668a2.551,2.551,0,0,0-.48-1.676,1.715,1.715,0,0,0-1.395-.574,1.737,1.737,0,0,0-1.465.768,3.155,3.155,0,0,0-.562,1.916H11.484a5.6,5.6,0,0,1,.785-2.9,5.506,5.506,0,0,1,2.18-2.08,6.475,6.475,0,0,1,3.117-.75,6.369,6.369,0,0,1,4.26,1.277,4.56,4.56,0,0,1,1.494,3.668,5.326,5.326,0,0,1-.375,1.963,8.608,8.608,0,0,1-1.166,2A29.372,29.372,0,0,1,19.23,19.41l-2.2,2.543h6.715Z" transform="translate(749.568 5960.386)" fill="#12263f"/>
    <path id="Trazado_884127" data-name="Trazado 884127" d="M8.824,19.176H1.781V16.117H8.824Zm13.441-.844H24v3.047H22.266V25H18.316V21.379h-6.6l-.234-2.414L18.316,7.973V7.938h3.949Zm-7.02,0h3.07v-5.25l-.246.4Z" transform="translate(749.568 6049.386)" fill="#12263f"/>
    <path id="Trazado_884128" data-name="Trazado 884128" d="M8.824,19.176H1.781V16.117H8.824Zm3.246-2.52,1.043-8.719h9.973v3.07H16.324l-.387,3.387a4.67,4.67,0,0,1,1.107-.434,5.073,5.073,0,0,1,1.342-.187,5.006,5.006,0,0,1,3.908,1.506A6.066,6.066,0,0,1,23.66,19.5a6.055,6.055,0,0,1-.732,2.971,5.034,5.034,0,0,1-2.057,2.045,6.493,6.493,0,0,1-3.129.715,6.982,6.982,0,0,1-3.012-.662,5.4,5.4,0,0,1-2.2-1.816,4.416,4.416,0,0,1-.785-2.607H15.7a2.247,2.247,0,0,0,.6,1.488,1.9,1.9,0,0,0,1.418.551q1.992,0,1.992-2.953,0-2.73-2.437-2.73a2.43,2.43,0,0,0-2.062.891Z" transform="translate(749.568 6095.386)" fill="#12263f"/>
    <path id="Trazado_884129" data-name="Trazado 884129" d="M4.652,14.816H6.516A1.937,1.937,0,0,0,8.73,12.648,1.875,1.875,0,0,0,8.2,11.271a2,2,0,0,0-1.488-.533A2.141,2.141,0,0,0,5.35,11.2a1.394,1.394,0,0,0-.58,1.137H.82a4.043,4.043,0,0,1,.75-2.4A4.953,4.953,0,0,1,3.65,8.283a7.112,7.112,0,0,1,2.924-.592,6.988,6.988,0,0,1,4.477,1.3,4.324,4.324,0,0,1,1.629,3.574,3.6,3.6,0,0,1-.674,2.08,4.8,4.8,0,0,1-1.963,1.588,4.587,4.587,0,0,1,2.133,1.494,3.935,3.935,0,0,1,.773,2.479,4.4,4.4,0,0,1-1.758,3.656,7.3,7.3,0,0,1-4.617,1.371A7.567,7.567,0,0,1,3.463,24.6a4.875,4.875,0,0,1-2.174-1.77,4.6,4.6,0,0,1-.738-2.572H4.523a1.778,1.778,0,0,0,.633,1.359,2.234,2.234,0,0,0,1.559.574,2.34,2.34,0,0,0,1.664-.58A1.939,1.939,0,0,0,9,20.125,2.267,2.267,0,0,0,8.355,18.3a2.694,2.694,0,0,0-1.781-.539H4.652Z" transform="translate(758.568 5730.831)" fill="#12263f"/>
    <path id="Trazado_884130" data-name="Trazado 884130" d="M11.473,18.332h1.734v3.047H11.473V25H7.523V21.379H.926L.691,18.965,7.523,7.973V7.938h3.949Zm-7.02,0h3.07v-5.25l-.246.4Z" transform="translate(758.568 5686.047)" fill="#12263f"/>
    <path id="Trazado_884131" data-name="Trazado 884131" d="M12.949,25H1.043V22.422l5.484-5.766q2.027-2.309,2.027-3.668a2.551,2.551,0,0,0-.48-1.676,1.715,1.715,0,0,0-1.395-.574,1.737,1.737,0,0,0-1.465.768,3.155,3.155,0,0,0-.562,1.916H.691a5.6,5.6,0,0,1,.785-2.9,5.506,5.506,0,0,1,2.18-2.08,6.475,6.475,0,0,1,3.117-.75,6.369,6.369,0,0,1,4.26,1.277,4.56,4.56,0,0,1,1.494,3.668,5.326,5.326,0,0,1-.375,1.963,8.608,8.608,0,0,1-1.166,2A29.372,29.372,0,0,1,8.438,19.41l-2.2,2.543h6.715Z" transform="translate(758.568 5775.615)" fill="#12263f"/>
    <path id="Trazado_884132" data-name="Trazado 884132" d="M9.8,25H5.836V12.391L1.945,13.527v-3l7.488-2.59H9.8Z" transform="translate(758.568 5822.615)" fill="#12263f"/>
    <path id="Trazado_884133" data-name="Trazado 884133" d="M7.652,13.609l2.789-5.672h4.7L10.371,16.4l4.9,8.6H10.523L7.652,19.223,4.781,25H.047l4.887-8.6L.176,7.938H4.863Z" transform="translate(1161.631 5847.469)" fill="#12263f"/>
    <path id="Trazado_884134" data-name="Trazado 884134" d="M7.2,26.281V34H1.719V11.25H10.8a10.574,10.574,0,0,1,4.617.961,7.242,7.242,0,0,1,3.109,2.734,7.468,7.468,0,0,1,1.1,4.023,6.583,6.583,0,0,1-2.383,5.32A9.887,9.887,0,0,1,10.7,26.281Zm0-4.234H10.8a3.389,3.389,0,0,0,2.43-.8A2.961,2.961,0,0,0,14.063,19a3.66,3.66,0,0,0-.859-2.547,3.043,3.043,0,0,0-2.344-.969H7.2Zm15.5,2.7a23.878,23.878,0,0,1,1.016-7.094,17.119,17.119,0,0,1,2.8-5.562A9.961,9.961,0,0,1,30.5,8.906l1,2.594a10.187,10.187,0,0,0-3.383,5.023,24.5,24.5,0,0,0-1.211,8.008v.688a24.979,24.979,0,0,0,1.2,8.156,10.144,10.144,0,0,0,3.4,5.063l-1,2.594a9.861,9.861,0,0,1-3.977-3.2,16.861,16.861,0,0,1-2.8-5.539A23.993,23.993,0,0,1,22.7,25.453Zm15.625-4.328h2.484q2.953,0,2.953-2.891a2.5,2.5,0,0,0-.7-1.836,2.666,2.666,0,0,0-1.984-.711,2.854,2.854,0,0,0-1.82.609,1.859,1.859,0,0,0-.773,1.516H33.219a5.39,5.39,0,0,1,1-3.2,6.6,6.6,0,0,1,2.773-2.2,9.482,9.482,0,0,1,3.9-.789,9.317,9.317,0,0,1,5.969,1.734,5.766,5.766,0,0,1,2.172,4.766,4.806,4.806,0,0,1-.9,2.773,6.4,6.4,0,0,1-2.617,2.117A6.116,6.116,0,0,1,48.359,24.3a5.246,5.246,0,0,1,1.031,3.3,5.87,5.87,0,0,1-2.344,4.875,9.729,9.729,0,0,1-6.156,1.828,10.089,10.089,0,0,1-4.148-.852,6.5,6.5,0,0,1-2.9-2.359,6.134,6.134,0,0,1-.984-3.43h5.3A2.371,2.371,0,0,0,39,29.484a2.979,2.979,0,0,0,2.078.766,3.12,3.12,0,0,0,2.219-.773,2.585,2.585,0,0,0,.828-1.977,3.022,3.022,0,0,0-.859-2.437,3.592,3.592,0,0,0-2.375-.719H38.328Zm15.656,19.7-2.656-1.25.531-1.062A8.666,8.666,0,0,0,53,33.938V30.031h4.219L57.2,33.422a8.475,8.475,0,0,1-.922,3.656A9.29,9.29,0,0,1,53.984,40.125ZM74.578,25.109h2.313v4.063H74.578V34H69.313V29.172h-8.8L60.2,25.953,69.313,11.3V11.25h5.266Zm-9.359,0h4.094v-7l-.328.531Zm22.375.078a22.28,22.28,0,0,1-1.078,6.969,17.792,17.792,0,0,1-2.977,5.664,9.909,9.909,0,0,1-4.1,3.211l-1-2.594a10.288,10.288,0,0,0,3.359-5,24.136,24.136,0,0,0,1.234-7.766v-.953a24.979,24.979,0,0,0-1.2-8.156,10.144,10.144,0,0,0-3.4-5.062l1-2.594a10.091,10.091,0,0,1,4.07,3.18,17.574,17.574,0,0,1,2.969,5.578A22.091,22.091,0,0,1,87.594,24.5Z" transform="translate(965.631 5666.469)" fill="#12263f"/>
    <path id="Trazado_884135" data-name="Trazado 884135" d="M7.2,26.281V34H1.719V11.25H10.8a10.574,10.574,0,0,1,4.617.961,7.242,7.242,0,0,1,3.109,2.734,7.468,7.468,0,0,1,1.1,4.023,6.583,6.583,0,0,1-2.383,5.32A9.887,9.887,0,0,1,10.7,26.281Zm0-4.234H10.8a3.389,3.389,0,0,0,2.43-.8A2.961,2.961,0,0,0,14.063,19a3.66,3.66,0,0,0-.859-2.547,3.043,3.043,0,0,0-2.344-.969H7.2Zm15.5,2.7a23.878,23.878,0,0,1,1.016-7.094,17.119,17.119,0,0,1,2.8-5.562A9.961,9.961,0,0,1,30.5,8.906l1,2.594a10.187,10.187,0,0,0-3.383,5.023,24.5,24.5,0,0,0-1.211,8.008v.688a24.979,24.979,0,0,0,1.2,8.156,10.144,10.144,0,0,0,3.4,5.063l-1,2.594a9.861,9.861,0,0,1-3.977-3.2,16.861,16.861,0,0,1-2.8-5.539A23.993,23.993,0,0,1,22.7,25.453Zm21.188,1.484H34.5V22.156h9.391Zm17.922-1.125h2.313v4.063H61.813V34H56.547V29.172h-8.8l-.312-3.219L56.547,11.3V11.25h5.266Zm-9.359,0h4.094v-7l-.328.531ZM68.375,40.125l-2.656-1.25.531-1.062a8.666,8.666,0,0,0,1.141-3.875V30.031h4.219l-.016,3.391a8.475,8.475,0,0,1-.922,3.656A9.29,9.29,0,0,1,68.375,40.125ZM85.438,26.234H76.047V22.156h9.391Zm8.828-5.812H96.75q2.953,0,2.953-2.891A2.5,2.5,0,0,0,99,15.7a2.666,2.666,0,0,0-1.984-.711,2.854,2.854,0,0,0-1.82.609,1.859,1.859,0,0,0-.773,1.516H89.156a5.39,5.39,0,0,1,1-3.2,6.6,6.6,0,0,1,2.773-2.2,9.482,9.482,0,0,1,3.9-.789,9.317,9.317,0,0,1,5.969,1.734,5.766,5.766,0,0,1,2.172,4.766,4.805,4.805,0,0,1-.9,2.773,6.4,6.4,0,0,1-2.617,2.117A6.116,6.116,0,0,1,104.3,24.3a5.246,5.246,0,0,1,1.031,3.3,5.87,5.87,0,0,1-2.344,4.875,9.729,9.729,0,0,1-6.156,1.828,10.089,10.089,0,0,1-4.148-.852,6.5,6.5,0,0,1-2.9-2.359,6.134,6.134,0,0,1-.984-3.43h5.3a2.371,2.371,0,0,0,.844,1.813,2.979,2.979,0,0,0,2.078.766,3.12,3.12,0,0,0,2.219-.773,2.585,2.585,0,0,0,.828-1.977,3.022,3.022,0,0,0-.859-2.437,3.592,3.592,0,0,0-2.375-.719H94.266Zm22.109,4.766a22.28,22.28,0,0,1-1.078,6.969,17.792,17.792,0,0,1-2.977,5.664,9.909,9.909,0,0,1-4.1,3.211l-1-2.594a10.288,10.288,0,0,0,3.359-5,24.136,24.136,0,0,0,1.234-7.766v-.953a24.979,24.979,0,0,0-1.2-8.156,10.144,10.144,0,0,0-3.4-5.062l1-2.594a10.091,10.091,0,0,1,4.07,3.18,17.574,17.574,0,0,1,2.969,5.578,22.091,22.091,0,0,1,1.117,6.836Z" transform="translate(613.631 5998.248)" fill="#12263f"/>
    <path id="Trazado_883522" data-name="Trazado 883522" d="M-2960.711-5635.74v500.754" transform="translate(3746.799 11268.125)" fill="none" stroke="#000" stroke-width="2"/>
    <path id="Trazado_883525" data-name="Trazado 883525" d="M-2967.261-5613.284h15.057" transform="translate(3745.799 11268.125)" fill="none" stroke="#000" stroke-width="2"/>
    <path id="Trazado_883530" data-name="Trazado 883530" d="M-2967.261-5613.284h15.057" transform="translate(3745.799 11542.616)" fill="none" stroke="#000" stroke-width="2"/>
    <path id="Trazado_883535" data-name="Trazado 883535" d="M-2967.261-5613.284h15.057" transform="translate(-5177.352 8842.495) rotate(90)" fill="none" stroke="#000" stroke-width="2"/>
    <path id="Trazado_883548" data-name="Trazado 883548" d="M-2967.261-5613.284h15.057" transform="translate(-4786.08 8842.495) rotate(90)" fill="none" stroke="#000" stroke-width="2"/>
    <path id="Trazado_883538" data-name="Trazado 883538" d="M-2967.261-5613.284h15.057" transform="translate(-5076.352 8842.495) rotate(90)" fill="none" stroke="#000" stroke-width="2"/>
    <path id="Trazado_883546" data-name="Trazado 883546" d="M-2967.261-5613.284h15.057" transform="translate(-4685.08 8842.495) rotate(90)" fill="none" stroke="#000" stroke-width="2"/>
    <path id="Trazado_883540" data-name="Trazado 883540" d="M-2967.261-5613.284h15.057" transform="translate(-4973.312 8842.495) rotate(90)" fill="none" stroke="#000" stroke-width="2"/>
    <path id="Trazado_883544" data-name="Trazado 883544" d="M-2967.261-5613.284h15.057" transform="translate(-4582.04 8842.495) rotate(90)" fill="none" stroke="#000" stroke-width="2"/>
    <path id="Trazado_883536" data-name="Trazado 883536" d="M-2967.261-5613.284h15.057" transform="translate(-5127.832 8842.495) rotate(90)" fill="none" stroke="#000" stroke-width="2"/>
    <path id="Trazado_883547" data-name="Trazado 883547" d="M-2967.261-5613.284h15.057" transform="translate(-4736.561 8842.495) rotate(90)" fill="none" stroke="#000" stroke-width="2"/>
    <path id="Trazado_883537" data-name="Trazado 883537" d="M-2967.261-5613.284h15.057" transform="translate(-5026.832 8842.495) rotate(90)" fill="none" stroke="#000" stroke-width="2"/>
    <path id="Trazado_883545" data-name="Trazado 883545" d="M-2967.261-5613.284h15.057" transform="translate(-4635.561 8842.495) rotate(90)" fill="none" stroke="#000" stroke-width="2"/>
    <path id="Trazado_883539" data-name="Trazado 883539" d="M-2967.261-5613.284h15.057" transform="translate(-4923.792 8842.495) rotate(90)" fill="none" stroke="#000" stroke-width="2"/>
    <path id="Trazado_883543" data-name="Trazado 883543" d="M-2967.261-5613.284h15.057" transform="translate(-4532.521 8842.495) rotate(90)" fill="none" stroke="#000" stroke-width="2"/>
    <path id="Trazado_883541" data-name="Trazado 883541" d="M-2967.261-5613.284h15.057" transform="translate(-4868.313 8842.495) rotate(90)" fill="none" stroke="#000" stroke-width="2"/>
    <path id="Trazado_883542" data-name="Trazado 883542" d="M-2967.261-5613.284h15.057" transform="translate(-4477.041 8842.495) rotate(90)" fill="none" stroke="#000" stroke-width="2"/>
    <path id="Trazado_883526" data-name="Trazado 883526" d="M-2967.261-5613.284h15.057" transform="translate(3745.799 11312.909)" fill="none" stroke="#000" stroke-width="2"/>
    <path id="Trazado_883531" data-name="Trazado 883531" d="M-2967.261-5613.284h15.057" transform="translate(3745.799 11587.4)" fill="none" stroke="#000" stroke-width="2"/>
    <path id="Trazado_883527" data-name="Trazado 883527" d="M-2967.261-5613.284h15.057" transform="translate(3745.799 11357.693)" fill="none" stroke="#000" stroke-width="2"/>
    <path id="Trazado_883532" data-name="Trazado 883532" d="M-2967.261-5613.284h15.057" transform="translate(3745.799 11632.185)" fill="none" stroke="#000" stroke-width="2"/>
    <path id="Trazado_883528" data-name="Trazado 883528" d="M-2967.261-5613.284h15.057" transform="translate(3745.799 11402.478)" fill="none" stroke="#000" stroke-width="2"/>
    <path id="Trazado_883533" data-name="Trazado 883533" d="M-2967.261-5613.284h15.057" transform="translate(3745.799 11676.969)" fill="none" stroke="#000" stroke-width="2"/>
    <path id="Trazado_883529" data-name="Trazado 883529" d="M-2967.261-5613.284h15.057" transform="translate(3745.799 11449.478)" fill="none" stroke="#000" stroke-width="2"/>
    <path id="Trazado_883534" data-name="Trazado 883534" d="M-2967.261-5613.284h15.057" transform="translate(3745.799 11723.969)" fill="none" stroke="#000" stroke-width="2"/>
  </g>
</svg>
