<svg xmlns="http://www.w3.org/2000/svg" width="294.088" height="282.417" viewBox="0 0 294.088 282.417">
  <g id="Grupo_1105531" data-name="Grupo 1105531" transform="translate(-1076.912 -2771.352)">
    <path id="Trazado_883489" data-name="Trazado 883489" d="M-2960.711-7909.369l5.734-5.733,5.734,5.733" transform="translate(4173.669 10692.63)" fill="none" stroke="#707070" stroke-width="2"/>
    <path id="Trazado_883490" data-name="Trazado 883490" d="M0,5.734,5.734,0l5.734,5.734" transform="translate(1355.73 2910.225) rotate(90)" fill="none" stroke="#707070" stroke-width="2"/>
    <path id="Trazado_884062" data-name="Trazado 884062" d="M7.535,15.344l3.141-7.406h4.441l-5.5,10.934V25H5.449V18.871L-.035,7.938H4.383Z" transform="translate(1198.872 2763.414)" fill="#e8624e"/>
    <path id="Trazado_884063" data-name="Trazado 884063" d="M20.817,16.609H16.589L15.851,19h-3.3L17.249,6.2h2.9L24.878,19H21.564Zm-3.489-2.382h2.751L18.7,9.789Zm17.174.1a5.8,5.8,0,0,1-.967,3.595,3.238,3.238,0,0,1-2.725,1.257,2.81,2.81,0,0,1-2.338-1.151L28.349,19H25.695V5.5h2.962v4.755a2.711,2.711,0,0,1,2.136-.94,3.239,3.239,0,0,1,2.742,1.274,5.826,5.826,0,0,1,.967,3.586Zm-2.971-.185a3.878,3.878,0,0,0-.365-1.956,1.229,1.229,0,0,0-1.121-.584,1.418,1.418,0,0,0-1.389.765v3.779a1.426,1.426,0,0,0,1.406.756,1.258,1.258,0,0,0,1.327-1.02A7.333,7.333,0,0,0,31.531,14.14Zm9.255,2.188a.684.684,0,0,0-.4-.606,6.016,6.016,0,0,0-1.5-.475,6.853,6.853,0,0,1-1.828-.646,3.062,3.062,0,0,1-1.1-.971,2.319,2.319,0,0,1-.378-1.31,2.628,2.628,0,0,1,1.081-2.158,4.453,4.453,0,0,1,2.83-.848,4.934,4.934,0,0,1,3.023.853,2.666,2.666,0,0,1,1.143,2.241H40.689q0-1.143-1.2-1.143a1.194,1.194,0,0,0-.782.259.8.8,0,0,0-.316.646.737.737,0,0,0,.387.642,3.654,3.654,0,0,0,1.235.4,10.671,10.671,0,0,1,1.49.378,2.706,2.706,0,0,1,2.145,2.646,2.491,2.491,0,0,1-1.156,2.118,5.068,5.068,0,0,1-2.993.817,5.172,5.172,0,0,1-2.18-.439,3.645,3.645,0,0,1-1.494-1.2,2.707,2.707,0,0,1-.536-1.591h2.769a1.145,1.145,0,0,0,.439.962,1.808,1.808,0,0,0,1.081.3,1.422,1.422,0,0,0,.91-.246A.787.787,0,0,0,40.786,16.328Zm8.262.563a1.317,1.317,0,0,0,.967-.338,1.241,1.241,0,0,0,.334-.945h2.777A3.288,3.288,0,0,1,52,18.174a4.168,4.168,0,0,1-2.887,1,4.22,4.22,0,0,1-3.27-1.3,5.125,5.125,0,0,1-1.2-3.6v-.123a5.792,5.792,0,0,1,.532-2.544,3.872,3.872,0,0,1,1.534-1.7,4.573,4.573,0,0,1,2.373-.593,4.116,4.116,0,0,1,2.944,1.028,3.647,3.647,0,0,1,1.09,2.786H50.348A1.626,1.626,0,0,0,49.988,12a1.244,1.244,0,0,0-.967-.4q-1.151,0-1.345,1.468a10.357,10.357,0,0,0-.062,1.283,4.068,4.068,0,0,0,.343,1.986A1.187,1.187,0,0,0,49.047,16.891ZM57.5,19H54.532V9.49H57.5ZM54.356,7.038A1.322,1.322,0,0,1,54.813,6a1.943,1.943,0,0,1,2.373,0,1.322,1.322,0,0,1,.457,1.037,1.322,1.322,0,0,1-.457,1.037,1.943,1.943,0,0,1-2.373,0A1.322,1.322,0,0,1,54.356,7.038Zm9.949,9.29a.684.684,0,0,0-.4-.606,6.016,6.016,0,0,0-1.5-.475,6.853,6.853,0,0,1-1.828-.646,3.062,3.062,0,0,1-1.1-.971,2.319,2.319,0,0,1-.378-1.31,2.628,2.628,0,0,1,1.081-2.158,4.453,4.453,0,0,1,2.83-.848,4.934,4.934,0,0,1,3.023.853,2.666,2.666,0,0,1,1.143,2.241H64.209q0-1.143-1.2-1.143a1.194,1.194,0,0,0-.782.259.8.8,0,0,0-.316.646.737.737,0,0,0,.387.642,3.654,3.654,0,0,0,1.235.4,10.671,10.671,0,0,1,1.49.378,2.706,2.706,0,0,1,2.145,2.646,2.491,2.491,0,0,1-1.156,2.118,5.068,5.068,0,0,1-2.993.817,5.172,5.172,0,0,1-2.18-.439,3.645,3.645,0,0,1-1.494-1.2A2.707,2.707,0,0,1,58.8,15.95h2.769a1.145,1.145,0,0,0,.439.962,1.808,1.808,0,0,0,1.081.3A1.422,1.422,0,0,0,64,16.97.787.787,0,0,0,64.305,16.328ZM73.9,19a3.344,3.344,0,0,1-.281-.853,2.754,2.754,0,0,1-2.285,1.028,3.374,3.374,0,0,1-2.285-.813,2.588,2.588,0,0,1-.94-2.043,2.66,2.66,0,0,1,1.143-2.338,5.821,5.821,0,0,1,3.322-.791h.914v-.5q0-1.31-1.134-1.31A.925.925,0,0,0,71.3,12.417H68.339a2.659,2.659,0,0,1,1.173-2.241,4.927,4.927,0,0,1,2.993-.861,4.323,4.323,0,0,1,2.874.888,3.086,3.086,0,0,1,1.081,2.435v4.21a4.311,4.311,0,0,0,.4,2V19Zm-1.854-1.934a1.652,1.652,0,0,0,.918-.237,1.487,1.487,0,0,0,.523-.536V14.772h-.861q-1.547,0-1.547,1.389a.848.848,0,0,0,.272.655A.986.986,0,0,0,72.048,17.066Z" transform="translate(1281.087 3002.157)" fill="#7000d2"/>
    <path id="Trazado_884064" data-name="Trazado 884064" d="M24.091,12.865a7.546,7.546,0,0,1-.694,3.313A5.132,5.132,0,0,1,21.423,18.4a5.494,5.494,0,0,1-2.914.778,5.572,5.572,0,0,1-2.9-.751,5.123,5.123,0,0,1-1.973-2.149,7.329,7.329,0,0,1-.743-3.208v-.721a7.58,7.58,0,0,1,.69-3.318A5.119,5.119,0,0,1,15.561,6.81a5.533,5.533,0,0,1,2.931-.782,5.479,5.479,0,0,1,2.9.773A5.211,5.211,0,0,1,23.374,9a7.362,7.362,0,0,1,.716,3.274Zm-3.138-.536a5.381,5.381,0,0,0-.637-2.9,2.044,2.044,0,0,0-1.824-.989q-2.32,0-2.452,3.48l-.009.94a5.535,5.535,0,0,0,.624,2.892,2.041,2.041,0,0,0,1.854,1.011,2.016,2.016,0,0,0,1.8-.993,5.383,5.383,0,0,0,.642-2.856ZM31.3,12.171l-.976-.07a1.752,1.752,0,0,0-1.793.879V19H25.567V9.49h2.777l.1,1.222a2.294,2.294,0,0,1,2.083-1.4,2.888,2.888,0,0,1,.826.105Zm.694,2a5.809,5.809,0,0,1,.976-3.56,3.211,3.211,0,0,1,2.725-1.3,2.731,2.731,0,0,1,2.145,1V5.5h2.971V19H38.144l-.149-1.02a2.8,2.8,0,0,1-2.32,1.2,3.205,3.205,0,0,1-2.689-1.3A5.993,5.993,0,0,1,31.992,14.175Zm2.962.185q0,2.531,1.477,2.531a1.458,1.458,0,0,0,1.406-.826V12.443a1.419,1.419,0,0,0-1.389-.844q-1.371,0-1.485,2.215Zm12.138,4.816a4.889,4.889,0,0,1-3.542-1.305,4.507,4.507,0,0,1-1.354-3.4v-.246a5.84,5.84,0,0,1,.541-2.575,3.955,3.955,0,0,1,1.578-1.727,4.763,4.763,0,0,1,2.461-.611,4.117,4.117,0,0,1,3.164,1.244,4.887,4.887,0,0,1,1.16,3.467v1.151H45.211a2.135,2.135,0,0,0,.694,1.257,2.066,2.066,0,0,0,1.389.457,2.662,2.662,0,0,0,2.2-.984l1.354,1.6a3.784,3.784,0,0,1-1.569,1.217A5.3,5.3,0,0,1,47.092,19.176ZM46.758,11.6q-1.3,0-1.547,1.723H48.2v-.229a1.467,1.467,0,0,0-.36-1.1A1.434,1.434,0,0,0,46.758,11.6ZM55.01,9.49l.1,1.116a3.225,3.225,0,0,1,2.716-1.292,2.713,2.713,0,0,1,2.219.888,4.226,4.226,0,0,1,.76,2.672V19H57.832V13a1.6,1.6,0,0,0-.29-1.059,1.342,1.342,0,0,0-1.055-.338,1.413,1.413,0,0,0-1.292.686V19H52.233V9.49ZM67.8,19a3.344,3.344,0,0,1-.281-.853,2.754,2.754,0,0,1-2.285,1.028,3.374,3.374,0,0,1-2.285-.813,2.588,2.588,0,0,1-.94-2.043,2.66,2.66,0,0,1,1.143-2.338,5.821,5.821,0,0,1,3.322-.791h.914v-.5q0-1.31-1.134-1.31A.925.925,0,0,0,65.2,12.417H62.235a2.659,2.659,0,0,1,1.173-2.241A4.927,4.927,0,0,1,66.4,9.314a4.323,4.323,0,0,1,2.874.888,3.086,3.086,0,0,1,1.081,2.435v4.21a4.311,4.311,0,0,0,.4,2V19Zm-1.854-1.934a1.652,1.652,0,0,0,.918-.237,1.487,1.487,0,0,0,.523-.536V14.772h-.861q-1.547,0-1.547,1.389a.848.848,0,0,0,.272.655A.986.986,0,0,0,65.944,17.066Zm5.678-2.892a5.809,5.809,0,0,1,.976-3.56,3.211,3.211,0,0,1,2.725-1.3,2.731,2.731,0,0,1,2.145,1V5.5h2.971V19H77.774l-.149-1.02a2.8,2.8,0,0,1-2.32,1.2,3.205,3.205,0,0,1-2.689-1.3A5.993,5.993,0,0,1,71.622,14.175Zm2.962.185q0,2.531,1.477,2.531a1.458,1.458,0,0,0,1.406-.826V12.443a1.419,1.419,0,0,0-1.389-.844q-1.371,0-1.485,2.215ZM87.477,19a3.344,3.344,0,0,1-.281-.853,2.754,2.754,0,0,1-2.285,1.028,3.374,3.374,0,0,1-2.285-.813,2.588,2.588,0,0,1-.94-2.043,2.66,2.66,0,0,1,1.143-2.338,5.821,5.821,0,0,1,3.322-.791h.914v-.5q0-1.31-1.134-1.31a.925.925,0,0,0-1.055,1.037H81.914a2.659,2.659,0,0,1,1.173-2.241,4.927,4.927,0,0,1,2.993-.861,4.323,4.323,0,0,1,2.874.888,3.086,3.086,0,0,1,1.081,2.435v4.21a4.311,4.311,0,0,0,.4,2V19Zm-1.854-1.934a1.652,1.652,0,0,0,.918-.237,1.487,1.487,0,0,0,.523-.536V14.772H86.2q-1.547,0-1.547,1.389a.848.848,0,0,0,.272.655A.986.986,0,0,0,85.623,17.066Z" transform="translate(1084.087 2777.527)" fill="#7000d2"/>
    <path id="Trazado_884065" data-name="Trazado 884065" d="M7.652,13.609l2.789-5.672h4.7L10.371,16.4l4.9,8.6H10.523L7.652,19.223,4.781,25H.047l4.887-8.6L.176,7.938H4.863Z" transform="translate(1355.73 2925.651)" fill="#e8624e"/>
    <path id="Trazado_883491" data-name="Trazado 883491" d="M-2964.111-7827.409h14.55" transform="translate(4175.528 10648.721)" fill="none" stroke="#707070" stroke-width="2"/>
    <path id="Trazado_883500" data-name="Trazado 883500" d="M-2964.111-7827.409h14.55" transform="translate(4175.528 10772.669)" fill="none" stroke="#707070" stroke-width="2"/>
    <path id="Trazado_883492" data-name="Trazado 883492" d="M-2964.111-7827.409h14.55" transform="translate(4175.528 10680.191)" fill="none" stroke="#707070" stroke-width="2"/>
    <path id="Trazado_883502" data-name="Trazado 883502" d="M-2964.111-7827.409h14.55" transform="translate(4175.528 10804.14)" fill="none" stroke="#707070" stroke-width="2"/>
    <path id="Trazado_883493" data-name="Trazado 883493" d="M-2964.111-7827.409h14.55" transform="translate(4175.528 10711.119)" fill="none" stroke="#707070" stroke-width="2"/>
    <path id="Trazado_883501" data-name="Trazado 883501" d="M-2964.111-7827.409h14.55" transform="translate(4175.528 10835.067)" fill="none" stroke="#707070" stroke-width="2"/>
    <path id="Trazado_883494" data-name="Trazado 883494" d="M0,0H14.55" transform="translate(1124.821 2908.684) rotate(90)" fill="none" stroke="#707070" stroke-width="2"/>
    <path id="Trazado_883497" data-name="Trazado 883497" d="M0,0H14.55" transform="translate(1249.619 2908.684) rotate(90)" fill="none" stroke="#707070" stroke-width="2"/>
    <path id="Trazado_883495" data-name="Trazado 883495" d="M0,0H14.55" transform="translate(1156.289 2908.684) rotate(90)" fill="none" stroke="#707070" stroke-width="2"/>
    <path id="Trazado_883498" data-name="Trazado 883498" d="M0,0H14.55" transform="translate(1281.087 2908.684) rotate(90)" fill="none" stroke="#707070" stroke-width="2"/>
    <path id="Trazado_883496" data-name="Trazado 883496" d="M0,0H14.55" transform="translate(1187.217 2908.684) rotate(90)" fill="none" stroke="#707070" stroke-width="2"/>
    <path id="Trazado_883499" data-name="Trazado 883499" d="M0,0H14.55" transform="translate(1312.015 2908.684) rotate(90)" fill="none" stroke="#707070" stroke-width="2"/>
    <path id="Trazado_883487" data-name="Trazado 883487" d="M-2951-7906.958v275.621" transform="translate(4169.531 10685.105)" fill="none" stroke="#707070" stroke-width="2"/>
    <path id="Trazado_883488" data-name="Trazado 883488" d="M-3212-7652.977h278.181" transform="translate(4288.912 10568.935)" fill="none" stroke="#707070" stroke-width="2"/>
  </g>
</svg>
