<svg xmlns="http://www.w3.org/2000/svg" width="660.321" height="413.277" viewBox="0 0 660.321 413.277">
  <g id="Grupo_1105459" data-name="Grupo 1105459" transform="translate(-465.789 -2032.752)">
    <path id="Trazado_883504" data-name="Trazado 883504" d="M-2949.87-9826.378v377.4" transform="translate(3714.287 11871.752)" fill="none" stroke="#000" stroke-width="2"/>
    <path id="Trazado_883986" data-name="Trazado 883986" d="M7.5,0,15,13H0Z" transform="translate(772.287 2435.752) rotate(180)"/>
    <path id="Trazado_883987" data-name="Trazado 883987" d="M7.5,0,15,13H0Z" transform="translate(757.287 2032.752)"/>
    <path id="Trazado_883506" data-name="Trazado 883506" d="M-2982.671-9801.707h59.354" transform="translate(3719.287 11911.752)" fill="none" stroke="#000" stroke-width="2"/>
    <path id="Trazado_883521" data-name="Trazado 883521" d="M-2982.671-9801.707h59.354" transform="translate(3719.287 11871.752)" fill="none" stroke="#000" stroke-width="2"/>
    <path id="Trazado_883507" data-name="Trazado 883507" d="M-2982.671-9801.707h59.354" transform="translate(3719.287 11943.752)" fill="none" stroke="#000" stroke-width="2"/>
    <path id="Trazado_883508" data-name="Trazado 883508" d="M-2982.671-9801.707h59.354" transform="translate(3719.287 11983.752)" fill="none" stroke="#000" stroke-width="2"/>
    <path id="Trazado_883509" data-name="Trazado 883509" d="M0,0V454.857" transform="translate(985.883 2222.175) rotate(90)" fill="none" stroke="#000" stroke-width="2"/>
    <path id="Trazado_883988" data-name="Trazado 883988" d="M7.5,0,15,13H0Z" transform="translate(518.053 2229.675) rotate(-90)"/>
    <path id="Trazado_883989" data-name="Trazado 883989" d="M7.5,0,15,13H0Z" transform="translate(998.505 2214.675) rotate(90)"/>
    <path id="Trazado_883510" data-name="Trazado 883510" d="M-3150.711-9674.117v59.648" transform="translate(3714.287 11871.752)" fill="none" stroke="#000" stroke-width="2"/>
    <path id="Trazado_883515" data-name="Trazado 883515" d="M-3150.711-9674.117v59.648" transform="translate(3956.287 11871.752)" fill="none" stroke="#707070" stroke-width="2"/>
    <path id="Trazado_883511" data-name="Trazado 883511" d="M-3150.711-9674.117v59.648" transform="translate(3753.287 11871.752)" fill="none" stroke="#000" stroke-width="2"/>
    <path id="Trazado_883516" data-name="Trazado 883516" d="M-3150.711-9674.117v59.648" transform="translate(3995.287 11871.752)" fill="none" stroke="#000" stroke-width="2"/>
    <path id="Trazado_883512" data-name="Trazado 883512" d="M-3150.711-9674.117v59.648" transform="translate(3787.287 11871.752)" fill="none" stroke="#000" stroke-width="2"/>
    <path id="Trazado_883517" data-name="Trazado 883517" d="M-3150.711-9674.117v59.648" transform="translate(4029.287 11871.752)" fill="none" stroke="#000" stroke-width="2"/>
    <path id="Trazado_883513" data-name="Trazado 883513" d="M-3150.711-9674.117v59.648" transform="translate(3821.287 11871.752)" fill="none" stroke="#000" stroke-width="2"/>
    <path id="Trazado_883518" data-name="Trazado 883518" d="M-3150.711-9674.117v59.648" transform="translate(4063.287 11871.752)" fill="none" stroke="#000" stroke-width="2"/>
    <path id="Trazado_883514" data-name="Trazado 883514" d="M-3150.711-9674.117v59.648" transform="translate(3860.287 11871.752)" fill="none" stroke="#000" stroke-width="2"/>
    <path id="Trazado_883519" data-name="Trazado 883519" d="M-3150.711-9674.117v59.648" transform="translate(4102.287 11871.752)" fill="none" stroke="#000" stroke-width="2"/>
    <path id="Trazado_883520" data-name="Trazado 883520" d="M-2949.87-9649.577l-71.74,47.82" transform="translate(3714.287 11871.752)" fill="none" stroke="#000" stroke-width="2"/>
    <path id="Trazado_883990" data-name="Trazado 883990" d="M12.891,16.027a8.147,8.147,0,0,1-1.553,5.332,5.366,5.366,0,0,1-4.377,1.875,5.4,5.4,0,0,1-4.406-1.887A8.135,8.135,0,0,1,1,16.027V12.91A8.147,8.147,0,0,1,2.549,7.578,5.379,5.379,0,0,1,6.938,5.7,5.381,5.381,0,0,1,11.332,7.59a8.155,8.155,0,0,1,1.559,5.332ZM8.941,12.406a6.085,6.085,0,0,0-.48-2.748A1.606,1.606,0,0,0,6.938,8.75a1.568,1.568,0,0,0-1.482.844,5.733,5.733,0,0,0-.5,2.555v4.359a6.131,6.131,0,0,0,.48,2.795,1.612,1.612,0,0,0,1.523.885,1.59,1.59,0,0,0,1.488-.861,5.853,5.853,0,0,0,.492-2.7Z" transform="translate(770.056 2225.765)" fill="#12263f"/>
    <path id="Trazado_883991" data-name="Trazado 883991" d="M15.738,14.82a10.062,10.062,0,0,1-.926,4.418A6.842,6.842,0,0,1,12.182,22.2,7.326,7.326,0,0,1,8.3,23.234a7.429,7.429,0,0,1-3.867-1A6.831,6.831,0,0,1,1.8,19.367a9.772,9.772,0,0,1-.99-4.277v-.961a10.106,10.106,0,0,1,.92-4.424A6.825,6.825,0,0,1,4.365,6.746,7.377,7.377,0,0,1,8.273,5.7a7.3,7.3,0,0,1,3.867,1.031A6.948,6.948,0,0,1,14.783,9.67a9.816,9.816,0,0,1,.955,4.365Zm-4.184-.715a7.175,7.175,0,0,0-.85-3.861A2.725,2.725,0,0,0,8.273,8.926Q5.18,8.926,5,13.566L4.992,14.82a7.379,7.379,0,0,0,.832,3.855A2.721,2.721,0,0,0,8.3,20.023,2.688,2.688,0,0,0,10.7,18.7a7.178,7.178,0,0,0,.855-3.809Zm13.793-.211-1.3-.094a2.336,2.336,0,0,0-2.391,1.172V23H17.707V10.32h3.7l.129,1.629a3.058,3.058,0,0,1,2.777-1.863,3.851,3.851,0,0,1,1.1.141ZM30.938,23H26.977V10.32h3.961Zm-4.2-15.961a1.778,1.778,0,0,1,.609-1.391,2.579,2.579,0,0,1,3.164,0,1.778,1.778,0,0,1,.609,1.391,1.778,1.778,0,0,1-.609,1.391,2.579,2.579,0,0,1-3.164,0A1.778,1.778,0,0,1,26.742,7.039Zm6.164,9.527a8.561,8.561,0,0,1,.633-3.4,5.094,5.094,0,0,1,1.816-2.279,4.788,4.788,0,0,1,2.754-.8A3.807,3.807,0,0,1,41.2,11.422l.141-1.1H44.93v12.2a5.346,5.346,0,0,1-.779,2.912,5,5,0,0,1-2.256,1.9,8.292,8.292,0,0,1-3.422.662,7.153,7.153,0,0,1-2.7-.527,4.876,4.876,0,0,1-2-1.371l1.652-2.32a3.621,3.621,0,0,0,2.906,1.3q2.625,0,2.625-2.7v-.4a3.708,3.708,0,0,1-2.871,1.254,4.583,4.583,0,0,1-3.75-1.775,7.356,7.356,0,0,1-1.43-4.752Zm3.961.246a4.511,4.511,0,0,0,.586,2.467,1.849,1.849,0,0,0,1.641.908,2.1,2.1,0,0,0,1.863-.855V14a2.045,2.045,0,0,0-1.84-.867,1.861,1.861,0,0,0-1.652.943A5.144,5.144,0,0,0,36.867,16.813Zm16.441,6.422a6.518,6.518,0,0,1-4.723-1.74,6.009,6.009,0,0,1-1.8-4.529v-.328A7.787,7.787,0,0,1,47.5,13.2a5.274,5.274,0,0,1,2.1-2.3,6.35,6.35,0,0,1,3.281-.814,5.489,5.489,0,0,1,4.219,1.658,6.516,6.516,0,0,1,1.547,4.623V17.9H50.8a2.846,2.846,0,0,0,.926,1.676,2.755,2.755,0,0,0,1.852.609,3.549,3.549,0,0,0,2.93-1.312l1.8,2.133a5.045,5.045,0,0,1-2.092,1.623A7.069,7.069,0,0,1,53.309,23.234Zm-.445-10.1q-1.734,0-2.062,2.3h3.984v-.3a1.956,1.956,0,0,0-.48-1.471A1.912,1.912,0,0,0,52.863,13.133Zm11-2.812L64,11.809a4.3,4.3,0,0,1,3.621-1.723,3.618,3.618,0,0,1,2.959,1.184,5.635,5.635,0,0,1,1.014,3.563V23H67.629V15a2.14,2.14,0,0,0-.387-1.412,1.789,1.789,0,0,0-1.406-.451,1.883,1.883,0,0,0-1.723.914V23H60.164V10.32Z" transform="translate(610.711 2264.765)" fill="#12263f"/>
    <path id="Trazado_883992" data-name="Trazado 883992" d="M20.125,22.3a8.308,8.308,0,0,1-1.281,4.2,7.733,7.733,0,0,1-3.289,2.82,11.2,11.2,0,0,1-4.836,1,8.934,8.934,0,0,1-7.062-2.922q-2.578-2.922-2.578-8.25V18.016a13.771,13.771,0,0,1,1.164-5.852A8.82,8.82,0,0,1,5.594,8.289a9.351,9.351,0,0,1,5.063-1.367A9.806,9.806,0,0,1,17.313,9.1a8.612,8.612,0,0,1,2.859,6.008H14.7a4.075,4.075,0,0,0-1.047-2.984,4.306,4.306,0,0,0-3-.906,3.276,3.276,0,0,0-3,1.531,9.841,9.841,0,0,0-1,4.891V19.25a10.89,10.89,0,0,0,.914,5.2,3.345,3.345,0,0,0,3.148,1.563,4.211,4.211,0,0,0,2.891-.891A3.78,3.78,0,0,0,14.672,22.3Zm12.422,5.875a5.429,5.429,0,0,1-4.516,2.141A5.324,5.324,0,0,1,23.82,28.7a6.8,6.8,0,0,1-1.43-4.648V13.094h5.266V24.078a1.893,1.893,0,0,0,2.109,2.172,2.752,2.752,0,0,0,2.578-1.3V13.094h5.3V30H32.7ZM50.047,30a5.945,5.945,0,0,1-.5-1.516,4.9,4.9,0,0,1-4.062,1.828,6,6,0,0,1-4.062-1.445,4.6,4.6,0,0,1-1.672-3.633,4.728,4.728,0,0,1,2.031-4.156,10.348,10.348,0,0,1,5.906-1.406h1.625v-.9q0-2.339-2.016-2.339a1.648,1.648,0,0,0-1.875,1.853H40.156a4.72,4.72,0,0,1,2.086-3.98,8.766,8.766,0,0,1,5.32-1.529,7.686,7.686,0,0,1,5.109,1.578,5.487,5.487,0,0,1,1.922,4.328v7.484a7.665,7.665,0,0,0,.719,3.563V30Zm-3.3-3.437a2.937,2.937,0,0,0,1.633-.422,2.644,2.644,0,0,0,.93-.953v-2.7H47.781q-2.75,0-2.75,2.469a1.507,1.507,0,0,0,.484,1.164A1.753,1.753,0,0,0,46.75,26.563Zm10.094-5.141a10.327,10.327,0,0,1,1.734-6.328,5.709,5.709,0,0,1,4.844-2.312,4.855,4.855,0,0,1,3.813,1.781V6h5.281V30H67.781l-.266-1.812a4.986,4.986,0,0,1-4.125,2.125A5.7,5.7,0,0,1,58.609,28,10.655,10.655,0,0,1,56.844,21.422Zm5.266.328q0,4.5,2.625,4.5a2.592,2.592,0,0,0,2.5-1.469V18.344a2.522,2.522,0,0,0-2.469-1.5q-2.437,0-2.641,3.938Zm23.625-3.891L84,17.734q-2.484,0-3.187,1.563V30H75.547V13.094h4.938l.172,2.172a4.077,4.077,0,0,1,3.7-2.484,5.135,5.135,0,0,1,1.469.188ZM96.688,30a5.946,5.946,0,0,1-.5-1.516,4.9,4.9,0,0,1-4.062,1.828,6,6,0,0,1-4.062-1.445,4.6,4.6,0,0,1-1.672-3.633,4.728,4.728,0,0,1,2.031-4.156,10.348,10.348,0,0,1,5.906-1.406h1.625v-.9q0-2.339-2.016-2.339a1.648,1.648,0,0,0-1.875,1.853H86.8a4.72,4.72,0,0,1,2.086-3.98,8.766,8.766,0,0,1,5.32-1.529,7.686,7.686,0,0,1,5.109,1.578,5.487,5.487,0,0,1,1.922,4.328v7.484a7.665,7.665,0,0,0,.719,3.563V30Zm-3.3-3.437a2.937,2.937,0,0,0,1.633-.422,2.644,2.644,0,0,0,.93-.953v-2.7H94.422q-2.75,0-2.75,2.469a1.507,1.507,0,0,0,.484,1.164A1.753,1.753,0,0,0,93.391,26.563Zm15.594-13.469.172,1.984a5.733,5.733,0,0,1,4.828-2.3,4.823,4.823,0,0,1,3.945,1.578,7.513,7.513,0,0,1,1.352,4.75V30H114V19.328a2.853,2.853,0,0,0-.516-1.883,2.385,2.385,0,0,0-1.875-.6,2.511,2.511,0,0,0-2.3,1.219V30h-5.266V13.094Zm19.344-4.2v4.2h2.781V16.75h-2.781v7.734a1.975,1.975,0,0,0,.344,1.328,1.844,1.844,0,0,0,1.359.375,7.725,7.725,0,0,0,1.313-.094v3.766a9.718,9.718,0,0,1-2.969.453,5.516,5.516,0,0,1-4.016-1.281,5.252,5.252,0,0,1-1.3-3.891V16.75h-2.156V13.094h2.156v-4.2Zm13.031,21.422a8.691,8.691,0,0,1-6.3-2.32,8.013,8.013,0,0,1-2.406-6.039v-.437a10.383,10.383,0,0,1,.961-4.578,7.031,7.031,0,0,1,2.8-3.07,8.467,8.467,0,0,1,4.375-1.086,7.318,7.318,0,0,1,5.625,2.211,8.688,8.688,0,0,1,2.063,6.164V23.2H138.016a3.8,3.8,0,0,0,1.234,2.234,3.673,3.673,0,0,0,2.469.813,4.732,4.732,0,0,0,3.906-1.75l2.406,2.844a6.726,6.726,0,0,1-2.789,2.164A9.425,9.425,0,0,1,141.359,30.313Zm-.594-13.469q-2.313,0-2.75,3.063h5.313V19.5a2.608,2.608,0,0,0-.641-1.961A2.549,2.549,0,0,0,140.766,16.844ZM164.656,30h-5.469V7.25h5.469Zm9.656,0h-5.469V7.25h5.469Zm9.656,0H178.5V7.25h5.469Z" transform="translate(464.711 2331.765)" fill="#12263f"/>
    <path id="Trazado_883993" data-name="Trazado 883993" d="M20.125,22.3a8.308,8.308,0,0,1-1.281,4.2,7.733,7.733,0,0,1-3.289,2.82,11.2,11.2,0,0,1-4.836,1,8.934,8.934,0,0,1-7.062-2.922q-2.578-2.922-2.578-8.25V18.016a13.771,13.771,0,0,1,1.164-5.852A8.82,8.82,0,0,1,5.594,8.289a9.351,9.351,0,0,1,5.063-1.367A9.806,9.806,0,0,1,17.313,9.1a8.612,8.612,0,0,1,2.859,6.008H14.7a4.075,4.075,0,0,0-1.047-2.984,4.306,4.306,0,0,0-3-.906,3.276,3.276,0,0,0-3,1.531,9.841,9.841,0,0,0-1,4.891V19.25a10.89,10.89,0,0,0,.914,5.2,3.345,3.345,0,0,0,3.148,1.563,4.211,4.211,0,0,0,2.891-.891A3.78,3.78,0,0,0,14.672,22.3Zm12.422,5.875a5.429,5.429,0,0,1-4.516,2.141A5.324,5.324,0,0,1,23.82,28.7a6.8,6.8,0,0,1-1.43-4.648V13.094h5.266V24.078a1.893,1.893,0,0,0,2.109,2.172,2.752,2.752,0,0,0,2.578-1.3V13.094h5.3V30H32.7ZM50.047,30a5.945,5.945,0,0,1-.5-1.516,4.9,4.9,0,0,1-4.062,1.828,6,6,0,0,1-4.062-1.445,4.6,4.6,0,0,1-1.672-3.633,4.728,4.728,0,0,1,2.031-4.156,10.348,10.348,0,0,1,5.906-1.406h1.625v-.9q0-2.339-2.016-2.339a1.648,1.648,0,0,0-1.875,1.853H40.156a4.72,4.72,0,0,1,2.086-3.98,8.766,8.766,0,0,1,5.32-1.529,7.686,7.686,0,0,1,5.109,1.578,5.487,5.487,0,0,1,1.922,4.328v7.484a7.665,7.665,0,0,0,.719,3.563V30Zm-3.3-3.437a2.937,2.937,0,0,0,1.633-.422,2.644,2.644,0,0,0,.93-.953v-2.7H47.781q-2.75,0-2.75,2.469a1.507,1.507,0,0,0,.484,1.164A1.753,1.753,0,0,0,46.75,26.563Zm10.094-5.141a10.327,10.327,0,0,1,1.734-6.328,5.709,5.709,0,0,1,4.844-2.312,4.855,4.855,0,0,1,3.813,1.781V6h5.281V30H67.781l-.266-1.812a4.986,4.986,0,0,1-4.125,2.125A5.7,5.7,0,0,1,58.609,28,10.655,10.655,0,0,1,56.844,21.422Zm5.266.328q0,4.5,2.625,4.5a2.592,2.592,0,0,0,2.5-1.469V18.344a2.522,2.522,0,0,0-2.469-1.5q-2.437,0-2.641,3.938Zm23.625-3.891L84,17.734q-2.484,0-3.187,1.563V30H75.547V13.094h4.938l.172,2.172a4.077,4.077,0,0,1,3.7-2.484,5.135,5.135,0,0,1,1.469.188ZM96.688,30a5.946,5.946,0,0,1-.5-1.516,4.9,4.9,0,0,1-4.062,1.828,6,6,0,0,1-4.062-1.445,4.6,4.6,0,0,1-1.672-3.633,4.728,4.728,0,0,1,2.031-4.156,10.348,10.348,0,0,1,5.906-1.406h1.625v-.9q0-2.339-2.016-2.339a1.648,1.648,0,0,0-1.875,1.853H86.8a4.72,4.72,0,0,1,2.086-3.98,8.766,8.766,0,0,1,5.32-1.529,7.686,7.686,0,0,1,5.109,1.578,5.487,5.487,0,0,1,1.922,4.328v7.484a7.665,7.665,0,0,0,.719,3.563V30Zm-3.3-3.437a2.937,2.937,0,0,0,1.633-.422,2.644,2.644,0,0,0,.93-.953v-2.7H94.422q-2.75,0-2.75,2.469a1.507,1.507,0,0,0,.484,1.164A1.753,1.753,0,0,0,93.391,26.563Zm15.594-13.469.172,1.984a5.733,5.733,0,0,1,4.828-2.3,4.823,4.823,0,0,1,3.945,1.578,7.513,7.513,0,0,1,1.352,4.75V30H114V19.328a2.853,2.853,0,0,0-.516-1.883,2.385,2.385,0,0,0-1.875-.6,2.511,2.511,0,0,0-2.3,1.219V30h-5.266V13.094Zm19.344-4.2v4.2h2.781V16.75h-2.781v7.734a1.975,1.975,0,0,0,.344,1.328,1.844,1.844,0,0,0,1.359.375,7.725,7.725,0,0,0,1.313-.094v3.766a9.718,9.718,0,0,1-2.969.453,5.516,5.516,0,0,1-4.016-1.281,5.252,5.252,0,0,1-1.3-3.891V16.75h-2.156V13.094h2.156v-4.2Zm13.031,21.422a8.691,8.691,0,0,1-6.3-2.32,8.013,8.013,0,0,1-2.406-6.039v-.437a10.383,10.383,0,0,1,.961-4.578,7.031,7.031,0,0,1,2.8-3.07,8.467,8.467,0,0,1,4.375-1.086,7.318,7.318,0,0,1,5.625,2.211,8.688,8.688,0,0,1,2.063,6.164V23.2H138.016a3.8,3.8,0,0,0,1.234,2.234,3.673,3.673,0,0,0,2.469.813,4.732,4.732,0,0,0,3.906-1.75l2.406,2.844a6.726,6.726,0,0,1-2.789,2.164A9.425,9.425,0,0,1,141.359,30.313Zm-.594-13.469q-2.313,0-2.75,3.063h5.313V19.5a2.608,2.608,0,0,0-.641-1.961A2.549,2.549,0,0,0,140.766,16.844ZM164.656,30h-5.469V7.25h5.469Zm9.656,0h-5.469V7.25h5.469Z" transform="translate(464.711 2060.933)" fill="#12263f"/>
    <path id="Trazado_883994" data-name="Trazado 883994" d="M20.125,22.3a8.308,8.308,0,0,1-1.281,4.2,7.733,7.733,0,0,1-3.289,2.82,11.2,11.2,0,0,1-4.836,1,8.934,8.934,0,0,1-7.062-2.922q-2.578-2.922-2.578-8.25V18.016a13.771,13.771,0,0,1,1.164-5.852A8.82,8.82,0,0,1,5.594,8.289a9.351,9.351,0,0,1,5.063-1.367A9.806,9.806,0,0,1,17.313,9.1a8.612,8.612,0,0,1,2.859,6.008H14.7a4.075,4.075,0,0,0-1.047-2.984,4.306,4.306,0,0,0-3-.906,3.276,3.276,0,0,0-3,1.531,9.841,9.841,0,0,0-1,4.891V19.25a10.89,10.89,0,0,0,.914,5.2,3.345,3.345,0,0,0,3.148,1.563,4.211,4.211,0,0,0,2.891-.891A3.78,3.78,0,0,0,14.672,22.3Zm12.422,5.875a5.429,5.429,0,0,1-4.516,2.141A5.324,5.324,0,0,1,23.82,28.7a6.8,6.8,0,0,1-1.43-4.648V13.094h5.266V24.078a1.893,1.893,0,0,0,2.109,2.172,2.752,2.752,0,0,0,2.578-1.3V13.094h5.3V30H32.7ZM50.047,30a5.945,5.945,0,0,1-.5-1.516,4.9,4.9,0,0,1-4.062,1.828,6,6,0,0,1-4.062-1.445,4.6,4.6,0,0,1-1.672-3.633,4.728,4.728,0,0,1,2.031-4.156,10.348,10.348,0,0,1,5.906-1.406h1.625v-.9q0-2.339-2.016-2.339a1.648,1.648,0,0,0-1.875,1.853H40.156a4.72,4.72,0,0,1,2.086-3.98,8.766,8.766,0,0,1,5.32-1.529,7.686,7.686,0,0,1,5.109,1.578,5.487,5.487,0,0,1,1.922,4.328v7.484a7.665,7.665,0,0,0,.719,3.563V30Zm-3.3-3.437a2.937,2.937,0,0,0,1.633-.422,2.644,2.644,0,0,0,.93-.953v-2.7H47.781q-2.75,0-2.75,2.469a1.507,1.507,0,0,0,.484,1.164A1.753,1.753,0,0,0,46.75,26.563Zm10.094-5.141a10.327,10.327,0,0,1,1.734-6.328,5.709,5.709,0,0,1,4.844-2.312,4.855,4.855,0,0,1,3.813,1.781V6h5.281V30H67.781l-.266-1.812a4.986,4.986,0,0,1-4.125,2.125A5.7,5.7,0,0,1,58.609,28,10.655,10.655,0,0,1,56.844,21.422Zm5.266.328q0,4.5,2.625,4.5a2.592,2.592,0,0,0,2.5-1.469V18.344a2.522,2.522,0,0,0-2.469-1.5q-2.437,0-2.641,3.938Zm23.625-3.891L84,17.734q-2.484,0-3.187,1.563V30H75.547V13.094h4.938l.172,2.172a4.077,4.077,0,0,1,3.7-2.484,5.135,5.135,0,0,1,1.469.188ZM96.688,30a5.946,5.946,0,0,1-.5-1.516,4.9,4.9,0,0,1-4.062,1.828,6,6,0,0,1-4.062-1.445,4.6,4.6,0,0,1-1.672-3.633,4.728,4.728,0,0,1,2.031-4.156,10.348,10.348,0,0,1,5.906-1.406h1.625v-.9q0-2.339-2.016-2.339a1.648,1.648,0,0,0-1.875,1.853H86.8a4.72,4.72,0,0,1,2.086-3.98,8.766,8.766,0,0,1,5.32-1.529,7.686,7.686,0,0,1,5.109,1.578,5.487,5.487,0,0,1,1.922,4.328v7.484a7.665,7.665,0,0,0,.719,3.563V30Zm-3.3-3.437a2.937,2.937,0,0,0,1.633-.422,2.644,2.644,0,0,0,.93-.953v-2.7H94.422q-2.75,0-2.75,2.469a1.507,1.507,0,0,0,.484,1.164A1.753,1.753,0,0,0,93.391,26.563Zm15.594-13.469.172,1.984a5.733,5.733,0,0,1,4.828-2.3,4.823,4.823,0,0,1,3.945,1.578,7.513,7.513,0,0,1,1.352,4.75V30H114V19.328a2.853,2.853,0,0,0-.516-1.883,2.385,2.385,0,0,0-1.875-.6,2.511,2.511,0,0,0-2.3,1.219V30h-5.266V13.094Zm19.344-4.2v4.2h2.781V16.75h-2.781v7.734a1.975,1.975,0,0,0,.344,1.328,1.844,1.844,0,0,0,1.359.375,7.725,7.725,0,0,0,1.313-.094v3.766a9.718,9.718,0,0,1-2.969.453,5.516,5.516,0,0,1-4.016-1.281,5.252,5.252,0,0,1-1.3-3.891V16.75h-2.156V13.094h2.156v-4.2Zm13.031,21.422a8.691,8.691,0,0,1-6.3-2.32,8.013,8.013,0,0,1-2.406-6.039v-.437a10.383,10.383,0,0,1,.961-4.578,7.031,7.031,0,0,1,2.8-3.07,8.467,8.467,0,0,1,4.375-1.086,7.318,7.318,0,0,1,5.625,2.211,8.688,8.688,0,0,1,2.063,6.164V23.2H138.016a3.8,3.8,0,0,0,1.234,2.234,3.673,3.673,0,0,0,2.469.813,4.732,4.732,0,0,0,3.906-1.75l2.406,2.844a6.726,6.726,0,0,1-2.789,2.164A9.425,9.425,0,0,1,141.359,30.313Zm-.594-13.469q-2.313,0-2.75,3.063h5.313V19.5a2.608,2.608,0,0,0-.641-1.961A2.549,2.549,0,0,0,140.766,16.844ZM164.656,30h-5.469V7.25h5.469ZM177.3,23.813,181.828,7.25h6.125L180.3,30h-6L166.7,7.25h6.078Z" transform="translate(872.847 2331.765)" fill="#12263f"/>
    <path id="Trazado_883995" data-name="Trazado 883995" d="M20.125,22.3a8.308,8.308,0,0,1-1.281,4.2,7.733,7.733,0,0,1-3.289,2.82,11.2,11.2,0,0,1-4.836,1,8.934,8.934,0,0,1-7.062-2.922q-2.578-2.922-2.578-8.25V18.016a13.771,13.771,0,0,1,1.164-5.852A8.82,8.82,0,0,1,5.594,8.289a9.351,9.351,0,0,1,5.063-1.367A9.806,9.806,0,0,1,17.313,9.1a8.612,8.612,0,0,1,2.859,6.008H14.7a4.075,4.075,0,0,0-1.047-2.984,4.306,4.306,0,0,0-3-.906,3.276,3.276,0,0,0-3,1.531,9.841,9.841,0,0,0-1,4.891V19.25a10.89,10.89,0,0,0,.914,5.2,3.345,3.345,0,0,0,3.148,1.563,4.211,4.211,0,0,0,2.891-.891A3.78,3.78,0,0,0,14.672,22.3Zm12.422,5.875a5.429,5.429,0,0,1-4.516,2.141A5.324,5.324,0,0,1,23.82,28.7a6.8,6.8,0,0,1-1.43-4.648V13.094h5.266V24.078a1.893,1.893,0,0,0,2.109,2.172,2.752,2.752,0,0,0,2.578-1.3V13.094h5.3V30H32.7ZM50.047,30a5.945,5.945,0,0,1-.5-1.516,4.9,4.9,0,0,1-4.062,1.828,6,6,0,0,1-4.062-1.445,4.6,4.6,0,0,1-1.672-3.633,4.728,4.728,0,0,1,2.031-4.156,10.348,10.348,0,0,1,5.906-1.406h1.625v-.9q0-2.339-2.016-2.339a1.648,1.648,0,0,0-1.875,1.853H40.156a4.72,4.72,0,0,1,2.086-3.98,8.766,8.766,0,0,1,5.32-1.529,7.686,7.686,0,0,1,5.109,1.578,5.487,5.487,0,0,1,1.922,4.328v7.484a7.665,7.665,0,0,0,.719,3.563V30Zm-3.3-3.437a2.937,2.937,0,0,0,1.633-.422,2.644,2.644,0,0,0,.93-.953v-2.7H47.781q-2.75,0-2.75,2.469a1.507,1.507,0,0,0,.484,1.164A1.753,1.753,0,0,0,46.75,26.563Zm10.094-5.141a10.327,10.327,0,0,1,1.734-6.328,5.709,5.709,0,0,1,4.844-2.312,4.855,4.855,0,0,1,3.813,1.781V6h5.281V30H67.781l-.266-1.812a4.986,4.986,0,0,1-4.125,2.125A5.7,5.7,0,0,1,58.609,28,10.655,10.655,0,0,1,56.844,21.422Zm5.266.328q0,4.5,2.625,4.5a2.592,2.592,0,0,0,2.5-1.469V18.344a2.522,2.522,0,0,0-2.469-1.5q-2.437,0-2.641,3.938Zm23.625-3.891L84,17.734q-2.484,0-3.187,1.563V30H75.547V13.094h4.938l.172,2.172a4.077,4.077,0,0,1,3.7-2.484,5.135,5.135,0,0,1,1.469.188ZM96.688,30a5.946,5.946,0,0,1-.5-1.516,4.9,4.9,0,0,1-4.062,1.828,6,6,0,0,1-4.062-1.445,4.6,4.6,0,0,1-1.672-3.633,4.728,4.728,0,0,1,2.031-4.156,10.348,10.348,0,0,1,5.906-1.406h1.625v-.9q0-2.339-2.016-2.339a1.648,1.648,0,0,0-1.875,1.853H86.8a4.72,4.72,0,0,1,2.086-3.98,8.766,8.766,0,0,1,5.32-1.529,7.686,7.686,0,0,1,5.109,1.578,5.487,5.487,0,0,1,1.922,4.328v7.484a7.665,7.665,0,0,0,.719,3.563V30Zm-3.3-3.437a2.937,2.937,0,0,0,1.633-.422,2.644,2.644,0,0,0,.93-.953v-2.7H94.422q-2.75,0-2.75,2.469a1.507,1.507,0,0,0,.484,1.164A1.753,1.753,0,0,0,93.391,26.563Zm15.594-13.469.172,1.984a5.733,5.733,0,0,1,4.828-2.3,4.823,4.823,0,0,1,3.945,1.578,7.513,7.513,0,0,1,1.352,4.75V30H114V19.328a2.853,2.853,0,0,0-.516-1.883,2.385,2.385,0,0,0-1.875-.6,2.511,2.511,0,0,0-2.3,1.219V30h-5.266V13.094Zm19.344-4.2v4.2h2.781V16.75h-2.781v7.734a1.975,1.975,0,0,0,.344,1.328,1.844,1.844,0,0,0,1.359.375,7.725,7.725,0,0,0,1.313-.094v3.766a9.718,9.718,0,0,1-2.969.453,5.516,5.516,0,0,1-4.016-1.281,5.252,5.252,0,0,1-1.3-3.891V16.75h-2.156V13.094h2.156v-4.2Zm13.031,21.422a8.691,8.691,0,0,1-6.3-2.32,8.013,8.013,0,0,1-2.406-6.039v-.437a10.383,10.383,0,0,1,.961-4.578,7.031,7.031,0,0,1,2.8-3.07,8.467,8.467,0,0,1,4.375-1.086,7.318,7.318,0,0,1,5.625,2.211,8.688,8.688,0,0,1,2.063,6.164V23.2H138.016a3.8,3.8,0,0,0,1.234,2.234,3.673,3.673,0,0,0,2.469.813,4.732,4.732,0,0,0,3.906-1.75l2.406,2.844a6.726,6.726,0,0,1-2.789,2.164A9.425,9.425,0,0,1,141.359,30.313Zm-.594-13.469q-2.313,0-2.75,3.063h5.313V19.5a2.608,2.608,0,0,0-.641-1.961A2.549,2.549,0,0,0,140.766,16.844ZM164.656,30h-5.469V7.25h5.469Z" transform="translate(872.847 2060.933)" fill="#12263f"/>
    <path id="Trazado_883996" data-name="Trazado 883996" d="M15.828,20.344H7.2v5.438H17.391V30H1.719V7.25h15.7v4.234H7.2v4.8h8.625Zm9.219-7.25V30.578A6.137,6.137,0,0,1,23.328,35.2a6.6,6.6,0,0,1-4.75,1.625,11.214,11.214,0,0,1-2.484-.266V32.578a10.075,10.075,0,0,0,1.484.141,1.927,1.927,0,0,0,2.188-2.172V13.094ZM19.375,8.719a2.371,2.371,0,0,1,.813-1.855A3.054,3.054,0,0,1,22.3,6.141a3.054,3.054,0,0,1,2.109.723,2.371,2.371,0,0,1,.813,1.855,2.371,2.371,0,0,1-.812,1.855A3.054,3.054,0,0,1,22.3,11.3a3.054,3.054,0,0,1-2.109-.723A2.371,2.371,0,0,1,19.375,8.719ZM36.2,30.313a8.691,8.691,0,0,1-6.3-2.32A8.013,8.013,0,0,1,27.5,21.953v-.437a10.383,10.383,0,0,1,.961-4.578,7.031,7.031,0,0,1,2.8-3.07,8.467,8.467,0,0,1,4.375-1.086,7.318,7.318,0,0,1,5.625,2.211,8.688,8.688,0,0,1,2.063,6.164V23.2H32.859a3.8,3.8,0,0,0,1.234,2.234,3.673,3.673,0,0,0,2.469.813,4.732,4.732,0,0,0,3.906-1.75l2.406,2.844a6.726,6.726,0,0,1-2.789,2.164A9.425,9.425,0,0,1,36.2,30.313Zm-.594-13.469q-2.313,0-2.75,3.063h5.313V19.5a2.608,2.608,0,0,0-.641-1.961A2.549,2.549,0,0,0,35.609,16.844ZM52.75,21.422a10.327,10.327,0,0,1,1.734-6.328,5.709,5.709,0,0,1,4.844-2.312,4.855,4.855,0,0,1,3.813,1.781V6h5.281V30H63.688l-.266-1.812A4.986,4.986,0,0,1,59.3,30.313,5.7,5.7,0,0,1,54.516,28,10.655,10.655,0,0,1,52.75,21.422Zm5.266.328q0,4.5,2.625,4.5a2.592,2.592,0,0,0,2.5-1.469V18.344a2.522,2.522,0,0,0-2.469-1.5q-2.437,0-2.641,3.938Zm21.578,8.563a8.691,8.691,0,0,1-6.3-2.32,8.013,8.013,0,0,1-2.406-6.039v-.437a10.383,10.383,0,0,1,.961-4.578,7.031,7.031,0,0,1,2.8-3.07,8.467,8.467,0,0,1,4.375-1.086,7.318,7.318,0,0,1,5.625,2.211,8.688,8.688,0,0,1,2.063,6.164V23.2H76.25a3.8,3.8,0,0,0,1.234,2.234,3.673,3.673,0,0,0,2.469.813,4.732,4.732,0,0,0,3.906-1.75l2.406,2.844a6.726,6.726,0,0,1-2.789,2.164A9.425,9.425,0,0,1,79.594,30.313ZM79,16.844q-2.312,0-2.75,3.063h5.313V19.5a2.608,2.608,0,0,0-.641-1.961A2.549,2.549,0,0,0,79,16.844Zm26.375.281,4.188-9.875h5.922l-7.328,14.578V30h-5.562V21.828L95.281,7.25h5.891Z" transform="translate(790.97 2409.201)" fill="#12263f"/>
    <path id="Trazado_883997" data-name="Trazado 883997" d="M15.828,20.344H7.2v5.438H17.391V30H1.719V7.25h15.7v4.234H7.2v4.8h8.625Zm9.219-7.25V30.578A6.137,6.137,0,0,1,23.328,35.2a6.6,6.6,0,0,1-4.75,1.625,11.214,11.214,0,0,1-2.484-.266V32.578a10.075,10.075,0,0,0,1.484.141,1.927,1.927,0,0,0,2.188-2.172V13.094ZM19.375,8.719a2.371,2.371,0,0,1,.813-1.855A3.054,3.054,0,0,1,22.3,6.141a3.054,3.054,0,0,1,2.109.723,2.371,2.371,0,0,1,.813,1.855,2.371,2.371,0,0,1-.812,1.855A3.054,3.054,0,0,1,22.3,11.3a3.054,3.054,0,0,1-2.109-.723A2.371,2.371,0,0,1,19.375,8.719ZM36.2,30.313a8.691,8.691,0,0,1-6.3-2.32A8.013,8.013,0,0,1,27.5,21.953v-.437a10.383,10.383,0,0,1,.961-4.578,7.031,7.031,0,0,1,2.8-3.07,8.467,8.467,0,0,1,4.375-1.086,7.318,7.318,0,0,1,5.625,2.211,8.688,8.688,0,0,1,2.063,6.164V23.2H32.859a3.8,3.8,0,0,0,1.234,2.234,3.673,3.673,0,0,0,2.469.813,4.732,4.732,0,0,0,3.906-1.75l2.406,2.844a6.726,6.726,0,0,1-2.789,2.164A9.425,9.425,0,0,1,36.2,30.313Zm-.594-13.469q-2.313,0-2.75,3.063h5.313V19.5a2.608,2.608,0,0,0-.641-1.961A2.549,2.549,0,0,0,35.609,16.844ZM52.75,21.422a10.327,10.327,0,0,1,1.734-6.328,5.709,5.709,0,0,1,4.844-2.312,4.855,4.855,0,0,1,3.813,1.781V6h5.281V30H63.688l-.266-1.812A4.986,4.986,0,0,1,59.3,30.313,5.7,5.7,0,0,1,54.516,28,10.655,10.655,0,0,1,52.75,21.422Zm5.266.328q0,4.5,2.625,4.5a2.592,2.592,0,0,0,2.5-1.469V18.344a2.522,2.522,0,0,0-2.469-1.5q-2.437,0-2.641,3.938Zm21.578,8.563a8.691,8.691,0,0,1-6.3-2.32,8.013,8.013,0,0,1-2.406-6.039v-.437a10.383,10.383,0,0,1,.961-4.578,7.031,7.031,0,0,1,2.8-3.07,8.467,8.467,0,0,1,4.375-1.086,7.318,7.318,0,0,1,5.625,2.211,8.688,8.688,0,0,1,2.063,6.164V23.2H76.25a3.8,3.8,0,0,0,1.234,2.234,3.673,3.673,0,0,0,2.469.813,4.732,4.732,0,0,0,3.906-1.75l2.406,2.844a6.726,6.726,0,0,1-2.789,2.164A9.425,9.425,0,0,1,79.594,30.313ZM79,16.844q-2.312,0-2.75,3.063h5.313V19.5a2.608,2.608,0,0,0-.641-1.961A2.549,2.549,0,0,0,79,16.844Zm26.531-2.031L109.25,7.25h6.266l-6.359,11.281L115.688,30h-6.328l-3.828-7.7L101.7,30H95.391l6.516-11.469L95.563,7.25h6.25Z" transform="translate(1010.422 2202.889)" fill="#12263f"/>
  </g>
</svg>
