<svg xmlns="http://www.w3.org/2000/svg" width="355.654" height="481.815" viewBox="0 0 355.654 481.815">
  <g id="Grupo_1105468" data-name="Grupo 1105468" transform="translate(-1020.057 -3650)">
    <path id="Trazado_883594" data-name="Trazado 883594" d="M336.2,178.741a.432.432,0,0,0-.3-.514.423.423,0,0,0-.515.3q-.279,1.857-.56,3.713a.432.432,0,0,0,.3.514.423.423,0,0,0,.515-.3q.279-1.857.56-3.713" transform="translate(997.492 3629.839)" fill="#ffe8e9"/>
    <path id="Trazado_883595" data-name="Trazado 883595" d="M334.632,187.931a.42.42,0,0,0-.812-.217q-.347,1.478-.7,2.955a.42.42,0,0,0,.812.217q.347-1.477.695-2.955" transform="translate(997.482 3629.892)" fill="#ffe8e9"/>
    <path id="Trazado_883596" data-name="Trazado 883596" d="M332.588,196.435a.42.42,0,0,0-.812-.217l-.47,2.45a.42.42,0,1,0,.812.217Z" transform="translate(997.472 3629.941)" fill="#ffe8e9"/>
    <path id="Trazado_883597" data-name="Trazado 883597" d="M331.3,203.857a.428.428,0,0,0-.3-.513.424.424,0,0,0-.515.3q-.367,1.632-.733,3.269a.428.428,0,0,0,.3.514.424.424,0,0,0,.514-.3l.733-3.269" transform="translate(997.463 3629.984)" fill="#ffe8e9"/>
    <path id="Trazado_883598" data-name="Trazado 883598" d="M329.259,212.2a.42.42,0,0,0-.812-.217q-.4,1.786-.8,3.572a.428.428,0,0,0,.3.514.424.424,0,0,0,.514-.3q.4-1.786.8-3.572" transform="translate(997.451 3630.033)" fill="#ffe8e9"/>
    <path id="Trazado_883599" data-name="Trazado 883599" d="M327.614,220.171a.43.43,0,0,0-.3-.514.425.425,0,0,0-.515.3q-.288,1.494-.578,2.988a.429.429,0,0,0,.3.514.423.423,0,0,0,.515-.3q.288-1.494.578-2.988" transform="translate(997.442 3630.079)" fill="#ffe8e9"/>
    <path id="Trazado_883600" data-name="Trazado 883600" d="M326.264,226.379a.43.43,0,0,0-.3-.514.425.425,0,0,0-.515.3q-.181,1.281-.363,2.562a.432.432,0,0,0,.3.514.424.424,0,0,0,.514-.3q.181-1.279.363-2.561" transform="translate(997.436 3630.115)" fill="#ffe8e9"/>
    <path id="Trazado_883607" data-name="Trazado 883607" d="M377.148,208.361a.42.42,0,0,1,.812.217l-.818,2.358a.42.42,0,1,1-.811-.217Z" transform="translate(997.732 3630.011)" fill="#ffe8e9"/>
    <path id="Trazado_883608" data-name="Trazado 883608" d="M374.555,215.433a.42.42,0,0,1,.812.217q-.5,1.6-1,3.2a.42.42,0,1,1-.812-.217q.5-1.6,1-3.2" transform="translate(997.717 3630.052)" fill="#ffe8e9"/>
    <path id="Trazado_883609" data-name="Trazado 883609" d="M372.159,223.684a.42.42,0,0,1,.812.217q-.545,1.747-1.088,3.5a.428.428,0,0,1-.514.3.422.422,0,0,1-.3-.514l1.087-3.5" transform="translate(997.702 3630.1)" fill="#ffe8e9"/>
    <path id="Trazado_883610" data-name="Trazado 883610" d="M369.6,231.409a.429.429,0,0,1,.514-.3.424.424,0,0,1,.3.514l-.992,2.878a.429.429,0,0,1-.514.3.423.423,0,0,1-.3-.514q.5-1.438.992-2.878" transform="translate(997.688 3630.145)" fill="#ffe8e9"/>
    <path id="Trazado_883611" data-name="Trazado 883611" d="M367.671,237.46a.43.43,0,0,1,.514-.3.424.424,0,0,1,.3.514q-.483,1.2-.965,2.4a.433.433,0,0,1-.515.3.425.425,0,0,1-.3-.515q.483-1.2.965-2.4" transform="translate(997.677 3630.18)" fill="#ffe8e9"/>
    <path id="Trazado_883613" data-name="Trazado 883613" d="M216.173,203.588a12.724,12.724,0,0,1-3.037,1.388c-6.156,2.187-12.566,4.4-19.058,3.723-7.365-.768-13.8-5.149-20.835-7.447a83.113,83.113,0,0,1,28.625-2.09c4.679.478,9.447,1.4,13.432,3.88.044-.164.1-.328.149-.492" transform="translate(996.558 3629.958)" fill="#525252"/>
    <path id="Trazado_883614" data-name="Trazado 883614" d="M217.158,221a26.774,26.774,0,0,0,6.537-2.015,10.168,10.168,0,0,0,4.784-4.559c-6.082-3.336-13.216-4.388-20.148-4.12-7.082.284-14.029,1.866-20.938,3.433,4.768,1.754,8.507,5.648,13.282,7.4,5.231,1.917,11.036,1.022,16.484-.135" transform="translate(996.64 3630.024)" fill="#525252"/>
    <path id="Trazado_883615" data-name="Trazado 883615" d="M218.534,194.775c2.717-6.955,3.052-14.655,2.134-22.058s-3.06-14.6-5.187-21.76a76.189,76.189,0,0,0-4.014,42.3,31.275,31.275,0,0,0,2.724,8.566c.343.336.694.672,1.045,1.007.843-2.776,2.246-5.343,3.3-8.051" transform="translate(996.771 3629.681)" fill="#525252"/>
    <path id="Trazado_883616" data-name="Trazado 883616" d="M198.515,183.2c-.1-.253-.194-.508-.284-.761-2.239-6.052-3.276-13.8-5.074-19.879a50.346,50.346,0,0,0-20.8-27.774,73.867,73.867,0,0,1,1.9,7.3c.731,3.583,1.2,7.216,2.022,10.776a54.576,54.576,0,0,0,10.283,21.386c3.141,3.978,7.067,7.649,11.962,8.947" transform="translate(996.553 3629.587)" fill="#525252"/>
    <path id="Trazado_883617" data-name="Trazado 883617" d="M182.7,180.4a119.608,119.608,0,0,0-22.416-2.656c4.8,2.484,9.036,5.9,13.566,8.85s9.514,5.5,14.895,5.9c4.917.373,9.857-1.582,14.544-3.12A57.082,57.082,0,0,0,182.7,180.4" transform="translate(996.482 3629.836)" fill="#525252"/>
    <path id="Trazado_883618" data-name="Trazado 883618" d="M206.458,182.068c1.866-7.589,3.208-15.417,2.485-23.192s-3.694-15.558-9.38-20.916a166.517,166.517,0,0,0,3.462,51.481.617.617,0,0,0,.09.12c1.888-2.023,2.686-4.806,3.343-7.492" transform="translate(996.706 3629.606)" fill="#525252"/>
    <path id="Trazado_883619" data-name="Trazado 883619" d="M228.487,214.512a.423.423,0,0,0,.037.09.07.07,0,0,0,.037-.03c2.567-2.067,4.09-5.193,5.157-8.328,4.4-12.946,2.283-27.505-3.649-39.818.784,6.411-1.179,12.791-2.514,19.111-2.023,9.589-2.575,19.834.932,28.976" transform="translate(996.862 3629.771)" fill="#525252"/>
    <path id="Trazado_883620" data-name="Trazado 883620" d="M194.692,177.8a154.177,154.177,0,0,0,32.986,34.6q5.4,4.131,11.151,7.772c.809.514.061,1.805-.753,1.289a155.943,155.943,0,0,1-36.338-31.93q-4.407-5.3-8.335-10.977c-.548-.792.745-1.539,1.289-.753" transform="translate(996.674 3629.834)" fill="#525252"/>
    <path id="Trazado_883621" data-name="Trazado 883621" d="M187.609,240.97a25.609,25.609,0,0,1-7.387,4.223,11.519,11.519,0,0,0,5.067.7,39.32,39.32,0,0,0,15.1-3.127,24.112,24.112,0,0,0,11.35-10.1c-1.866.149-3.747.216-5.626.194-1.769.284-3.537.627-5.3.97a23.753,23.753,0,0,0-7.007,2.141c-2.327,1.284-4.141,3.306-6.2,4.993" transform="translate(996.599 3630.154)"/>
    <path id="Trazado_883622" data-name="Trazado 883622" d="M190.082,230.018c.485.2.978.388,1.47.552.029-.037.052-.082.081-.127a.455.455,0,0,0,.1.03c-3.171-4.082-5.268-8.888-7.761-13.425-2.53-4.6-5.641-9.134-10.17-11.8,2.432,4.447,2.962,9.715,5.164,14.282a21.741,21.741,0,0,0,11.111,10.484" transform="translate(996.562 3629.996)"/>
    <path id="Trazado_883623" data-name="Trazado 883623" d="M163.19,236.678c3.843-.09,7.522,1.515,11.35,1.9a18.6,18.6,0,0,0,16.946-7.962,52.947,52.947,0,0,0-28.3,6.059" transform="translate(996.5 3630.141)"/>
    <path id="Trazado_883624" data-name="Trazado 883624" d="M152.573,191.474a10.5,10.5,0,0,1,2.56,5.962c.3,2.179.246,4.387.493,6.574a23.541,23.541,0,0,0,22.23,20.857h.007a1.345,1.345,0,0,0,.179.015A30.869,30.869,0,0,1,170.1,214.7c-1.731-3.59-3.112-7.35-5.111-10.8a34.614,34.614,0,0,0-12.417-12.431" transform="translate(996.438 3629.916)"/>
    <path id="Trazado_883625" data-name="Trazado 883625" d="M164.262,214.332c11.21,12.394,28.078,17.111,44.269,17.965,5.121.27,10.255.2,15.376-.032.961-.043.958,1.449,0,1.493-17.29.778-35.566-.468-50.59-9.934a48.382,48.382,0,0,1-10.11-8.437c-.644-.71.409-1.769,1.055-1.055" transform="translate(996.499 3630.046)"/>
    <path id="Trazado_883639" data-name="Trazado 883639" d="M278.246,159.469a107.8,107.8,0,0,0-10.306,24.556,212.9,212.9,0,0,1-3.7-39.746q.009-6.172.376-12.336c.048-.808-1.209-.8-1.256,0a214.661,214.661,0,0,0,1.927,43.936c.5,3.395,1.105,6.773,1.768,10.14a93.423,93.423,0,0,1-22.328-39.09.628.628,0,0,0-1.211.334A95.808,95.808,0,0,0,260.5,180.434a94.293,94.293,0,0,0,6.461,7.316c-.033.135-.071.268-.1.4a.63.63,0,0,0,1.14.487.661.661,0,0,0,.679-.795c-.067-.325-.124-.653-.19-.979a106.529,106.529,0,0,1,10.84-26.764.629.629,0,0,0-1.085-.635" transform="translate(996.964 3629.568)" fill="#525252"/>
    <path id="Trazado_883640" data-name="Trazado 883640" d="M285.087,150.1c.113-2.263.152-4.53.093-6.8a98.194,98.194,0,0,0-4.071-24.476.546.546,0,0,0,.276-.506,32.408,32.408,0,0,1,.75-7.717c.175-.788-1.036-1.124-1.211-.334a34.005,34.005,0,0,0-.739,5.442c-1.752-5.671-3.818-11.26-5.967-16.795-3.086-7.948-6.355-16.313-5.251-25,.1-.8-1.157-.793-1.257,0-.963,7.586,1.38,15.027,4.029,22.04,2.7,7.151,5.533,14.244,7.734,21.572a100.765,100.765,0,0,1,4.3,22.366q.18,2.722.184,5.451c-1.853-5.014-5.568-9.253-9.739-12.6-6-4.811-13.015-8.213-18.818-13.283A29.007,29.007,0,0,1,248,110.075c-.343-.731-1.426-.094-1.084.635,6.459,13.769,23.192,17.242,32.215,28.66a21.247,21.247,0,0,1,4.7,10.736,92.923,92.923,0,0,1-1.361,11.867A102.471,102.471,0,0,1,275,185.858c-.33.732.753,1.372,1.085.635a101.184,101.184,0,0,0,8.991-36.235.572.572,0,0,0,.012-.127l0-.031" transform="translate(996.983 3629.232)" fill="#525252"/>
    <path id="Trazado_883641" data-name="Trazado 883641" d="M307.865,149.443c-4.725-4.3-9.5-8.909-11.485-14.941-1.32-4.021-1.282-8.344-1.106-12.566.075-1.847.176-3.694.29-5.529a37.279,37.279,0,0,1,9.273,15.154,73.106,73.106,0,0,1,3.292,17.58Z" transform="translate(997.263 3629.481)" fill="#525252"/>
    <path id="Trazado_883642" data-name="Trazado 883642" d="M322.985,139.793a57.78,57.78,0,0,1,18.422-1.684c-6.221,2.878-10.832,8.646-17.241,11.058-5.19,1.96-10.92,1.47-16.436.905l.025-.251c3.644-5,9.285-8.306,15.23-10.028" transform="translate(997.336 3629.606)" fill="#525252"/>
    <path id="Trazado_883643" data-name="Trazado 883643" d="M312.127,118.033a72.16,72.16,0,0,1,1.42,16.613h-.2c-4.449-1.47-7.439-5.831-8.582-10.368s-.741-9.311-.327-13.985c.238-2.651.465-5.316.7-7.98a40.075,40.075,0,0,1,6.987,15.72" transform="translate(997.314 3629.4)" fill="#525252"/>
    <path id="Trazado_883644" data-name="Trazado 883644" d="M313.261,157.03a34.606,34.606,0,0,1,18.308-1.043c-5.767,3.468-10.568,8.57-16.8,11.084a23.126,23.126,0,0,1-16.625.2,34.542,34.542,0,0,1,15.117-10.241" transform="translate(997.28 3629.706)" fill="#525252"/>
    <path id="Trazado_883645" data-name="Trazado 883645" d="M324.338,133.536a30.945,30.945,0,0,1-10.833,1.445l.013-.29a9.887,9.887,0,0,1,2.69-4.888c6.457-7.263,16.1-10.87,25.6-12.892-3.632,2.475-5.241,6.961-8.055,10.355a20.743,20.743,0,0,1-9.411,6.27" transform="translate(997.369 3629.484)" fill="#525252"/>
    <path id="Trazado_883646" data-name="Trazado 883646" d="M298.42,165.069c.126.49.238.968.364,1.445a.63.63,0,0,1-.917.7,17.066,17.066,0,0,1-6.007-4.762,15.812,15.812,0,0,1-2.676-7.489c-.779-6.094.54-12.239,2.187-18.082a.656.656,0,0,1,.1-.189c.226-1.068.478-2.123.754-3.179a43.212,43.212,0,0,1,6.195,31.553" transform="translate(997.227 3629.581)" fill="#525252"/>
    <path id="Trazado_883647" data-name="Trazado 883647" d="M319.565,109.322a155.09,155.09,0,0,1-8.893,33.034,116.994,116.994,0,0,1-15.779,27.987,99.493,99.493,0,0,1-12.021,13.044c-.6.544.291,1.43.889.888a105.185,105.185,0,0,0,19.845-24.618,131.259,131.259,0,0,0,13-30.908,167.032,167.032,0,0,0,4.17-19.094c.127-.791-1.084-1.132-1.212-.334" transform="translate(997.19 3629.438)" fill="#525252"/>
    <path id="Trazado_883648" data-name="Trazado 883648" d="M257.226,182.868q-3.072-2.563-5.906-5.378c-5.14-.139-10.392-.315-15.318-1.91a21.464,21.464,0,0,1-9.764-6.157c-1.093-1.269-2.626-3.23-1.671-4.977.842-1.533,2.8-1.47,4.259-1.08a36.467,36.467,0,0,1,5.78,2.2,63.805,63.805,0,0,1,5.793,2.9,65.35,65.35,0,0,1,6.409,4.2c-.315-.339-.629-.679-.93-1.03a97.226,97.226,0,0,1-7.942-10.72h-.025c-4.813-2.086-9.7-4.058-14.463-6.3a20.893,20.893,0,0,1-9.136-7.6c-.729-1.131-2.3-3.317-1.106-4.586,1.093-1.169,3-.766,4.311-.339,3.9,1.281,6.936,4.511,9.927,7.162,2.487,2.2,4.976,4.411,7.452,6.61q-2.206-3.939-4.059-8.042c-1.093-2.45-2.073-4.951-2.953-7.477a109.928,109.928,0,0,1-13.521-7.653,39.826,39.826,0,0,1-9.676-9.2c-1.068-1.483-2.84-3.732-2.061-5.693.867-2.173,3.631-1.407,5.264-.766,4.411,1.734,7.8,5.215,10.8,8.8,2.663,3.191,5.215,6.5,7.677,9.852q-1.394-4.769-2.312-9.65a.515.515,0,0,1-.289-.365c-.012-.075-.025-.163-.037-.238a122.374,122.374,0,0,1-9.45-10.631c-2.363-3.154-4.737-7.125-4.85-11.183-.05-1.6.4-3.531,1.985-4.273,1.746-.8,3.656.377,4.95,1.5,3.192,2.777,4.449,7.036,5.642,10.945.5,1.671.968,3.342,1.4,5.026a38.929,38.929,0,0,1,.666-6.27c.741-3.77,2.312-7.678,5.165-10.355,1.181-1.105,3.066-2.438,4.788-2.187s2.148,2.074,2.086,3.556c-.188,4.385-2.173,8.633-4.122,12.478-2.123,4.185-4.385,8.294-6.585,12.428a95.252,95.252,0,0,0,2.388,9.663c.289.917.578,1.835.892,2.74l.114.151a.524.524,0,0,1,.088.44,97.426,97.426,0,0,0,9.035,19.076c.138.126.277.25.427.376a.516.516,0,0,1,.163.566c.39.616.766,1.219,1.169,1.821A95.725,95.725,0,0,0,251.9,176.258a.613.613,0,0,1,.515.528c1.835,1.8,3.719,3.543,5.693,5.19.628.515-.264,1.407-.88.892" transform="translate(996.727 3629.375)" fill="#525252"/>
    <path id="Trazado_883649" data-name="Trazado 883649" d="M276.292,156.859c.012.025.037.037.05.062l-2.438,2.25c-.226.088-.44.188-.653.289a9.284,9.284,0,0,1-2.765.05,3.937,3.937,0,0,1-3.054-2.1,4.175,4.175,0,0,1-.189-2.351,3.886,3.886,0,0,1,1.81-2.852c1.407-.741,3.191-.1,4.36.968a30.5,30.5,0,0,1,2.878,3.682" transform="translate(997.102 3629.687)" fill="#ffedee"/>
    <path id="Trazado_883650" data-name="Trazado 883650" d="M286.729,166.481a3,3,0,0,1-.729,2.564,3.329,3.329,0,0,1-1.093.7,6.24,6.24,0,0,1-2.789.491,3.015,3.015,0,0,1-2-.754,3.7,3.7,0,0,1-.867-2.111,28.281,28.281,0,0,1-.414-5.252l3.582-1.081a2.089,2.089,0,0,0,.264.063l-.025.087a11.4,11.4,0,0,1,2.941,2.815,5.768,5.768,0,0,1,1.13,2.475" transform="translate(997.169 3629.74)" fill="#ffedee"/>
    <path id="Trazado_883651" data-name="Trazado 883651" d="M270.287,121.333a22.155,22.155,0,0,1,5.919-2.715,4.965,4.965,0,0,1,3.581-.025,3.7,3.7,0,0,1,1.734,2.212,11.371,11.371,0,0,1,.39,2.852c.075,1.47.151,2.953.226,4.423a3.669,3.669,0,0,1-.189,1.7,3.263,3.263,0,0,1-2.148,1.483,14.783,14.783,0,0,1-7.44.277,12.2,12.2,0,0,1,3.406,2.375c1.608,1.684,2.463,4.323,1.4,6.4a6.5,6.5,0,0,1-2.765,2.563,13.541,13.541,0,0,1-4.649,1.546,3.9,3.9,0,0,1-2.966-.5,4.336,4.336,0,0,1-1.169-1.759q-1.658-3.713-3-7.539l-.062.025a28.238,28.238,0,0,0-2.287-5.693c-.654-1.256-1.571-2.564-2.953-2.839a4.233,4.233,0,0,0-2.777.628h-.013a10.935,10.935,0,0,1-5.24-1.37,6.438,6.438,0,0,0,.038-2.45,5.673,5.673,0,0,0-1.948-3.179,12.937,12.937,0,0,1,5.416-8.47,4.472,4.472,0,0,1,3.934-.9,5,5,0,0,1,2.3,2.388,40.027,40.027,0,0,1,3.079,6.509l.364-.075a51.819,51.819,0,0,1-1.169-8.558c-.113-2.148.114-4.7,1.948-5.831a5.282,5.282,0,0,1,4.26-.138,13.244,13.244,0,0,1,5.58,3.481,5.6,5.6,0,0,1,1.872,4.486,7.01,7.01,0,0,1-.98,2.324c-1.219,2.136-2.451,4.247-3.682,6.384" transform="translate(996.986 3629.412)" fill="#ffe8e9"/>
    <path id="Trazado_883652" data-name="Trazado 883652" d="M286.553,152.635a3.5,3.5,0,0,1,2.224-.188,2.014,2.014,0,0,1,.466.238,3.886,3.886,0,0,1,1.194,1.6,11.324,11.324,0,0,1,1.03,5.227,1.932,1.932,0,0,1-.213.955,1.745,1.745,0,0,1-.93.628c-.126.038-.251.075-.377.1a15.159,15.159,0,0,1-7.2,0,1.926,1.926,0,0,1-.264-.062l-3.582,1.08-.377-.012a20.082,20.082,0,0,1-2.286,5.918,4.211,4.211,0,0,1-1.96,1.973,3.08,3.08,0,0,1-2.463-.251,7.826,7.826,0,0,1-1.985-1.583,5.072,5.072,0,0,1-1.759-2.852,4.519,4.519,0,0,1,1.709-3.531,13.166,13.166,0,0,1,3.468-2.375c.214-.1.427-.2.654-.29l2.438-2.249c-.013-.025-.038-.038-.05-.063l.062-.05a24,24,0,0,1-1.558-6.547,4.385,4.385,0,0,1,.515-2.978A3.8,3.8,0,0,1,277.48,146c1.81-.5,4.034-.314,5.215,1.157a5.019,5.019,0,0,1,.905,3.2,9.894,9.894,0,0,1-.917,4.071,20.037,20.037,0,0,1,3.87-1.8" transform="translate(997.106 3629.651)" fill="#ffedee"/>
    <path id="Trazado_883653" data-name="Trazado 883653" d="M281.117,110.741a49.78,49.78,0,0,1,.993-22.92c.44-1.545,1.307-3.355,2.916-3.418a26.524,26.524,0,0,1,2.8,10.718,22.8,22.8,0,0,1,7.5-8.229,2.82,2.82,0,0,1,1.76-.641,2.1,2.1,0,0,1,1.709,1.921,6.208,6.208,0,0,1-.5,2.715c-.83,2.375-1.646,4.763-2.475,7.138a19.044,19.044,0,0,1,7.526-4.789c1.936-.652,4.562-.728,5.5,1.093.653,1.282.062,2.852-.729,4.072-2.086,3.243-5.391,5.491-8.758,7.362-5.592,3.1-11.9,5.454-18.246,5.09Z" transform="translate(997.177 3629.296)" fill="#f3aca1"/>
    <path id="Trazado_883654" data-name="Trazado 883654" d="M307.128,43.817a4.225,4.225,0,0,1,1.381,4.159A11.123,11.123,0,0,1,306.5,52.1a74.2,74.2,0,0,1-38.717,28.614,110.923,110.923,0,0,1-23.3-35.11,10.425,10.425,0,0,1-1.043-4.134A3.741,3.741,0,0,1,245.53,38c1.619-.653,3.417.315,4.837,1.333a45.593,45.593,0,0,1,10.14,9.952,64.061,64.061,0,0,1-2.262-20.068c.114-2.35.968-5.328,3.306-5.492,1.822-.125,3.153,1.646,4.058,3.23a121.994,121.994,0,0,1,7.011,14.2,49.162,49.162,0,0,1,3.342-16.662c.629-1.634,1.747-3.494,3.494-3.419,1.9.063,2.814,2.312,3.216,4.16a83.655,83.655,0,0,1,1.86,16.775,26.8,26.8,0,0,1,8.7-11.926c1.206-.942,2.8-1.821,4.209-1.194,1.886.83,1.835,3.519,1.37,5.53a65.186,65.186,0,0,1-6.371,16.712,18.873,18.873,0,0,1,9.852-7.514c1.6-.528,3.481-.778,4.839.2" transform="translate(996.964 3628.93)" fill="#f3aca1"/>
    <path id="Trazado_883655" data-name="Trazado 883655" d="M255.617,76.613c1.6,2.8,1.068,6.283.414,9.437a158.023,158.023,0,0,1-7.741,25.673,78.527,78.527,0,0,1-20.835-8.822c-3.518-2.148-6.986-4.687-9.022-8.281a3.364,3.364,0,0,1-.578-2.149c.3-1.784,2.676-2.174,4.462-1.96a27.512,27.512,0,0,1,13.621,5.629c-2.488-4.209-5-8.469-6.422-13.157a10.651,10.651,0,0,1-.414-5.931c.553-1.947,2.275-3.669,4.286-3.631a5.471,5.471,0,0,1,2.8,1.018,18.859,18.859,0,0,1,5.277,5.856c1.96,3.054,3.644,6.27,5.328,9.474a31.086,31.086,0,0,1,.88-11.084c.49-1.885,1.42-3.946,3.28-4.473,1.821-.5,3.719.766,4.662,2.4" transform="translate(996.815 3629.233)" fill="#f3aca1"/>
    <path id="Trazado_883656" data-name="Trazado 883656" d="M286.255,164.664c-1.809,1.508-4.083.5-5.453-1.118-.377,1.621-1.282,3.117-3.092,3.216a3.316,3.316,0,0,1-2.852-1.444,3.54,3.54,0,0,1-.289-2.916,4.786,4.786,0,0,1-3.318-.213,2.749,2.749,0,0,1-1.6-2.715c.277-2.123,2.563-2.94,4.586-2.878a7.3,7.3,0,0,1-1.144-2.249c-.377-1.232-.075-2.652,1.432-2.715a5.017,5.017,0,0,1,3.481,1.8,7.6,7.6,0,0,1,1.269,1.771,6.712,6.712,0,0,1,1.345-2.011,4.187,4.187,0,0,1,3.857-1.432,2.48,2.48,0,0,1,1.534,3.255,9.893,9.893,0,0,1-2.287,3.732,5.516,5.516,0,0,1,2.953,2.186,2.915,2.915,0,0,1-.427,3.732" transform="translate(997.115 3629.685)" fill="#fff"/>
    <path id="Trazado_883657" data-name="Trazado 883657" d="M268.652,138.8c-2.991.5-5.19-1.847-5.844-4.523a11.346,11.346,0,0,1-5.39-.289c-1.923-.59-4.21-1.773-5.127-3.669a4.611,4.611,0,0,1,.981-5.127,5.257,5.257,0,0,1,3.921-1.419,8.143,8.143,0,0,1-1.873-4.021,4.221,4.221,0,0,1,2.149-4.411,4.8,4.8,0,0,1,4.838.553,6.193,6.193,0,0,1,1.7,2.047,8.561,8.561,0,0,1,1.885-3.73,4.392,4.392,0,0,1,5.542-.754,5.669,5.669,0,0,1,2.513,5.641,8.856,8.856,0,0,1-1.96,4.424,7.291,7.291,0,0,1,5,.326,4.344,4.344,0,0,1,2.3,4.574c-.516,3.782-4.373,5.077-7.566,4.02a5.127,5.127,0,0,1,.239,3.922,4.276,4.276,0,0,1-3.3,2.437" transform="translate(997.013 3629.46)" fill="#fff"/>
    <path id="Trazado_883658" data-name="Trazado 883658" d="M251.612,145.2a50.383,50.383,0,0,1,8.922,3.091c2.777,1.37,5.478,3.544,6.057,6.585a8.219,8.219,0,0,1-.39,4.084,9.308,9.308,0,0,1-4.436,5.4,6.714,6.714,0,0,1-6.811-.339,11.121,11.121,0,0,1-2.626-3.041,109.587,109.587,0,0,1-5.931-10.179l-.05.025a29.99,29.99,0,0,1-.8,12.629c-.6,2.161-1.684,4.474-3.807,5.228a6.649,6.649,0,0,1-4.071-.164,19.253,19.253,0,0,1-3.934-1.645,6.876,6.876,0,0,1-2.563-2.187,7.08,7.08,0,0,1-.679-4.385,22.418,22.418,0,0,1,5.466-12.5c-1.923,1.445-3.582,3.23-5.579,4.574-2.212,1.483-5.127,2.35-7.515,1.181-1.947-.942-3.091-3-3.882-5.014a28.591,28.591,0,0,1-1.747-6.911c-.238-2.011-.176-4.3,1.256-5.73,1.282-1.282,3.28-1.47,5.089-1.433a30.39,30.39,0,0,1,12.881,3.2l.025-.025a28.192,28.192,0,0,1-7.6-13.923c-.377-1.746-.553-3.719.49-5.165,1.068-1.47,3.041-1.935,4.851-2.073a24.855,24.855,0,0,1,8.708.842,12.142,12.142,0,0,1,4.611,2.337,5.67,5.67,0,0,1,1.948,3.179,6.438,6.438,0,0,1-.038,2.45,19.473,19.473,0,0,1-.641,2.375q-1.471,4.562-3.079,9.073l.075.037c2.061-3.971,4.775-7.753,8.646-9.977.075-.05.163-.088.238-.138h.012a4.238,4.238,0,0,1,2.778-.629c1.382.277,2.3,1.583,2.953,2.84a28.191,28.191,0,0,1,2.286,5.692,29.384,29.384,0,0,1,.8,3.9,5.4,5.4,0,0,1-.126,2.614c-.616,1.583-2.438,2.287-4.071,2.74a46.006,46.006,0,0,1-7.715,1.382" transform="translate(996.812 3629.481)" fill="#ffedee"/>
    <path id="Trazado_883659" data-name="Trazado 883659" d="M258.122,147.5c-2.224,2.928-5.919,2.9-9.122,1.848a9.513,9.513,0,0,1,2.085,4.159,5.423,5.423,0,0,1-1.709,5.341,5.516,5.516,0,0,1-5.1,1.055,6.4,6.4,0,0,1-4.009-3.745,8.7,8.7,0,0,1-.49-3.53,8.863,8.863,0,0,1-3.015,2.6,6.707,6.707,0,0,1-5.656.3,5.292,5.292,0,0,1-3.166-4.1,6.089,6.089,0,0,1,2.212-5.127,11.6,11.6,0,0,1,4.1-2.174,11.007,11.007,0,0,1-5.215-3.783c-2.852-4.247.854-9.035,5.24-10.028a5.348,5.348,0,0,1,5.817,2.539,18.974,18.974,0,0,1,1.068,1.86,8.682,8.682,0,0,1,.491-1.659,6.943,6.943,0,0,1,4.259-4.034,5.391,5.391,0,0,1,5.165,1.307c1.646,1.62,1.457,3.958.641,5.943a21.311,21.311,0,0,1-2.249,4.009,9.509,9.509,0,0,1,4.762-.968,5.6,5.6,0,0,1,4.511,2.7,5.25,5.25,0,0,1-.616,5.479" transform="translate(996.874 3629.553)" fill="#fff"/>
    <path id="Trazado_883660" data-name="Trazado 883660" d="M243.052,142.176a1.936,1.936,0,0,0-1.723-1.159l-.5.067a1.889,1.889,0,0,0-.832.485l-.295.381a1.882,1.882,0,0,0-.257.951v.175a1.422,1.422,0,0,0,.163.726,1.69,1.69,0,0,0,1,1,1.422,1.422,0,0,0,.726.163l.5-.067a1.889,1.889,0,0,0,.832-.485q.146-.192.295-.381a1.883,1.883,0,0,0,.256-.951V142.9a1.419,1.419,0,0,0-.162-.726" transform="translate(996.94 3629.624)" fill="#7000d2"/>
    <path id="Trazado_883661" data-name="Trazado 883661" d="M240.925,148.208a1.4,1.4,0,0,0-.223-.7l-.295-.381a1.889,1.889,0,0,0-.832-.485l-.5-.067a1.868,1.868,0,0,0-.95.257l-.35.175a1.818,1.818,0,0,0-.9,1.878,1.412,1.412,0,0,0,.224.7l.295.381a1.884,1.884,0,0,0,.832.485l.5.067a1.882,1.882,0,0,0,.951-.257l.349-.175a1.412,1.412,0,0,0,.529-.485,1.69,1.69,0,0,0,.371-1.393" transform="translate(996.926 3629.656)" fill="#7000d2"/>
    <path id="Trazado_883662" data-name="Trazado 883662" d="M246.677,146.493a1.419,1.419,0,0,0-.39-.606l-.381-.295a1.869,1.869,0,0,0-.951-.257l-.5.067a1.889,1.889,0,0,0-.832.485l-.515.533a1.411,1.411,0,0,0-.389.607,1.94,1.94,0,0,0,.389,2.059l.382.295a1.869,1.869,0,0,0,.951.257l.5-.067a1.889,1.889,0,0,0,.832-.485l.514-.533a1.823,1.823,0,0,0,.39-2.059" transform="translate(996.959 3629.649)" fill="#7000d2"/>
    <path id="Trazado_883663" data-name="Trazado 883663" d="M247.581,140.5a1.886,1.886,0,0,0,0,3.77,1.886,1.886,0,0,0,0-3.77" transform="translate(996.978 3629.621)" fill="#7000d2"/>
    <path id="Trazado_883664" data-name="Trazado 883664" d="M243.239,135.286a1.886,1.886,0,0,0,0,3.77,1.886,1.886,0,0,0,0-3.77" transform="translate(996.952 3629.59)" fill="#7000d2"/>
    <path id="Trazado_883665" data-name="Trazado 883665" d="M238.46,138.754a1.883,1.883,0,0,0-.485-.832l-.381-.295a1.874,1.874,0,0,0-.951-.257h-.349a1.936,1.936,0,0,0-1.885,1.885l.066.5a1.883,1.883,0,0,0,.485.832l.382.295a1.869,1.869,0,0,0,.951.257h.349a1.936,1.936,0,0,0,1.885-1.885c-.022-.167-.045-.334-.067-.5" transform="translate(996.912 3629.603)" fill="#7000d2"/>
    <path id="Trazado_883666" data-name="Trazado 883666" d="M236.9,143.617a1.889,1.889,0,0,0-.485-.832l-.381-.295a1.884,1.884,0,0,0-.951-.257H234.9a1.939,1.939,0,0,0-1.885,1.885c.022.167.045.334.067.5a1.878,1.878,0,0,0,.485.832l.381.295a1.874,1.874,0,0,0,.951.257h.175a1.936,1.936,0,0,0,1.885-1.885c-.022-.167-.045-.334-.067-.5" transform="translate(996.903 3629.631)" fill="#7000d2"/>
    <path id="Trazado_883667" data-name="Trazado 883667" d="M265.12,123.825a1.886,1.886,0,0,0,0,3.77,1.886,1.886,0,0,0,0-3.77" transform="translate(997.079 3629.524)" fill="#7000d2"/>
    <path id="Trazado_883668" data-name="Trazado 883668" d="M261.69,125.051l-.175-.524a1.813,1.813,0,0,0-1.567-1.35,1.43,1.43,0,0,0-.752.033l-.45.19a1.887,1.887,0,0,0-.676.677l-.19.45a1.885,1.885,0,0,0,0,1l.175.523a2.1,2.1,0,0,0,.866,1.126,1.409,1.409,0,0,0,.7.224,1.426,1.426,0,0,0,.751-.034l.451-.19a1.885,1.885,0,0,0,.676-.676l.19-.451a1.9,1.9,0,0,0,0-1" transform="translate(997.047 3629.521)" fill="#7000d2"/>
    <path id="Trazado_883669" data-name="Trazado 883669" d="M267.433,119.068l-.295-.381a1.889,1.889,0,0,0-.832-.485l-.524-.175a1.426,1.426,0,0,0-.751-.034,1.4,1.4,0,0,0-.7.224,2.1,2.1,0,0,0-.866,1.126c-.022.167-.045.334-.067.5a1.874,1.874,0,0,0,.257.951l.295.381a1.883,1.883,0,0,0,.832.485l.524.175a1.425,1.425,0,0,0,.751.033,1.4,1.4,0,0,0,.7-.223,2.12,2.12,0,0,0,.866-1.126c.022-.167.045-.334.067-.5a1.871,1.871,0,0,0-.257-.951" transform="translate(997.079 3629.491)" fill="#7000d2"/>
    <path id="Trazado_883670" data-name="Trazado 883670" d="M271.821,122.787a2.108,2.108,0,0,0-.866-1.126l-.451-.19a1.9,1.9,0,0,0-1,0l-.451.19a1.893,1.893,0,0,0-.676.676l-.178.348a1.4,1.4,0,0,0-.223.7,1.934,1.934,0,0,0,.9,1.878l.45.19a1.885,1.885,0,0,0,1,0l.45-.19a1.887,1.887,0,0,0,.677-.676c.059-.116.118-.232.177-.348a1.4,1.4,0,0,0,.223-.7,1.425,1.425,0,0,0-.033-.751" transform="translate(997.105 3629.51)" fill="#7000d2"/>
    <path id="Trazado_883671" data-name="Trazado 883671" d="M272.67,128.508a1.889,1.889,0,0,0-.485-.832l-.381-.295a1.884,1.884,0,0,0-.951-.257h-.175a1.939,1.939,0,0,0-1.885,1.885c.022.167.045.334.067.5a1.878,1.878,0,0,0,.485.832l.381.295a1.874,1.874,0,0,0,.951.257h.175a1.936,1.936,0,0,0,1.885-1.885c-.022-.167-.045-.334-.067-.5" transform="translate(997.11 3629.543)" fill="#7000d2"/>
    <path id="Trazado_883672" data-name="Trazado 883672" d="M264.252,128.34a1.886,1.886,0,0,0,0,3.77,1.886,1.886,0,0,0,0-3.77" transform="translate(997.074 3629.55)" fill="#7000d2"/>
    <path id="Trazado_883673" data-name="Trazado 883673" d="M280.215,158.329a1.392,1.392,0,0,0-.143-.3,1.723,1.723,0,0,0-1.754-1.38,1.863,1.863,0,0,0-1.711,2.566v.018a1.422,1.422,0,0,0,.163.726,1.69,1.69,0,0,0,1,1,1.422,1.422,0,0,0,.726.163l.5-.067a1.889,1.889,0,0,0,.832-.485c.1-.128.2-.254.295-.381a1.884,1.884,0,0,0,.257-.951v-.175a1.419,1.419,0,0,0-.162-.726" transform="translate(997.155 3629.714)" fill="#7000d2"/>
    <path id="Trazado_883674" data-name="Trazado 883674" d="M293.666,48.548A131.231,131.231,0,0,1,274.86,74.01q-1.578,1.669-3.215,3.279a153.156,153.156,0,0,0,11.732-27.1q1.492-4.632,2.684-9.352a.628.628,0,0,0-1.211-.334,151.817,151.817,0,0,1-11.836,31.535c-1.153,2.263-2.378,4.487-3.642,6.689q2.171-15.121,3.207-30.375.3-4.565.5-9.138c.035-.809-1.221-.807-1.256,0q-.7,15.885-2.648,31.68c-.347,2.8-.734,5.6-1.142,8.389q-3.542-16.042-8.124-31.829a.629.629,0,0,0-1.212.334q4.65,16.009,8.232,32.3a.593.593,0,0,0,1,.274.653.653,0,0,0,.282.375.645.645,0,0,0,.937.605.588.588,0,0,0,.29-.229,132.627,132.627,0,0,0,20.567-24.2q2.5-3.784,4.737-7.735a.629.629,0,0,0-1.085-.635" transform="translate(997.052 3629.032)" fill="#e8624e"/>
    <path id="Trazado_883675" data-name="Trazado 883675" d="M246.117,89.751c-.03-.806-1.287-.81-1.256,0,.231,6.135.761,12.252,1.546,18.34l-10.022-11.65c-.529-.614-1.414.279-.889.889l11.344,13.188c.46.534,1.126-.065,1.05-.612a200.94,200.94,0,0,1-1.773-20.156" transform="translate(996.917 3629.324)" fill="#e8624e"/>
    <path id="Trazado_883676" data-name="Trazado 883676" d="M307.253,96.543a105.852,105.852,0,0,1-21.388,11.7q6.306-4.324,12.313-9.062c.634-.5-.26-1.384-.889-.889q-6.225,4.908-12.8,9.345a158.9,158.9,0,0,0,13.337-18.8.629.629,0,0,0-1.085-.635,157.179,157.179,0,0,1-13.08,18.471c1.609-3.717,3.179-7.452,4.663-11.222.3-.753-.918-1.079-1.212-.335-1.55,3.941-3.19,7.844-4.876,11.728.436-6.752.975-13.5,1.66-20.227.081-.8-1.176-.8-1.256,0q-1.154,11.336-1.836,22.715a.544.544,0,0,0,.163.445c-.064.145-.125.292-.189.437a.692.692,0,0,0,.483.956.534.534,0,0,0,.414.015,106.837,106.837,0,0,0,26.213-13.56c.654-.464.027-1.554-.635-1.085" transform="translate(997.18 3629.306)" fill="#e8624e"/>
    <path id="Trazado_883677" data-name="Trazado 883677" d="M252.578,78.121a120.736,120.736,0,0,1-4.67,30.151Q240.692,93.289,233.477,78.3c-.351-.728-1.435-.092-1.085.634q7.172,14.9,14.345,29.791a91,91,0,0,1-25.931-16.266c-.6-.537-1.493.348-.888.889a92.682,92.682,0,0,0,27.546,17.034.642.642,0,0,0,1.176-.1,122.048,122.048,0,0,0,5.194-32.168.628.628,0,0,0-1.256,0" transform="translate(996.826 3629.256)" fill="#e8624e"/>
    <path id="Trazado_883678" data-name="Trazado 883678" d="M301.971,77.483c0-.028-.016-.05-.016-.078l3.2-.89c.241.024.478.032.713.04a9.257,9.257,0,0,1,2.483,1.216,3.939,3.939,0,0,1,1.761,3.26,4.161,4.161,0,0,1-.9,2.178,3.885,3.885,0,0,1-2.911,1.714c-1.591.018-2.887-1.366-3.44-2.849a30.592,30.592,0,0,1-.882-4.589" transform="translate(997.303 3629.25)" fill="#ffedee"/>
    <path id="Trazado_883679" data-name="Trazado 883679" d="M297.063,64.165a3,3,0,0,1,1.817-1.949,3.334,3.334,0,0,1,1.294-.128,6.245,6.245,0,0,1,2.706.836,3.009,3.009,0,0,1,1.434,1.582,3.687,3.687,0,0,1-.191,2.274,28.225,28.225,0,0,1-2.026,4.864l-3.68-.671a1.988,1.988,0,0,0-.206-.176l.062-.067a11.413,11.413,0,0,1-1.334-3.846,5.772,5.772,0,0,1,.123-2.719" transform="translate(997.272 3629.167)" fill="#ffedee"/>
    <path id="Trazado_883680" data-name="Trazado 883680" d="M290.971,76.649A3.5,3.5,0,0,1,288.9,75.8a2.014,2.014,0,0,1-.3-.424,3.88,3.88,0,0,1-.334-1.964,11.307,11.307,0,0,1,1.466-5.122,1.933,1.933,0,0,1,.626-.752,1.738,1.738,0,0,1,1.113-.135,3.9,3.9,0,0,1,.382.082,15.156,15.156,0,0,1,6.408,3.283,2.1,2.1,0,0,1,.206.176l3.68.672.33.183a20.088,20.088,0,0,1,4.734-4.224,4.2,4.2,0,0,1,2.644-.862,3.074,3.074,0,0,1,2.077,1.347,7.8,7.8,0,0,1,1.045,2.314,5.074,5.074,0,0,1,.266,3.341,4.521,4.521,0,0,1-3.131,2.363,13.16,13.16,0,0,1-4.17.532c-.236-.008-.472-.015-.713-.04l-3.2.89c0,.028.016.05.016.078l-.079.016a24.027,24.027,0,0,1-1.6,6.538,4.391,4.391,0,0,1-1.816,2.415,3.8,3.8,0,0,1-2.537.183c-1.84-.377-3.733-1.559-4.114-3.407a5.019,5.019,0,0,1,.656-3.265,9.879,9.879,0,0,1,2.672-3.2,20.081,20.081,0,0,1-4.264-.166" transform="translate(997.223 3629.194)" fill="#ffedee"/>
    <path id="Trazado_883681" data-name="Trazado 883681" d="M296.709,66.049c2.3-.517,3.864,1.415,4.344,3.482,1.074-1.27,2.562-2.189,4.217-1.453a3.314,3.314,0,0,1,1.88,2.587,3.535,3.535,0,0,1-1.072,2.727,4.785,4.785,0,0,1,2.855,1.7,2.747,2.747,0,0,1,.182,3.143c-1.214,1.764-3.622,1.448-5.394.47a7.307,7.307,0,0,1-.008,2.524c-.225,1.267-1.142,2.394-2.512,1.762a5.018,5.018,0,0,1-2.278-3.186,7.617,7.617,0,0,1-.322-2.155,6.7,6.7,0,0,1-2.113,1.176,4.186,4.186,0,0,1-4.086-.484,2.479,2.479,0,0,1,.12-3.6,9.883,9.883,0,0,1,3.738-2.279,5.514,5.514,0,0,1-1.631-3.292,2.914,2.914,0,0,1,2.082-3.127" transform="translate(997.243 3629.19)" fill="#fff"/>
    <path id="Trazado_883682" data-name="Trazado 883682" d="M318.768,88.4a50.281,50.281,0,0,1-6.531-6.819c-1.847-2.485-3.26-5.652-2.388-8.623a8.2,8.2,0,0,1,2.209-3.457,9.313,9.313,0,0,1,6.412-2.786,6.711,6.711,0,0,1,5.907,3.408,11.122,11.122,0,0,1,.95,3.9,109.4,109.4,0,0,1,.637,11.763h.056A29.988,29.988,0,0,1,332.5,74.914c1.522-1.648,3.538-3.213,5.772-2.917a6.653,6.653,0,0,1,3.548,2,19.244,19.244,0,0,1,2.75,3.259,6.862,6.862,0,0,1,1.284,3.115,7.067,7.067,0,0,1-1.4,4.212,22.413,22.413,0,0,1-10.566,8.635c2.37-.409,4.66-1.241,7.051-1.527,2.645-.311,5.634.246,7.227,2.376,1.3,1.727,1.382,4.082,1.17,6.233a28.617,28.617,0,0,1-1.6,6.947c-.7,1.9-1.8,3.905-3.731,4.527-1.725.556-3.589-.187-5.183-1.046a30.38,30.38,0,0,1-10-8.725l-.034.011a28.2,28.2,0,0,1,.417,15.858c-.461,1.726-1.2,3.562-2.791,4.373-1.621.821-3.589.335-5.262-.367a24.865,24.865,0,0,1-7.366-4.72,12.14,12.14,0,0,1-3.038-4.183,5.665,5.665,0,0,1-.284-3.717,6.424,6.424,0,0,1,1.151-2.163,19.275,19.275,0,0,1,1.654-1.821q3.388-3.39,6.878-6.67l-.05-.068c-3.645,2.594-7.786,4.723-12.244,4.937-.09.01-.185,0-.276.014l-.011-.006a4.231,4.231,0,0,1-2.758-.707c-1.1-.876-1.325-2.457-1.333-3.874a28.238,28.238,0,0,1,.56-6.109,29.478,29.478,0,0,1,1.06-3.833,5.4,5.4,0,0,1,1.3-2.269c1.269-1.128,3.212-.923,4.872-.581a46.008,46.008,0,0,1,7.5,2.288" transform="translate(997.311 3629.194)" fill="#ffedee"/>
    <path id="Trazado_883683" data-name="Trazado 883683" d="M313.96,83.226c3.315-1.591,6.591.116,8.962,2.516a9.527,9.527,0,0,1,.04-4.654,5.423,5.423,0,0,1,3.957-3.973,5.518,5.518,0,0,1,5.021,1.387,6.4,6.4,0,0,1,1.861,5.161,8.715,8.715,0,0,1-1.174,3.365,8.853,8.853,0,0,1,3.869-.939,6.7,6.7,0,0,1,5.171,2.31,5.292,5.292,0,0,1,.95,5.089,6.086,6.086,0,0,1-4.307,3.554,11.593,11.593,0,0,1-4.637.067,11.012,11.012,0,0,1,2.916,5.744c.6,5.08-4.88,7.651-9.236,6.535a5.348,5.348,0,0,1-4.02-4.912,19.135,19.135,0,0,1-.1-2.142,8.667,8.667,0,0,1-1.193,1.253,6.94,6.94,0,0,1-5.63,1.647,5.393,5.393,0,0,1-4-3.518c-.726-2.194.507-4.188,2.139-5.582a21.279,21.279,0,0,1,3.83-2.542,9.535,9.535,0,0,1-4.68-1.311,5.6,5.6,0,0,1-2.783-4.462,5.252,5.252,0,0,1,3.047-4.6" transform="translate(997.354 3629.253)" fill="#fff"/>
    <path id="Trazado_883684" data-name="Trazado 883684" d="M324.833,94.656a1.938,1.938,0,0,0,1,1.816l.477.169a1.891,1.891,0,0,0,.962-.052l.436-.205a1.874,1.874,0,0,0,.663-.729l.08-.156a1.417,1.417,0,0,0,.186-.72,1.7,1.7,0,0,0-.432-1.341,1.421,1.421,0,0,0-.572-.476l-.477-.169a1.887,1.887,0,0,0-.961.052l-.437.205a1.881,1.881,0,0,0-.663.729l-.079.156a1.408,1.408,0,0,0-.187.72" transform="translate(997.435 3629.345)" fill="#7000d2"/>
    <path id="Trazado_883685" data-name="Trazado 883685" d="M329.479,90.257a1.4,1.4,0,0,0-.121.726c.03.158.059.316.089.474a1.882,1.882,0,0,0,.519.811l.415.289a1.876,1.876,0,0,0,.965.2l.39,0a1.427,1.427,0,0,0,.692-.191,1.411,1.411,0,0,0,.592-.416,2.114,2.114,0,0,0,.494-1.379l-.089-.475a1.894,1.894,0,0,0-.52-.811l-.414-.288a1.867,1.867,0,0,0-.965-.205l-.39,0a1.817,1.817,0,0,0-1.658,1.261" transform="translate(997.461 3629.323)" fill="#7000d2"/>
    <path id="Trazado_883686" data-name="Trazado 883686" d="M323.579,89.162a1.41,1.41,0,0,0,.07.717l.205.437a1.874,1.874,0,0,0,.729.663l.477.169a1.891,1.891,0,0,0,.962-.052l.7-.239a2.09,2.09,0,0,0,1.1-.934,2.093,2.093,0,0,0,.117-1.438l-.205-.437a1.874,1.874,0,0,0-.729-.663l-.477-.168a1.869,1.869,0,0,0-.962.052l-.7.239a1.824,1.824,0,0,0-1.285,1.655" transform="translate(997.428 3629.313)" fill="#7000d2"/>
    <path id="Trazado_883687" data-name="Trazado 883687" d="M320.037,94.085a1.886,1.886,0,0,0,1.719-3.355,1.886,1.886,0,0,0-1.719,3.355" transform="translate(997.401 3629.332)" fill="#7000d2"/>
    <path id="Trazado_883688" data-name="Trazado 883688" d="M321.525,100.7a1.886,1.886,0,0,0,1.719-3.355,1.886,1.886,0,0,0-1.719,3.355" transform="translate(997.41 3629.37)" fill="#7000d2"/>
    <path id="Trazado_883689" data-name="Trazado 883689" d="M327.361,99.795a1.883,1.883,0,0,0,.052.963l.205.437a1.881,1.881,0,0,0,.729.663l.311.158a1.933,1.933,0,0,0,2.537-.817l.169-.477a1.88,1.88,0,0,0-.052-.962c-.068-.147-.137-.291-.205-.437a1.874,1.874,0,0,0-.729-.663l-.311-.159a1.932,1.932,0,0,0-2.537.818l-.169.476" transform="translate(997.449 3629.376)" fill="#7000d2"/>
    <path id="Trazado_883690" data-name="Trazado 883690" d="M330.97,96.181a1.891,1.891,0,0,0,.052.962l.205.437a1.871,1.871,0,0,0,.729.662l.156.08a1.415,1.415,0,0,0,.72.186,1.7,1.7,0,0,0,1.341-.432,1.42,1.42,0,0,0,.476-.572l.169-.476a1.89,1.89,0,0,0-.052-.962l-.205-.437a1.881,1.881,0,0,0-.729-.663l-.156-.079a1.937,1.937,0,0,0-2.537.818l-.169.477" transform="translate(997.47 3629.356)" fill="#7000d2"/>
    <path id="Trazado_883691" data-name="Trazado 883691" d="M299.13,74.359a1.439,1.439,0,0,0-.011.335,1.723,1.723,0,0,0,.932,2.028,1.862,1.862,0,0,0,2.691-1.5l.009-.016a1.417,1.417,0,0,0,.186-.72,1.7,1.7,0,0,0-.432-1.341,1.421,1.421,0,0,0-.572-.476l-.477-.169a1.887,1.887,0,0,0-.961.052l-.437.205a1.881,1.881,0,0,0-.663.729l-.079.156a1.408,1.408,0,0,0-.187.72" transform="translate(997.285 3629.227)" fill="#7000d2"/>
    <path id="Trazado_883692" data-name="Trazado 883692" d="M201.786,501.063H40.166A178.161,178.161,0,0,1,83.239,395.535l-6.327-28.712A131.112,131.112,0,0,0,93.89,389.217c3.726,3.878,7.972,7.57,13.155,9.017,7.158,1.992,15-.741,20.732-5.459s9.714-11.215,13.279-17.73c18.525-33.851,28.694-71.534,43.367-107.226.258-.1.518-.2.768-.295Z" transform="translate(995.788 3630.355)" fill="#f3aca1"/>
    <path id="Trazado_883693" data-name="Trazado 883693" d="M76.161,248.053q7.332-9.141,14.673-18.266c.187.241.375.474.563.715a120.845,120.845,0,0,0,50.007,37.05,134.91,134.91,0,0,0,5.808-29.034,5.786,5.786,0,0,1-1.671-1.207,28.08,28.08,0,0,1-5.907-8.069,91.423,91.423,0,0,0,13.735.331c4.8-4.852,9.767-9.731,15.943-12.608,6.363-2.976,14.387-3.423,20.07.679-.777.572-1.537,1.162-2.288,1.76-13.287,10.661-23.091,25.915-26.022,42.688q-26.836,36.741-50.026,75.932a130.1,130.1,0,0,0-8.8-19.267,206.891,206.891,0,0,1-40.928,19.249c-.339.125-.688.241-1.027.348h-.009a41.588,41.588,0,0,1-9.75-1.939,19.452,19.452,0,0,1-7.846-4.352c-2.189-2.171-3.5-5.049-4.682-7.9a143.168,143.168,0,0,1-9.392-34.53,57.755,57.755,0,0,1-.474-15.844,26.545,26.545,0,0,1,6.229-14.378c3.414-3.754,8.1-6.139,12.868-7.864a64.855,64.855,0,0,1,28.926-3.494" transform="translate(995.717 3630.049)" fill="#f3aca1"/>
    <path id="Trazado_883694" data-name="Trazado 883694" d="M184.264,266.2l.1,1.332c-.25.1-.51.2-.768.295.223-.544.447-1.08.67-1.626" transform="translate(996.617 3630.348)" fill="#ffedee"/>
    <path id="Trazado_883695" data-name="Trazado 883695" d="M53.336,261.429a1.354,1.354,0,0,0-1.834.481q-1.652,3.766-3.3,7.53a1.375,1.375,0,0,0,.481,1.834,1.355,1.355,0,0,0,1.834-.481l3.3-7.53a1.377,1.377,0,0,0-.481-1.834" transform="translate(995.834 3630.319)" fill="#ffedee"/>
    <path id="Trazado_883696" data-name="Trazado 883696" d="M49.915,286.2l-5.38-7.021a1.472,1.472,0,0,0-.8-.616,1.367,1.367,0,0,0-1.033.135,1.353,1.353,0,0,0-.481,1.834l5.379,7.021a1.481,1.481,0,0,0,.8.617,1.367,1.367,0,0,0,1.033-.136,1.353,1.353,0,0,0,.481-1.834" transform="translate(995.799 3630.419)" fill="#ffedee"/>
    <path id="Trazado_883697" data-name="Trazado 883697" d="M65.932,273.91a1.369,1.369,0,0,0-1.9,0l-5.4,5.044a1.351,1.351,0,0,0,0,1.895,1.368,1.368,0,0,0,1.9,0l5.4-5.043a1.353,1.353,0,0,0,0-1.9" transform="translate(995.893 3630.39)" fill="#ffedee"/>
    <path id="Trazado_883698" data-name="Trazado 883698" d="M78.87,275.525,73.9,270.559a1.341,1.341,0,0,0-1.9,1.9q2.486,2.482,4.972,4.966a1.341,1.341,0,0,0,1.9-1.9" transform="translate(995.97 3630.371)" fill="#ffedee"/>
    <path id="Trazado_883699" data-name="Trazado 883699" d="M79.816,295.313l-3.905-4.531a1.348,1.348,0,0,0-1.9,0,1.375,1.375,0,0,0,0,1.9l3.905,4.531a1.348,1.348,0,0,0,1.9,0,1.375,1.375,0,0,0,0-1.9" transform="translate(995.981 3630.488)" fill="#ffedee"/>
    <path id="Trazado_883700" data-name="Trazado 883700" d="M66.035,305.726q-.794-3.467-1.586-6.934a1.353,1.353,0,0,0-1.649-.936,1.372,1.372,0,0,0-.936,1.649l1.587,6.934a1.351,1.351,0,0,0,1.648.935,1.369,1.369,0,0,0,.936-1.648" transform="translate(995.913 3630.531)" fill="#ffedee"/>
    <path id="Trazado_883701" data-name="Trazado 883701" d="M52.059,307.072a1.376,1.376,0,0,0-1.341-1.341,1.35,1.35,0,0,0-1.34,1.341q.416,4.727.835,9.454a1.375,1.375,0,0,0,1.341,1.34,1.35,1.35,0,0,0,1.34-1.34q-.416-4.728-.835-9.454" transform="translate(995.842 3630.576)" fill="#ffedee"/>
    <path id="Trazado_883702" data-name="Trazado 883702" d="M74.468,316.98a22.279,22.279,0,0,0-8.58,2.836,1.341,1.341,0,0,0,1.354,2.315,20.645,20.645,0,0,1,1.862-.967c.356-.162.345-.157.711-.3q.457-.178.921-.334c.619-.208,1.248-.386,1.884-.534q.478-.11.96-.2.276-.05.552-.092l.2-.029.136-.017a1.374,1.374,0,0,0,1.341-1.34c-.029-.654-.6-1.431-1.341-1.341" transform="translate(995.934 3630.641)" fill="#ffedee"/>
    <path id="Trazado_883703" data-name="Trazado 883703" d="M37.129,267.716a1.356,1.356,0,0,0-1.648.936,58.47,58.47,0,0,1-2.442,8.935,1.348,1.348,0,0,0,.936,1.648,1.374,1.374,0,0,0,1.648-.936,58.323,58.323,0,0,0,2.442-8.935,1.37,1.37,0,0,0-.936-1.648" transform="translate(1082.514 3632.172)" fill="#ffedee"/>
    <path id="Trazado_883704" data-name="Trazado 883704" d="M99.855,269.384a1.365,1.365,0,0,0-1.834-.481l-5.973,3.46a1.341,1.341,0,1,0,1.354,2.314l5.972-3.459a1.357,1.357,0,0,0,.481-1.835" transform="translate(996.084 3630.362)" fill="#ffedee"/>
    <path id="Trazado_883705" data-name="Trazado 883705" d="M103,254.412l-8.48-1.833a1.341,1.341,0,0,0-.713,2.585l8.48,1.833a1.341,1.341,0,1,0,.713-2.585" transform="translate(996.093 3630.269)" fill="#ffedee"/>
    <path id="Trazado_883706" data-name="Trazado 883706" d="M120.032,279.779l-3.465-6.962a1.348,1.348,0,0,0-1.834-.481,1.373,1.373,0,0,0-.481,1.834l3.464,6.962a1.349,1.349,0,0,0,1.835.481,1.373,1.373,0,0,0,.481-1.834" transform="translate(996.216 3630.382)" fill="#ffedee"/>
    <path id="Trazado_883707" data-name="Trazado 883707" d="M108.164,285.981a1.373,1.373,0,0,0-1.341,1.341q-.3,4.218-.6,8.439a1.347,1.347,0,0,0,1.34,1.341,1.374,1.374,0,0,0,1.341-1.341l.6-8.439a1.347,1.347,0,0,0-1.341-1.341" transform="translate(996.17 3630.462)" fill="#ffedee"/>
    <path id="Trazado_883708" data-name="Trazado 883708" d="M113.9,321.039q-.866-2.945-1.731-5.891a1.341,1.341,0,0,0-2.586.712l1.732,5.892a1.341,1.341,0,0,0,2.585-.713" transform="translate(996.189 3630.625)" fill="#ffedee"/>
    <path id="Trazado_883709" data-name="Trazado 883709" d="M126.387,296.326a1.357,1.357,0,0,0-1.9,0l-4.563,5.387a1.341,1.341,0,1,0,1.9,1.9l4.563-5.387a1.37,1.37,0,0,0,0-1.9" transform="translate(996.247 3630.52)" fill="#ffedee"/>
    <path id="Trazado_883710" data-name="Trazado 883710" d="M95.511,297.093a1.358,1.358,0,0,0-1.834.481,43.622,43.622,0,0,0-4.317,10.161,1.341,1.341,0,1,0,2.585.713,40.741,40.741,0,0,1,4.046-9.522,1.362,1.362,0,0,0-.481-1.834" transform="translate(996.072 3630.525)" fill="#ffedee"/>
    <path id="Trazado_883711" data-name="Trazado 883711" d="M135,278.1a1.356,1.356,0,0,0-1.648.936q-.525,3.224-1.049,6.45a1.373,1.373,0,0,0,.936,1.648,1.356,1.356,0,0,0,1.648-.936q.525-3.224,1.049-6.45A1.375,1.375,0,0,0,135,278.1" transform="translate(996.321 3630.417)" fill="#ffedee"/>
    <path id="Trazado_883712" data-name="Trazado 883712" d="M156.967,259.243a1.371,1.371,0,0,0-1.9,0l-5.7,5.211a1.35,1.35,0,0,0,0,1.9,1.37,1.37,0,0,0,1.895,0l5.7-5.211a1.351,1.351,0,0,0,0-1.9" transform="translate(996.418 3630.305)" fill="#ffedee"/>
    <path id="Trazado_883713" data-name="Trazado 883713" d="M156.906,248.24q-1.578-3.55-3.157-7.1a1.345,1.345,0,0,0-1.834-.481,1.38,1.38,0,0,0-.481,1.835l3.156,7.1a1.344,1.344,0,0,0,1.835.481,1.38,1.38,0,0,0,.481-1.834" transform="translate(996.431 3630.199)" fill="#ffedee"/>
    <path id="Trazado_883714" data-name="Trazado 883714" d="M181.225,311.977a19.173,19.173,0,0,1-1.562-1.5q-.368-.4-.713-.817c-.063-.077-.127-.156-.189-.234l-.1-.126c-.093-.123-.185-.246-.275-.372a18.947,18.947,0,0,1-1.162-1.832q-.263-.474-.5-.963c-.078-.163-.155-.326-.228-.492-.033-.072-.064-.147-.1-.22.116.259-.041-.1-.05-.125a1.375,1.375,0,0,0-1.648-.936,1.354,1.354,0,0,0-.936,1.65,20.5,20.5,0,0,0,5.563,7.867,1.341,1.341,0,0,0,1.9-1.9" transform="translate(996.561 3630.568)" fill="#ffedee"/>
    <path id="Trazado_883715" data-name="Trazado 883715" d="M171.743,325.89a1.355,1.355,0,0,0-1.9,0,29.06,29.06,0,0,0-4.343,7.534,1.345,1.345,0,0,0,.936,1.648,1.378,1.378,0,0,0,1.648-.936c.06-.153.123-.306.184-.46.013-.03.022-.052.029-.07l.077-.178q.2-.454.414-.9.418-.863.9-1.695t1.016-1.626q.278-.41.57-.81.146-.2.3-.4c.095-.124.1-.131.017-.022l.154-.194a1.375,1.375,0,0,0,0-1.9" transform="translate(996.513 3630.691)" fill="#ffedee"/>
    <path id="Trazado_883716" data-name="Trazado 883716" d="M183.368,346.4a16.812,16.812,0,0,1-.965-1.658q-.22-.437-.413-.888l-.078-.193c-.062-.159-.122-.318-.179-.479a16.481,16.481,0,0,1-.539-1.841q-.1-.436-.177-.878c-.024-.142-.046-.285-.067-.428,0-.039-.036-.32-.04-.356a1.371,1.371,0,0,0-1.341-1.34,1.354,1.354,0,0,0-1.341,1.34,18.033,18.033,0,0,0,2.825,8.073,1.341,1.341,0,0,0,2.315-1.353" transform="translate(996.587 3630.765)" fill="#ffedee"/>
    <path id="Trazado_883717" data-name="Trazado 883717" d="M177.03,361.1l-3.442-8.461a1.375,1.375,0,0,0-1.648-.936,1.353,1.353,0,0,0-.936,1.648q1.72,4.23,3.442,8.462a1.374,1.374,0,0,0,1.648.935,1.354,1.354,0,0,0,.936-1.648" transform="translate(996.545 3630.842)" fill="#ffedee"/>
    <path id="Trazado_883718" data-name="Trazado 883718" d="M158.727,362.078a1.364,1.364,0,0,0-1.648.936q-1.049,3.96-2.1,7.921a1.341,1.341,0,0,0,2.586.712l2.1-7.921a1.359,1.359,0,0,0-.936-1.648" transform="translate(996.452 3630.902)" fill="#ffedee"/>
    <path id="Trazado_883719" data-name="Trazado 883719" d="M167.554,393.846q-2.735-4.221-5.471-8.443a1.34,1.34,0,0,0-2.314,1.353l5.47,8.443a1.341,1.341,0,0,0,2.315-1.353" transform="translate(996.479 3631.033)" fill="#ffedee"/>
    <path id="Trazado_883720" data-name="Trazado 883720" d="M183.8,376.494a1.369,1.369,0,0,0-1.835-.481l-8.375,4.6a1.355,1.355,0,0,0-.481,1.834,1.371,1.371,0,0,0,1.836.482l8.373-4.6a1.354,1.354,0,0,0,.482-1.834" transform="translate(996.556 3630.982)" fill="#ffedee"/>
    <path id="Trazado_883721" data-name="Trazado 883721" d="M185.562,404.46a9.573,9.573,0,0,1-1.2-1.177c-.051-.059-.1-.12-.15-.18l-.023-.029-.081-.109-.109-.153c-.169-.243-.328-.495-.474-.752s-.268-.5-.384-.751c-.016-.035-.095-.234-.026-.054.074.2-.024-.059-.04-.1q-.077-.2-.145-.4a9.589,9.589,0,0,1-.408-1.683,1.34,1.34,0,0,0-.616-.8,1.341,1.341,0,0,0-1.969,1.514,10.717,10.717,0,0,0,3.733,6.566,1.373,1.373,0,0,0,1.9,0,1.356,1.356,0,0,0,0-1.9" transform="translate(996.597 3631.11)" fill="#ffedee"/>
    <path id="Trazado_883722" data-name="Trazado 883722" d="M145.39,388.22a1.341,1.341,0,1,0-2.585.713,68.956,68.956,0,0,1,1.327,9.093,1.373,1.373,0,0,0,1.34,1.341,1.351,1.351,0,0,0,1.341-1.341,74.286,74.286,0,0,0-1.422-9.806" transform="translate(996.382 3631.047)" fill="#ffedee"/>
    <path id="Trazado_883723" data-name="Trazado 883723" d="M137.243,416.186a21.524,21.524,0,0,1-3.2-8.7,1.348,1.348,0,0,0-1.648-.936,1.376,1.376,0,0,0-.936,1.648,23.608,23.608,0,0,0,3.466,9.343,1.341,1.341,0,0,0,2.315-1.353" transform="translate(996.316 3631.159)" fill="#ffedee"/>
    <path id="Trazado_883724" data-name="Trazado 883724" d="M116.977,413.3a31.834,31.834,0,0,0-8.276-6.117,1.341,1.341,0,1,0-1.354,2.315,30.673,30.673,0,0,1,4.191,2.582c.57.419,1.1.841,1.731,1.4s1.23,1.122,1.811,1.72a1.341,1.341,0,1,0,1.9-1.9" transform="translate(996.173 3631.162)" fill="#ffedee"/>
    <path id="Trazado_883725" data-name="Trazado 883725" d="M96.565,412.514q-.255-.1-.508-.2l-.252-.1c.11.047.091.038-.057-.025q-.439-.189-.874-.388-.963-.442-1.9-.94a37.087,37.087,0,0,1-3.559-2.163,1.347,1.347,0,0,0-1.834.481,1.374,1.374,0,0,0,.481,1.834,38.567,38.567,0,0,0,7.788,4.094,1.346,1.346,0,0,0,1.649-.936,1.379,1.379,0,0,0-.936-1.648" transform="translate(996.062 3631.17)" fill="#ffedee"/>
    <path id="Trazado_883726" data-name="Trazado 883726" d="M82.873,419.9a1.375,1.375,0,0,0-1.835.481,43.041,43.041,0,0,0-4.253,7.593,1.377,1.377,0,0,0,.48,1.834,1.354,1.354,0,0,0,1.834-.481,43.145,43.145,0,0,1,4.254-7.593,1.346,1.346,0,0,0-.48-1.834" transform="translate(995.999 3631.236)" fill="#ffedee"/>
    <path id="Trazado_883727" data-name="Trazado 883727" d="M100.967,438.653a26.487,26.487,0,0,0-3.021-8.831,1.341,1.341,0,0,0-2.315,1.353,22.564,22.564,0,0,1,1.717,3.877,25.513,25.513,0,0,1,1.035,4.314,1.344,1.344,0,0,0,1.648.935,1.381,1.381,0,0,0,.936-1.648" transform="translate(996.107 3631.29)" fill="#ffedee"/>
    <path id="Trazado_883728" data-name="Trazado 883728" d="M90.257,451.873l-7.145-6.756a1.341,1.341,0,1,0-1.9,1.9l7.145,6.756a1.341,1.341,0,0,0,1.9-1.9" transform="translate(996.023 3631.38)" fill="#ffedee"/>
    <path id="Trazado_883729" data-name="Trazado 883729" d="M69.26,443.229a1.355,1.355,0,0,0-1.9,0,23.614,23.614,0,0,1-8.413,6,1.349,1.349,0,0,0-.481,1.835,1.375,1.375,0,0,0,1.834.481,25.934,25.934,0,0,0,8.957-6.419,1.371,1.371,0,0,0,0-1.9" transform="translate(995.893 3631.369)" fill="#ffedee"/>
    <path id="Trazado_883730" data-name="Trazado 883730" d="M70.485,468.081l-4.661-8.613a1.34,1.34,0,1,0-2.314,1.353l4.66,8.613a1.341,1.341,0,0,0,2.315-1.353" transform="translate(995.922 3631.461)" fill="#ffedee"/>
    <path id="Trazado_883731" data-name="Trazado 883731" d="M63.265,481.314,59.4,472.82a1.347,1.347,0,0,0-1.835-.482,1.38,1.38,0,0,0-.481,1.835q1.936,4.247,3.869,8.494a1.345,1.345,0,0,0,1.835.481,1.379,1.379,0,0,0,.481-1.834" transform="translate(995.885 3631.539)" fill="#ffedee"/>
    <path id="Trazado_883732" data-name="Trazado 883732" d="M92.464,473.413a1.363,1.363,0,0,0-1.834-.481,23.9,23.9,0,0,0-8.334,8.452,1.341,1.341,0,1,0,2.315,1.354,23,23,0,0,1,1.507-2.274l.05-.067.059-.072.2-.253c.151-.184.3-.367.462-.546q.448-.514.927-1a22.21,22.21,0,0,1,2.03-1.823l.131-.1c.09-.067.179-.135.27-.2.175-.128.351-.253.53-.376.392-.271.795-.527,1.2-.773a1.359,1.359,0,0,0,.481-1.834" transform="translate(996.031 3631.542)" fill="#ffedee"/>
    <path id="Trazado_883733" data-name="Trazado 883733" d="M110.15,469.107a18.865,18.865,0,0,1-2.116-1.376l-.061-.048c-.075-.059-.15-.12-.224-.181q-.246-.2-.484-.412-.477-.421-.922-.875-.425-.433-.821-.894c-.138-.16-.273-.324-.4-.49-.029-.035-.058-.073-.076-.1-.057-.075-.115-.151-.17-.227a17.854,17.854,0,0,1-1.347-2.153,1.352,1.352,0,0,0-1.835-.482,1.371,1.371,0,0,0-.481,1.835,19.242,19.242,0,0,0,7.589,7.717,1.341,1.341,0,0,0,1.353-2.315" transform="translate(996.141 3631.478)" fill="#ffedee"/>
    <path id="Trazado_883734" data-name="Trazado 883734" d="M122.043,444.173a1.357,1.357,0,0,0-1.834-.481,34.832,34.832,0,0,1-3.755,2.261q-.943.487-1.914.917l-.258.113-.1.042c-.164.069-.33.136-.5.2-.35.14-.7.273-1.058.4a1.341,1.341,0,1,0,.713,2.585,36.052,36.052,0,0,0,8.22-4.207,1.368,1.368,0,0,0,.481-1.834" transform="translate(996.201 3631.373)" fill="#ffedee"/>
    <path id="Trazado_883735" data-name="Trazado 883735" d="M135.959,430.823a26.425,26.425,0,0,0-9.172-2.45,1.345,1.345,0,0,0-1.341,1.34,1.374,1.374,0,0,0,1.341,1.341,23.627,23.627,0,0,1,7.819,2.085,1.371,1.371,0,0,0,1.834-.482,1.357,1.357,0,0,0-.481-1.834" transform="translate(996.281 3631.286)" fill="#ffedee"/>
    <path id="Trazado_883736" data-name="Trazado 883736" d="M152.885,445.084a32.506,32.506,0,0,1-3.528-1.211h0l-.2-.087q-.232-.1-.462-.207-.4-.184-.8-.38-.851-.421-1.674-.9a1.34,1.34,0,1,0-1.353,2.314,31.672,31.672,0,0,0,7.308,3.053,1.341,1.341,0,1,0,.713-2.585" transform="translate(996.39 3631.365)" fill="#ffedee"/>
    <path id="Trazado_883737" data-name="Trazado 883737" d="M135.133,453.489a1.354,1.354,0,0,0-1.648.936q-.542,3.968-1.082,7.938a1.379,1.379,0,0,0,.936,1.648,1.354,1.354,0,0,0,1.648-.936q.542-3.968,1.082-7.938a1.379,1.379,0,0,0-.936-1.648" transform="translate(996.321 3631.431)" fill="#ffedee"/>
    <path id="Trazado_883738" data-name="Trazado 883738" d="M123.834,472.2a1.364,1.364,0,0,0-1.341,1.341v8.942a1.341,1.341,0,1,0,2.681,0v-8.942a1.356,1.356,0,0,0-1.341-1.341" transform="translate(996.265 3631.539)" fill="#ffedee"/>
    <path id="Trazado_883739" data-name="Trazado 883739" d="M117.811,490.066c-.713-.214-1.418-.456-2.111-.729-.509-.2-1.14-.484-1.782-.807a26.051,26.051,0,0,1-3.743-2.3,1.346,1.346,0,0,0-1.835.482,1.379,1.379,0,0,0,.481,1.834,27.184,27.184,0,0,0,8.277,4.106,1.354,1.354,0,0,0,1.649-.936,1.369,1.369,0,0,0-.936-1.648" transform="translate(996.182 3631.619)" fill="#ffedee"/>
    <path id="Trazado_883740" data-name="Trazado 883740" d="M146.568,483.972a1.362,1.362,0,0,0-1.9,0,15.723,15.723,0,0,1-1.276,1.206c-.115.1-.232.191-.349.286a.481.481,0,0,0-.057.05c-.025.016-.051.032-.069.045q-.364.27-.741.517a15.376,15.376,0,0,1-1.477.855c-.269.137-.541.263-.817.385a.509.509,0,0,0-.063.031l-.079.026c-.156.062-.313.121-.47.178a1.341,1.341,0,1,0,.713,2.585,17.082,17.082,0,0,0,6.582-4.269,1.36,1.36,0,0,0,0-1.9" transform="translate(996.355 3631.605)" fill="#ffedee"/>
    <path id="Trazado_883741" data-name="Trazado 883741" d="M155.18,467.474a1.381,1.381,0,0,0-1.834-.481l-6.5,2.88a1.346,1.346,0,0,0-.481,1.835,1.382,1.382,0,0,0,1.835.481l6.5-2.881a1.344,1.344,0,0,0,.481-1.834" transform="translate(996.401 3631.508)" fill="#ffedee"/>
    <path id="Trazado_883742" data-name="Trazado 883742" d="M168.824,455.888a13.583,13.583,0,0,1-1.739.1c-.291,0-.58-.014-.87-.036-.125-.009-.248-.02-.372-.032l-.223-.025a14.421,14.421,0,0,1-1.621-.339q-.419-.116-.832-.259c-.118-.041-.234-.083-.351-.128-.044-.017-.5-.207-.255-.1a1.378,1.378,0,0,0-1.835.481,1.355,1.355,0,0,0,.481,1.834,14.784,14.784,0,0,0,7.618,1.185,1.374,1.374,0,0,0,1.341-1.34c-.029-.655-.6-1.43-1.341-1.341" transform="translate(996.484 3631.439)" fill="#ffedee"/>
    <path id="Trazado_883743" data-name="Trazado 883743" d="M170.152,440.6c-.071-.081-.14-.166-.208-.249.028.031-.156-.2-.184-.241q-.249-.353-.467-.726t-.4-.763c-.027-.057-.24-.473-.081-.175a2.7,2.7,0,0,1-.135-.352,9.759,9.759,0,0,1-.433-1.614c-.012-.066-.109-.532-.033-.177a3.219,3.219,0,0,1-.042-.429c-.022-.288-.03-.574-.027-.863a1.341,1.341,0,1,0-2.681,0,11.313,11.313,0,0,0,2.8,7.487,1.348,1.348,0,0,0,1.9,0,1.374,1.374,0,0,0,0-1.9" transform="translate(996.513 3631.316)" fill="#ffedee"/>
    <path id="Trazado_883744" data-name="Trazado 883744" d="M156.32,418.409a1.365,1.365,0,0,0-1.648.936q-1.062,3.707-2.123,7.414a1.341,1.341,0,1,0,2.585.712q1.061-3.707,2.123-7.414a1.356,1.356,0,0,0-.936-1.648" transform="translate(996.438 3631.228)" fill="#ffedee"/>
    <path id="Trazado_883745" data-name="Trazado 883745" d="M176.113,415.4a12.711,12.711,0,0,0-7.678.056,1.341,1.341,0,0,0,.713,2.586,11.413,11.413,0,0,1,1.716-.426c.038-.007.207-.028.239-.033.094-.011.188-.021.283-.029q.441-.038.883-.041.412,0,.822.023c.148.009.295.021.442.036l.225.031a12.427,12.427,0,0,1,1.642.382,1.353,1.353,0,0,0,1.649-.936,1.369,1.369,0,0,0-.936-1.648" transform="translate(996.524 3631.208)" fill="#ffedee"/>
    <path id="Trazado_883746" data-name="Trazado 883746" d="M187.558,437.539a21.475,21.475,0,0,0-5.258-4.661,1.354,1.354,0,0,0-1.835.481,1.371,1.371,0,0,0,.481,1.835q.692.438,1.348.926l.135.1,0,0c.113.09.224.179.335.271q.315.261.621.534a20.334,20.334,0,0,1,2.275,2.4,1.345,1.345,0,0,0,.948.392,1.339,1.339,0,0,0,1.34-1.341,1.542,1.542,0,0,0-.392-.947" transform="translate(996.599 3631.311)" fill="#ffedee"/>
    <path id="Trazado_883747" data-name="Trazado 883747" d="M190.848,457.432c-.118-.083-.235-.168-.351-.254-.016-.012-.2-.153-.092-.068l-.049-.039q-.339-.27-.666-.555-.65-.573-1.243-1.207-.3-.317-.575-.649-.14-.166-.276-.335l-.088-.11c-.35-.477-.688-.959-1-1.463A1.341,1.341,0,1,0,184.2,454.1a19.233,19.233,0,0,0,5.3,5.642,1.346,1.346,0,0,0,1.834-.482,1.376,1.376,0,0,0-.481-1.834" transform="translate(996.62 3631.422)" fill="#ffedee"/>
    <path id="Trazado_883748" data-name="Trazado 883748" d="M178.717,471.595a1.37,1.37,0,0,0-1.341-1.341,1.354,1.354,0,0,0-1.34,1.341l.633,6.943a1.37,1.37,0,0,0,1.341,1.341,1.355,1.355,0,0,0,1.34-1.341Z" transform="translate(996.574 3631.528)" fill="#ffedee"/>
    <path id="Trazado_883749" data-name="Trazado 883749" d="M161.861,480.2a1.369,1.369,0,0,0-1.648.936,14.924,14.924,0,0,0-.12,8.62,1.341,1.341,0,1,0,2.585-.713,12.094,12.094,0,0,1,.12-7.194,1.352,1.352,0,0,0-.936-1.648" transform="translate(996.479 3631.585)" fill="#ffedee"/>
    <path id="Trazado_883750" data-name="Trazado 883750" d="M185.145,488.011a50.6,50.6,0,0,0-10.277.642,1.351,1.351,0,0,0-.936,1.648,1.373,1.373,0,0,0,1.649.936,47.194,47.194,0,0,1,9.564-.546,1.34,1.34,0,1,0,0-2.68" transform="translate(996.562 3631.63)" fill="#ffedee"/>
    <path id="Trazado_883751" data-name="Trazado 883751" d="M164.675,226.724a1.376,1.376,0,0,0-1.648.936c-.045.118-.092.234-.138.351-.024.052-.047.106-.07.158q-.178.388-.38.763a12.875,12.875,0,0,1-.879,1.408l-.107.145c-.012.017-.054.072-.082.11l-.008.011-.142.174q-.258.311-.535.605a12.974,12.974,0,0,1-1.247,1.162,1.346,1.346,0,0,0,0,1.9,1.379,1.379,0,0,0,1.9,0,14.346,14.346,0,0,0,4.278-6.071,1.347,1.347,0,0,0-.936-1.648" transform="translate(996.476 3630.119)" fill="#ffedee"/>
    <path id="Trazado_883752" data-name="Trazado 883752" d="M91.341,228.681c-2.261,2.059-4.592,4.043-6.885,6.069a62.47,62.47,0,0,1,6.035,39.041c-1.426,8.055-4.228,16.331-10.029,22.3-5.226,5.38-11.965,8.922-18.271,12.845-12.5,7.779-24.841,17.351-31.93,30.568-6.395,11.921-8.07,26.25-2.65,38.686q4.191-1.542,8.4-3.025c-6.391-13.551-1.09-29.457,8.3-40.34C54.632,322.879,68.692,316.751,81,307.4c23.7-18.008,23.7-54.19,10.339-78.718" transform="translate(995.697 3630.131)" fill="#169f70"/>
    <path id="Trazado_883753" data-name="Trazado 883753" d="M175.19,333.579c-.112,12.925-1.85,25.738-3.817,38.493,2.889.717,5.762,1.5,8.634,2.285,2.1-13.507,4.009-27.1,4.12-40.778.117-14.5-2.27-28.858-5.214-43.014-4.571-21.985-11.667-43.907-25.1-61.979-4.267-.464-8.538-.893-12.784-1.521,16.658,18.187,24.343,42.177,29.271,65.876,2.787,13.4,5.013,26.913,4.894,40.639" transform="translate(996.371 3630.122)" fill="#169f70"/>
    <path id="Trazado_883754" data-name="Trazado 883754" d="M96.282,241.815a.457.457,0,0,0-.55-.312,32.934,32.934,0,0,0-3.9.964c-.547.172-.314,1.035.237.862a33.308,33.308,0,0,1,3.9-.965.45.45,0,0,0,.312-.549" transform="translate(996.085 3630.205)" fill="#7000d2"/>
    <path id="Trazado_883755" data-name="Trazado 883755" d="M98.656,247.959a37.183,37.183,0,0,0-5.648.857c-.56.13-.323.992.237.862a35.622,35.622,0,0,1,5.411-.826c.57-.042.574-.935,0-.893" transform="translate(996.092 3630.242)" fill="#7000d2"/>
    <path id="Trazado_883756" data-name="Trazado 883756" d="M99.8,255.254a15.676,15.676,0,0,0-3.1.313.447.447,0,0,0,.238.862,14.421,14.421,0,0,1,2.863-.282.447.447,0,1,0,0-.893" transform="translate(996.113 3630.285)" fill="#7000d2"/>
    <path id="Trazado_883757" data-name="Trazado 883757" d="M100.127,262.617q-1.9.238-3.8.385a.458.458,0,0,0-.447.447.449.449,0,0,0,.447.447q1.907-.146,3.8-.385a.46.46,0,0,0,.447-.447.449.449,0,0,0-.447-.447" transform="translate(996.11 3630.327)" fill="#7000d2"/>
    <path id="Trazado_883758" data-name="Trazado 883758" d="M99.628,267.427a7.279,7.279,0,0,1-1.1.021c-.093-.005-.186-.012-.279-.021l-.129-.014-.066-.008c-.181-.025-.36-.058-.538-.1a.447.447,0,0,0-.237.862,7.7,7.7,0,0,0,2.347.15.447.447,0,0,0,0-.893" transform="translate(996.117 3630.354)" fill="#7000d2"/>
    <path id="Trazado_883759" data-name="Trazado 883759" d="M183.363,322.293l-3.6.16a.456.456,0,0,0-.447.448.451.451,0,0,0,.447.447l3.6-.161a.447.447,0,1,0,0-.893" transform="translate(996.593 3630.672)" fill="#7000d2"/>
    <path id="Trazado_883760" data-name="Trazado 883760" d="M183.384,318.535a32.5,32.5,0,0,0-6.71.572c-.564.108-.325.969.237.862a31.325,31.325,0,0,1,6.472-.541.447.447,0,0,0,0-.893" transform="translate(996.576 3630.65)" fill="#7000d2"/>
    <path id="Trazado_883761" data-name="Trazado 883761" d="M183.5,329.076a22.45,22.45,0,0,0-4.839.206.451.451,0,0,0-.312.55.458.458,0,0,0,.55.312,21.394,21.394,0,0,1,4.6-.175.449.449,0,0,0,.447-.447.455.455,0,0,0-.447-.447" transform="translate(996.587 3630.711)" fill="#7000d2"/>
    <path id="Trazado_883762" data-name="Trazado 883762" d="M183.962,337.2a6.483,6.483,0,0,0-3.21-.18.451.451,0,0,0-.312.55.456.456,0,0,0,.549.312,5.54,5.54,0,0,1,2.736.18.45.45,0,0,0,.549-.313.455.455,0,0,0-.312-.549" transform="translate(996.6 3630.756)" fill="#7000d2"/>
    <path id="Trazado_883763" data-name="Trazado 883763" d="M182.988,343.626a15.909,15.909,0,0,0-4.709-.2.461.461,0,0,0-.448.447.451.451,0,0,0,.448.448,15.089,15.089,0,0,1,4.472.171.458.458,0,0,0,.549-.313.45.45,0,0,0-.312-.549" transform="translate(996.584 3630.793)" fill="#7000d2"/>
    <path id="Trazado_883764" data-name="Trazado 883764" d="M182.495,348.978l-2.366-.333a.459.459,0,0,0-.549.313.451.451,0,0,0,.312.549l2.366.333a.46.46,0,0,0,.549-.312.452.452,0,0,0-.312-.55" transform="translate(996.595 3630.825)" fill="#7000d2"/>
    <path id="Trazado_883765" data-name="Trazado 883765" d="M181.767,354.93l-4.84-.533a.45.45,0,0,0-.448.447.457.457,0,0,0,.448.447l4.84.533a.449.449,0,0,0,.447-.447.456.456,0,0,0-.447-.447" transform="translate(996.576 3630.858)" fill="#7000d2"/>
    <path id="Trazado_883766" data-name="Trazado 883766" d="M93.075,220.182q-1.112,4.8-1.886,9.687c-1.09-2.287-3.235-3.95-5.415-5.308a59.233,59.233,0,0,0-6.639-3.548l.911-1.939a20.825,20.825,0,0,0,13.029,1.108" transform="translate(996.014 3630.075)" fill="#7000d2"/>
    <path id="Trazado_883767" data-name="Trazado 883767" d="M148.24,118.642a3.478,3.478,0,0,0-1.689-2.493,3.815,3.815,0,0,0-2.824.269,31.184,31.184,0,0,0-7.962,4.522l-.053-.071a19,19,0,0,0-.143-20.571,4.433,4.433,0,0,0-2.511-2.074c-1.833-.375-3.369,1.306-4.575,2.735a42.2,42.2,0,0,1-10.7,9.079c-7.11,4.23-15.171,6.229-23.357,7.928q-1.033.047-2.07.052c-11.04.054-23.43-2.591-33.331,3.811a22.58,22.58,0,0,0-8.535,10.3c-.039-.555-.085-1.11-.164-1.664a13.15,13.15,0,0,0-.848-3.552,2.209,2.209,0,0,0-2.4-1.356,5.441,5.441,0,0,0-2.724,1.449A13.022,13.022,0,0,0,41,132.339a36.933,36.933,0,0,0-1.718,6.521,45.59,45.59,0,0,0,3.3,26.322,43.176,43.176,0,0,0,3.625,6.551c.694,1.03,1.426,2.045,2.22,3,.021.026.05.047.072.072a12.345,12.345,0,0,0-1.2.851,19.775,19.775,0,0,0-2.345,2.13,20.644,20.644,0,0,0-3.5,5.092A20.033,20.033,0,0,0,39.7,194.948a20.429,20.429,0,0,0,5.974,11.328,31.759,31.759,0,0,0,5.764,4.331,27.14,27.14,0,0,0,6.751,2.611c1.195.329,2.376.7,3.547,1.091,1.843.865,3.715,1.67,5.592,2.434,1.986.808,3.988,1.587,5.979,2.389.309.149.618.3.925.449a.434.434,0,0,0,.26.038c1.638.669,3.27,1.354,4.872,2.093l.911-1.939a20.036,20.036,0,0,1-3.351-1.85,12.732,12.732,0,0,1-4.762-5.5,7.383,7.383,0,0,1,.607-7.042,7.92,7.92,0,0,1,3.95-2.689,8.4,8.4,0,0,1,7.676.938,44.21,44.21,0,0,0-2.3-12.072,45.223,45.223,0,0,0,29.525-6.309,15.2,15.2,0,0,0,4.057-3.36,2.739,2.739,0,0,0,.7-1.652c-.018-1.439-1.778-2.109-3.208-2.315a42.963,42.963,0,0,0-9.7-.295l-.009-.152a36.967,36.967,0,0,0,27.649-15.9c.777-1.153,1.421-2.9.34-3.771a2.805,2.805,0,0,0-1.618-.465,20.7,20.7,0,0,0-5.647.482l-.071-.3a20.787,20.787,0,0,0,8.016-4.45c.911-.742,1.787-1.529,2.636-2.341a45.093,45.093,0,0,0,13.413-24.28,18.667,18.667,0,0,0,.053-7.8M54.657,211.2a24.915,24.915,0,0,1-5.993-3.56,20.53,20.53,0,0,1-7.481-10.317,19.146,19.146,0,0,1,.2-11.956,19.664,19.664,0,0,1,5.5-8.2c.163-.144.34-.27.507-.408a17.909,17.909,0,0,0-5.767,11.6c-.545,6.836,3,13.5,8.016,18.176a40.292,40.292,0,0,0,7.774,5.556c-.926-.266-1.848-.544-2.746-.89m8.555-83.609A47.623,47.623,0,0,0,45.6,147.167a25.142,25.142,0,0,0-2.868,8.953c-.54,6.063,2.284,11.744,5.567,17-.561-.742-1.1-1.5-1.612-2.277a43.226,43.226,0,0,1-2.965-5.309,44.773,44.773,0,0,1-3.958-23.762,41.681,41.681,0,0,1,1.117-6.035,22.568,22.568,0,0,1,2.135-5.635,9.613,9.613,0,0,1,2.1-2.574c.766-.641,2.265-1.668,3.2-.784a2.961,2.961,0,0,1,.654,1.446q.255.981.419,1.984a22.647,22.647,0,0,1,.274,4.349.449.449,0,0,0,.878.12,21.643,21.643,0,0,1,8.226-11.565c4.41-3.112,9.818-4.285,15.128-4.582,5.347-.3,10.684.25,16.028.382-9.34,1.882-18.647,3.835-26.71,8.707" transform="translate(995.779 3629.376)" fill="#66494a"/>
    <path id="Trazado_883768" data-name="Trazado 883768" d="M91.235,230.266q.763-4.879,1.886-9.687a20.832,20.832,0,0,1-13.029-1.108,20,20,0,0,1-3.351-1.85,12.728,12.728,0,0,1-4.763-5.5,7.381,7.381,0,0,1,.607-7.041,7.919,7.919,0,0,1,3.95-2.69,8.4,8.4,0,0,1,7.677.938,44.218,44.218,0,0,0-2.3-12.072,45.22,45.22,0,0,0,29.526-6.309,15.191,15.191,0,0,0,4.056-3.36,2.736,2.736,0,0,0,.7-1.652c-.017-1.439-1.778-2.109-3.207-2.314a42.964,42.964,0,0,0-9.7-.3l-.009-.152a36.965,36.965,0,0,0,27.648-15.9c.777-1.153,1.421-2.9.34-3.771a2.8,2.8,0,0,0-1.617-.465,20.654,20.654,0,0,0-5.647.483l-.071-.3a20.777,20.777,0,0,0,8.015-4.45c.912-.742,1.787-1.529,2.636-2.341a79.208,79.208,0,0,1,20.643,45.9c.742,7.775.071,16.318-5.04,22.225A22.318,22.318,0,0,1,137.74,225.4a27.373,27.373,0,0,0,1.644,4.217,28.1,28.1,0,0,0,5.906,8.069,5.79,5.79,0,0,0,1.672,1.207,135.031,135.031,0,0,1-5.808,29.034,120.857,120.857,0,0,1-50.008-37.05c.027-.205.053-.411.09-.607" transform="translate(995.969 3629.678)" fill="#ffd7d9"/>
    <path id="Trazado_883769" data-name="Trazado 883769" d="M91.343,220.864c-.168-.548-1.031-.315-.862.237a56.117,56.117,0,0,1,2.561,11.37,23.591,23.591,0,0,1-.149,5.852,11.4,11.4,0,0,1-1.854,5.144,3.577,3.577,0,0,1-4.369,1.328,7.12,7.12,0,0,1-2.959-3.664,25.364,25.364,0,0,1-1.816-10.8,35.153,35.153,0,0,1,2.463-12.612c.215-.533-.649-.765-.862-.238a35.548,35.548,0,0,0-2.476,12.131A27.206,27.206,0,0,0,82.8,241.258a8.927,8.927,0,0,0,2.937,4.02,4.121,4.121,0,0,0,4.593.038A7.471,7.471,0,0,0,93.2,240.97a21.154,21.154,0,0,0,.842-6.118c-.008-4.778-1.315-9.452-2.7-13.987" transform="translate(996.024 3630.064)" fill="#86cdb5"/>
    <path id="Trazado_883770" data-name="Trazado 883770" d="M144.97,188.078l-2.575-2.445-10.056-9.551-5.711-5.425c-.417-.4-1.05.235-.633.632l18.664,17.727c.184.176.527.363.421.662a3.378,3.378,0,0,1-.56.728l-1.085,1.4-2.305,2.976c-.348.449.28,1.086.632.632l2.17-2.8q.474-.614.949-1.226a12.784,12.784,0,0,0,1.01-1.322c.5-.861-.358-1.451-.922-1.987" transform="translate(996.284 3629.794)" fill="#f6c0b8"/>
    <path id="Trazado_883771" data-name="Trazado 883771" d="M137.165,225.446a41.978,41.978,0,0,1-26.678-1.208,26.135,26.135,0,0,1-6.708-3.674c-.448-.352-1.084.277-.632.632a32.342,32.342,0,0,0,12.523,5.6,42.76,42.76,0,0,0,21.732-.484.447.447,0,0,0-.237-.862" transform="translate(996.151 3630.083)" fill="#f6c0b8"/>
    <path id="Trazado_883772" data-name="Trazado 883772" d="M121.692,185.151a9.7,9.7,0,0,1-9.6,7.635.447.447,0,0,0,0,.893,10.6,10.6,0,0,0,10.465-8.291c.122-.56-.739-.8-.862-.237" transform="translate(996.201 3629.877)" fill="#12263f"/>
    <path id="Trazado_883773" data-name="Trazado 883773" d="M142.4,163.574c-.063-.565-.957-.571-.893,0a5.342,5.342,0,0,1-.946,3.141,13.54,13.54,0,0,1-1.7,2.374A13.984,13.984,0,0,1,134.2,172.5c-.523.237-.069,1.008.451.771a14.673,14.673,0,0,0,6.823-6.362,5.845,5.845,0,0,0,.927-3.338" transform="translate(996.331 3629.751)" fill="#12263f"/>
    <path id="Trazado_883774" data-name="Trazado 883774" d="M127.658,208.553a9.771,9.771,0,1,1-9.771-9.771,9.772,9.772,0,0,1,9.771,9.771" transform="translate(996.182 3629.958)" fill="#ffd1d3"/>
    <path id="Trazado_883775" data-name="Trazado 883775" d="M143.781,207.972a5.582,5.582,0,1,1-5.575-5.286,5.436,5.436,0,0,1,5.575,5.286" transform="translate(996.323 3629.98)" fill="#ffb6b9"/>
    <path id="Trazado_883776" data-name="Trazado 883776" d="M146.688,201.487a14.719,14.719,0,0,1-16.205,6.541.447.447,0,0,0-.238.862,15.634,15.634,0,0,0,17.215-6.952c.3-.492-.473-.941-.771-.451" transform="translate(996.308 3629.972)" fill="#f6c0b8"/>
    <path id="Trazado_883779" data-name="Trazado 883779" d="M103.635,293.355a42.105,42.105,0,0,0-2.195-6.477c-.226-.527-1-.072-.771.451a41.5,41.5,0,0,1,1.174,29.593c-.183.546.68.78.862.237a42.738,42.738,0,0,0,.93-23.8" transform="translate(996.138 3630.466)" fill="#e8624e"/>
    <path id="Trazado_883780" data-name="Trazado 883780" d="M36.188,263.706a29.5,29.5,0,0,0-4.943,18.328,29.007,29.007,0,0,0,.879,5.429.447.447,0,0,0,.862-.237,28.354,28.354,0,0,1,3.974-23.07c.324-.477-.451-.924-.771-.451" transform="translate(1082.503 3632.148)" fill="#e8624e"/>
    <path id="Trazado_883781" data-name="Trazado 883781" d="M36.19,286.04a17.518,17.518,0,0,1-.243-9.83.447.447,0,0,0-.861-.237,18.391,18.391,0,0,0,.242,10.3c.174.546,1.037.313.862-.237" transform="translate(1082.521 3632.218)" fill="#e8624e"/>
    <path id="Trazado_883782" data-name="Trazado 883782" d="M149.3,241.839a136.829,136.829,0,0,1-5.337,24.591c-.666,2.109-1.389,4.2-2.154,6.273a124.133,124.133,0,0,1-30.7-14.1q-4.063-2.59-7.917-5.491c-.46-.346-.906.429-.452.771a124.988,124.988,0,0,0,30.016,16.654q4.541,1.756,9.21,3.149a.457.457,0,0,0,.549-.312,137.4,137.4,0,0,0,6.645-24.5q.608-3.5,1.035-7.035c.07-.569-.824-.564-.893,0" transform="translate(996.148 3630.205)" fill="#e8624e"/>
    <path id="Trazado_883783" data-name="Trazado 883783" d="M76.791,367.158c-5.684-9.222-10.607-19-15.451-28.7-.071-.143-.143-.278-.214-.42a206.826,206.826,0,0,0,40.927-19.249,130.091,130.091,0,0,1,8.8,19.267q23.149-39.141,50.025-75.931c2.932-16.773,12.734-32.028,26.023-42.688.75-.6,1.51-1.189,2.287-1.761A42.751,42.751,0,0,1,204.2,210.2a14.871,14.871,0,0,1,8.409-.027,7.423,7.423,0,0,1,5.084,5.854,11.473,11.473,0,0,1,2.056-.26,6.709,6.709,0,0,1,3.154.357,4.613,4.613,0,0,1,2.252,5.192,8.638,8.638,0,0,1-3.414,4.728c1.43.553,2.967,1.286,3.494,2.717a3.72,3.72,0,0,1-.179,2.717,8.925,8.925,0,0,1-1.59,2.278A29.048,29.048,0,0,1,217.215,239a8.951,8.951,0,0,1,2.341,3.3,6.112,6.112,0,0,1-.4,4.432,13.386,13.386,0,0,1-2.708,3.628c-4.378,4.432-9.9,7.542-15.468,10.348-5.192,2.618-10.491,5.031-15.906,7.149l-.1-1.332c-.223.545-.447,1.081-.671,1.626-14.672,35.691-24.842,73.375-43.367,107.226-3.566,6.514-7.541,13-13.279,17.73s-13.574,7.453-20.731,5.459c-5.184-1.447-9.428-5.139-13.155-9.017a131.008,131.008,0,0,1-16.979-22.394" transform="translate(995.909 3630.02)" fill="#ffd7d9"/>
    <path id="Trazado_883784" data-name="Trazado 883784" d="M215.362,238.68l-7.05,3.455c-.516.253-.064,1.025.451.772l7.05-3.456c.517-.252.064-1.024-.451-.771" transform="translate(996.76 3630.188)" fill="#7000d2"/>
    <path id="Trazado_883785" data-name="Trazado 883785" d="M220.124,226.489l-5.387,2.64c-.517.253-.064,1.024.451.771l5.387-2.64c.517-.252.064-1.024-.451-.771" transform="translate(996.797 3630.118)" fill="#7000d2"/>
    <path id="Trazado_883786" data-name="Trazado 883786" d="M216.74,216.79a.454.454,0,0,0-.632,0,17.249,17.249,0,0,1-3.169,2.316.447.447,0,0,0,.451.772,18.279,18.279,0,0,0,3.35-2.457.452.452,0,0,0,0-.632" transform="translate(996.786 3630.061)" fill="#7000d2"/>
    <path id="Trazado_883787" data-name="Trazado 883787" d="M109.212,338.018q-3.1,6.238-6.68,12.219a.447.447,0,0,0,.771.452q3.579-5.976,6.68-12.22c.255-.513-.515-.967-.771-.451" transform="translate(996.148 3630.762)" fill="#7000d2"/>
    <path id="Trazado_883801" data-name="Trazado 883801" d="M322.867,394.526A143.514,143.514,0,0,1,343.5,429.332q-32.773,21.689-67.272,40.606c-1.921-52.786-13.163-105.859-4.5-157.947a210.549,210.549,0,0,1,41.741-94.8,43.59,43.59,0,0,0,4.7,2.69,108.392,108.392,0,0,0,15.942,5.862c-9.275,13.127-17.613,27.139-22.17,42.537-4.647,15.683-5.111,33.019,1.286,48.067,2.53,5.934,6.309,11.644,11.966,14.754,4.6,2.53,10.634,2.859,15.12.358q-8.337,31.634-17.443,63.063" transform="translate(997.108 3630.064)" fill="#f3aca1"/>
    <path id="Trazado_883802" data-name="Trazado 883802" d="M112.214,501.319q40.535-105.358,84.3-209.447a73.982,73.982,0,0,0-2.6,15.255c-.777,13.887,3.36,27.532,7.694,40.74q7.8,23.833,16.675,47.317a149.019,149.019,0,0,0-31.616,106.135Z" transform="translate(996.205 3630.496)" fill="#525252"/>
    <path id="Trazado_883803" data-name="Trazado 883803" d="M334.594,225.921c2.011.626,4.021,1.26,6.014,1.948,7.588,2.627,15.147,6.238,20.3,12.385,6.979,8.329,8.426,20.419,5.3,30.821-2.887,9.624-9.258,17.891-16.925,24.431q-4.478,17.989-9.2,35.906c-4.486,2.5-10.517,2.171-15.12-.358-5.657-3.11-9.436-8.82-11.966-14.754-6.4-15.049-5.933-32.384-1.286-48.067,4.557-15.4,12.9-29.409,22.17-42.537.241.071.474.143.715.223" transform="translate(997.338 3630.114)" fill="#86cdb5"/>
    <path id="Trazado_883804" data-name="Trazado 883804" d="M276.708,470.135q34.463-18.887,67.272-40.606A147,147,0,0,1,354.6,501.948H186.238a149.023,149.023,0,0,1,31.616-106.135q-8.859-23.472-16.675-47.317c-4.334-13.208-8.471-26.853-7.693-40.74a73.978,73.978,0,0,1,2.6-15.255c.053-.134.117-.268.17-.4a.366.366,0,0,0-.036-.089c4.9-17.838,14.549-34.816,15.648-53.323.295-.143.58-.278.866-.42,6.935-3.36,14.227-6.425,19.759-11.787,5.845-5.657,9.231-13.475,10.857-21.447,1.456-7.157,1.6-14.5,1.555-21.813H293.66c.152,13.727,8.623,26.595,20.285,34.173a210.55,210.55,0,0,0-41.741,94.8c-8.659,52.089,2.583,105.162,4.5,157.948" transform="translate(996.629 3629.868)" fill="#86cdb5"/>
    <path id="Trazado_883805" data-name="Trazado 883805" d="M194.6,251.834c3.977-6.229,10.589-10.188,17.237-13.466-1.1,18.506-10.75,35.485-15.647,53.322-2.323-6.076-4.513-12.242-5.388-18.685-.976-7.256-.135-15,3.8-21.17" transform="translate(996.657 3630.187)" fill="#525252"/>
    <path id="Trazado_883806" data-name="Trazado 883806" d="M328.514,227.691l-2.754,4.345c-.309.487.465.936.771.451l2.754-4.345c.309-.487-.464-.935-.771-.451" transform="translate(997.439 3630.124)" fill="#e8624e"/>
    <path id="Trazado_883807" data-name="Trazado 883807" d="M323.524,236.254a.458.458,0,0,0-.612.161,24.006,24.006,0,0,0-2.465,4.321.462.462,0,0,0,.161.612.451.451,0,0,0,.611-.16,23.978,23.978,0,0,1,2.465-4.322.451.451,0,0,0-.16-.612" transform="translate(997.409 3630.174)" fill="#e8624e"/>
    <path id="Trazado_883808" data-name="Trazado 883808" d="M316.875,246.823a38.328,38.328,0,0,0-2.515,5.405.451.451,0,0,0,.313.55.456.456,0,0,0,.549-.313,36.906,36.906,0,0,1,2.425-5.192.447.447,0,0,0-.771-.451" transform="translate(997.374 3630.234)" fill="#e8624e"/>
    <path id="Trazado_883809" data-name="Trazado 883809" d="M311.246,258.784q-1.092,3.141-2.184,6.282c-.19.545.673.778.861.238l2.185-6.283c.189-.544-.674-.779-.862-.237" transform="translate(997.344 3630.303)" fill="#e8624e"/>
    <path id="Trazado_883810" data-name="Trazado 883810" d="M307.559,272.275a.45.45,0,0,0-.549.312q-.483,2.735-.965,5.47a.461.461,0,0,0,.313.55.451.451,0,0,0,.549-.312q.481-2.735.964-5.471a.458.458,0,0,0-.312-.549" transform="translate(997.326 3630.383)" fill="#e8624e"/>
    <path id="Trazado_883811" data-name="Trazado 883811" d="M304.565,287.043q-.1,2.9-.2,5.8c-.019.575.874.574.894,0l.2-5.8c.02-.575-.873-.574-.893,0" transform="translate(997.316 3630.466)" fill="#e8624e"/>
    <path id="Trazado_883812" data-name="Trazado 883812" d="M306.094,305.073a44.238,44.238,0,0,1-.753-5.19c-.047-.568-.941-.573-.893,0a46.1,46.1,0,0,0,.785,5.427c.117.563.978.325.862-.237" transform="translate(997.316 3630.54)" fill="#e8624e"/>
    <path id="Trazado_883813" data-name="Trazado 883813" d="M308.917,316.145a30.013,30.013,0,0,1-1.752-5.521c-.122-.562-.984-.325-.862.236a31.122,31.122,0,0,0,1.843,5.736.45.45,0,0,0,.612.16.458.458,0,0,0,.16-.612" transform="translate(997.327 3630.603)" fill="#e8624e"/>
    <path id="Trazado_883814" data-name="Trazado 883814" d="M314.359,325.677q-1.332-2.065-2.663-4.132c-.311-.482-1.085-.034-.772.452l2.664,4.131c.311.482,1.084.034.771-.451" transform="translate(997.354 3630.667)" fill="#e8624e"/>
    <path id="Trazado_883815" data-name="Trazado 883815" d="M323.4,334.1a45.825,45.825,0,0,1-5.093-3.679.46.46,0,0,0-.632,0,.451.451,0,0,0,0,.633,47.679,47.679,0,0,0,5.274,3.818c.489.306.938-.468.451-.771" transform="translate(997.393 3630.718)" fill="#e8624e"/>
    <path id="Trazado_883816" data-name="Trazado 883816" d="M333.648,336.192a.458.458,0,0,0-.55-.312,22.489,22.489,0,0,1-4.36.172c-.575-.031-.573.862,0,.894a23.681,23.681,0,0,0,4.6-.205.448.448,0,0,0,.312-.549" transform="translate(997.455 3630.75)" fill="#e8624e"/>
    <path id="Trazado_883817" data-name="Trazado 883817" d="M320.224,394.251l-5.422,3.058a.447.447,0,0,0,.452.771l5.421-3.058a.447.447,0,0,0-.451-.771" transform="translate(997.375 3631.088)" fill="#e8624e"/>
    <path id="Trazado_883818" data-name="Trazado 883818" d="M308.605,400.669l-4.21,2.505a.447.447,0,0,0,.451.771l4.21-2.505a.447.447,0,0,0-.451-.771" transform="translate(997.315 3631.125)" fill="#e8624e"/>
    <path id="Trazado_883819" data-name="Trazado 883819" d="M297.461,406.3l-4.7,3.017c-.482.31-.034,1.083.452.771l4.7-3.017c.483-.31.035-1.083-.451-.771" transform="translate(997.248 3631.158)" fill="#e8624e"/>
    <path id="Trazado_883820" data-name="Trazado 883820" d="M286.428,412.85a.458.458,0,0,0-.632,0,35.624,35.624,0,0,1-4.377,2.915.447.447,0,0,0,.451.771,37.065,37.065,0,0,0,4.558-3.055.449.449,0,0,0,0-.632" transform="translate(997.183 3631.195)" fill="#e8624e"/>
    <path id="Trazado_883821" data-name="Trazado 883821" d="M294.659,251.717a.452.452,0,0,0-.612.16q-.984,2.117-1.968,4.232a.461.461,0,0,0,.16.611.451.451,0,0,0,.612-.161l1.968-4.231a.459.459,0,0,0-.16-.612" transform="translate(997.245 3630.264)" fill="#e8624e"/>
    <path id="Trazado_883822" data-name="Trazado 883822" d="M288.117,265.838q-1.343,4.107-2.684,8.213c-.179.548.684.784.862.238q1.343-4.107,2.684-8.214c.179-.548-.684-.783-.862-.237" transform="translate(997.207 3630.344)" fill="#e8624e"/>
    <path id="Trazado_883823" data-name="Trazado 883823" d="M282.433,283.128q-1.059,3.5-2.119,6.991a.447.447,0,0,0,.862.237q1.059-3.5,2.119-6.991a.447.447,0,0,0-.862-.237" transform="translate(997.177 3630.444)" fill="#e8624e"/>
    <path id="Trazado_883824" data-name="Trazado 883824" d="M278.17,298.43q-1.015,4.445-1.652,8.964c-.079.562.782.806.861.237q.637-4.514,1.652-8.964c.128-.559-.734-.8-.862-.237" transform="translate(997.155 3630.532)" fill="#e8624e"/>
    <path id="Trazado_883825" data-name="Trazado 883825" d="M274.651,316.6a51.791,51.791,0,0,1-.774,7.6c-.1.562.761.8.862.237a53.353,53.353,0,0,0,.806-7.836.447.447,0,0,0-.893,0" transform="translate(997.14 3630.637)" fill="#e8624e"/>
    <path id="Trazado_883826" data-name="Trazado 883826" d="M273.115,332.41q-.161,3.227-.325,6.455c-.028.574.865.573.894,0q.161-3.227.324-6.455c.029-.574-.864-.573-.893,0" transform="translate(997.134 3630.728)" fill="#e8624e"/>
    <path id="Trazado_883827" data-name="Trazado 883827" d="M272.878,347.043a.45.45,0,0,0-.549.312,25.034,25.034,0,0,0-.243,5.831c.044.569.938.574.894,0a24.1,24.1,0,0,1,.21-5.593.46.46,0,0,0-.312-.549" transform="translate(997.129 3630.815)" fill="#e8624e"/>
    <path id="Trazado_883828" data-name="Trazado 883828" d="M271.815,360.318v6.708a.447.447,0,0,0,.893,0v-6.708a.447.447,0,0,0-.893,0" transform="translate(997.128 3630.889)" fill="#e8624e"/>
    <path id="Trazado_883829" data-name="Trazado 883829" d="M273.795,375.881a.447.447,0,0,0-.893,0q.083,3.352-.139,6.7c-.038.574.855.572.893,0q.223-3.345.139-6.7" transform="translate(997.134 3630.979)" fill="#e8624e"/>
    <path id="Trazado_883830" data-name="Trazado 883830" d="M274.79,391.429c-.049-.568-.943-.573-.893,0l.5,5.735c.049.568.943.574.893,0Z" transform="translate(997.14 3631.069)" fill="#e8624e"/>
    <path id="Trazado_883831" data-name="Trazado 883831" d="M276.315,406.517c-.073-.562-.969-.569-.893,0q.52,3.971,1.042,7.943c.073.562.968.57.893,0q-.52-3.971-1.042-7.943" transform="translate(997.148 3631.157)" fill="#e8624e"/>
    <path id="Trazado_883832" data-name="Trazado 883832" d="M277.876,424.782c-.018-.573-.911-.576-.893,0q.149,4.859.776,9.686c.073.562.968.57.894,0q-.628-4.82-.777-9.686" transform="translate(997.158 3631.262)" fill="#e8624e"/>
    <path id="Trazado_883833" data-name="Trazado 883833" d="M279.531,445.29c-.049-.568-.943-.573-.893,0q.279,3.227.559,6.453c.049.569.943.574.894,0q-.281-3.226-.56-6.453" transform="translate(997.167 3631.381)" fill="#e8624e"/>
    <path id="Trazado_883834" data-name="Trazado 883834" d="M304.567,214.154a24.319,24.319,0,0,1-5.619,4.482,61.867,61.867,0,0,1-5.971,3.242,66.623,66.623,0,0,1-12.927,4.529,78.936,78.936,0,0,1-27.306,1.533q-3.853-.436-7.654-1.226c-2.594-.537-5.327-1.059-7.568-2.55-.48-.32-.928.455-.451.771a19.48,19.48,0,0,0,6.775,2.425q3.431.753,6.916,1.225a84.223,84.223,0,0,0,14.066.741,72.848,72.848,0,0,0,27-5.944,62.233,62.233,0,0,0,6.938-3.587,26.56,26.56,0,0,0,6.438-5.01c.379-.429-.25-1.064-.632-.632" transform="translate(996.926 3630.046)" fill="#ffedee"/>
    <path id="Trazado_883835" data-name="Trazado 883835" d="M289.18,189.657a26.149,26.149,0,0,1-.719-3.709.46.46,0,0,0-.447-.447.449.449,0,0,0-.447.447,27.665,27.665,0,0,0,.75,3.947.447.447,0,0,0,.862-.237" transform="translate(997.219 3629.881)" fill="#ffedee"/>
    <path id="Trazado_883836" data-name="Trazado 883836" d="M290.382,197.451q-.439-2.173-.879-4.345a.452.452,0,0,0-.55-.313.457.457,0,0,0-.312.55q.441,2.173.879,4.345a.447.447,0,1,0,.862-.237" transform="translate(997.226 3629.923)" fill="#ffedee"/>
    <path id="Trazado_883837" data-name="Trazado 883837" d="M292.918,206.6l-1.113-4.473a.447.447,0,0,0-.862.237l1.113,4.473a.447.447,0,0,0,.862-.237" transform="translate(997.238 3629.975)" fill="#ffedee"/>
    <path id="Trazado_883838" data-name="Trazado 883838" d="M296.117,214.762a24.234,24.234,0,0,1-1.692-3.746.459.459,0,0,0-.55-.312.451.451,0,0,0-.312.549,25.659,25.659,0,0,0,1.782,3.959c.28.5,1.052.052.771-.451" transform="translate(997.254 3630.027)" fill="#ffedee"/>
    <path id="Trazado_883839" data-name="Trazado 883839" d="M346.1,294.345c-7.266-3.257-11.468-10.548-13.323-18a61.854,61.854,0,0,1-1.65-13.185,73.557,73.557,0,0,1,.846-13.5c.706-4.472,1.934-8.946,4.591-12.677.335-.47-.441-.916-.771-.452a28.366,28.366,0,0,0-4.422,11.38,72,72,0,0,0-1.164,13.724,66.869,66.869,0,0,0,1.386,13.551,34.038,34.038,0,0,0,4.67,11.673,22.526,22.526,0,0,0,9.387,8.254c.52.233.975-.536.451-.771" transform="translate(997.466 3630.175)" fill="#ffedee"/>
    <path id="Trazado_883840" data-name="Trazado 883840" d="M347.939,290.711a27.293,27.293,0,0,1-12.1-17.008,25.926,25.926,0,0,1-.659-6.01.447.447,0,0,0-.894,0,28.2,28.2,0,0,0,8.328,19.96,26.911,26.911,0,0,0,4.871,3.829c.491.3.94-.471.451-.771" transform="translate(997.489 3630.354)" fill="#ffedee"/>
    <path id="Trazado_883841" data-name="Trazado 883841" d="M231.045,397.275a27.484,27.484,0,0,1-7.248-1.947.463.463,0,0,0-.612.161.448.448,0,0,0,.16.611,29,29,0,0,0,7.7,2.069c.569.072.564-.822,0-.893" transform="translate(996.847 3631.094)" fill="#ffedee"/>
    <path id="Trazado_883842" data-name="Trazado 883842" d="M250.92,399.532a76.775,76.775,0,0,0-8.539-.968c-.575-.033-.573.861,0,.893a74.714,74.714,0,0,1,8.3.936c.562.1.8-.765.237-.862" transform="translate(996.955 3631.113)" fill="#ffedee"/>
    <path id="Trazado_883843" data-name="Trazado 883843" d="M266.029,398.265a65.583,65.583,0,0,1-7.6.852c-.571.03-.575.924,0,.893a67.673,67.673,0,0,0,7.838-.883c.566-.1.326-.959-.237-.862" transform="translate(997.048 3631.111)" fill="#ffedee"/>
    <path id="Trazado_883844" data-name="Trazado 883844" d="M183.59,332.181l-3.066,8.166c-.2.539.661.771.861.237q1.533-4.082,3.067-8.166c.2-.539-.661-.771-.862-.237" transform="translate(996.6 3630.728)"/>
    <path id="Trazado_883845" data-name="Trazado 883845" d="M177.1,350.765a.457.457,0,0,0-.549.312l-2.982,7.08a.45.45,0,0,0,.312.55.459.459,0,0,0,.55-.313l2.981-7.08a.45.45,0,0,0-.312-.549" transform="translate(996.56 3630.836)"/>
    <path id="Trazado_883846" data-name="Trazado 883846" d="M168.8,367.635a37.543,37.543,0,0,0-3.746,8.308c-.171.55.691.785.862.237a36.565,36.565,0,0,1,3.655-8.094.447.447,0,0,0-.771-.452" transform="translate(996.511 3630.933)"/>
    <path id="Trazado_883847" data-name="Trazado 883847" d="M160.317,385.55q-1.133,3.722-2.265,7.444a.447.447,0,0,0,.862.237q1.133-3.722,2.265-7.444c.168-.551-.695-.786-.862-.237" transform="translate(996.47 3631.036)"/>
    <path id="Trazado_883848" data-name="Trazado 883848" d="M153.807,402.893l-2.6,7.455c-.19.544.673.777.862.237l2.6-7.455c.19-.544-.673-.777-.862-.237" transform="translate(996.431 3631.136)"/>
    <path id="Trazado_883849" data-name="Trazado 883849" d="M146.828,421.808l-2.676,7.055c-.2.538.66.77.862.237l2.676-7.055c.2-.538-.66-.77-.862-.237" transform="translate(996.39 3631.246)"/>
    <path id="Trazado_883850" data-name="Trazado 883850" d="M140.468,437.711q-1.6,3.945-3.194,7.89c-.215.533.649.764.862.237q1.6-3.945,3.193-7.89c.216-.533-.649-.764-.861-.237" transform="translate(996.35 3631.338)"/>
    <path id="Trazado_883851" data-name="Trazado 883851" d="M132.823,456.164a19.87,19.87,0,0,0-2.519,6.1c-.128.56.734.8.862.238a19.093,19.093,0,0,1,2.429-5.891c.306-.489-.467-.937-.771-.451" transform="translate(996.31 3631.445)"/>
    <path id="Trazado_883852" data-name="Trazado 883852" d="M128.319,471.99a.45.45,0,0,0-.632,0,11.034,11.034,0,0,0-2.323,5.064.46.46,0,0,0,.313.55.451.451,0,0,0,.549-.313,10.164,10.164,0,0,1,2.093-4.67.46.46,0,0,0,0-.632" transform="translate(996.281 3631.537)"/>
    <path id="Trazado_883853" data-name="Trazado 883853" d="M122.012,486.5a22,22,0,0,0-2.573,6.118.447.447,0,0,0,.862.237,21.191,21.191,0,0,1,2.482-5.9c.3-.491-.471-.94-.771-.451" transform="translate(996.246 3631.621)"/>
  </g>
</svg>
