<svg xmlns="http://www.w3.org/2000/svg" xmlns:xlink="http://www.w3.org/1999/xlink" width="117" height="117" viewBox="0 0 117 117">
  <defs>
    <clipPath id="clip-path">
      <rect id="Rectángulo_404436" data-name="Rectángulo 404436" width="76.376" height="84.443" fill="#fff"/>
    </clipPath>
  </defs>
  <g id="Grupo_1105470" data-name="Grupo 1105470" transform="translate(-224.711 -3833.83)">
    <circle id="Elipse_11616" data-name="Elipse 11616" cx="58.5" cy="58.5" r="58.5" transform="translate(224.711 3833.83)" fill="#e8624e"/>
    <g id="Grupo_1105361" data-name="Grupo 1105361" transform="translate(245.022 3850.108)">
      <g id="Grupo_1105360" data-name="Grupo 1105360" clip-path="url(#clip-path)">
        <path id="Trazado_883563" data-name="Trazado 883563" d="M80.446,120.34q-9.712,0-19.425,0c-1.959,0-2.313-.326-2.316-2.217-.01-6.292-.039-12.584.041-18.875a3.468,3.468,0,0,1,1.009-2.234,8.505,8.505,0,0,0,1.106-11.545,23.918,23.918,0,0,1-1.679-2.2,2.1,2.1,0,0,1-.259-1.634,1.843,1.843,0,0,1,1.4-.83c3.93-.067,7.863-.076,11.792,0a3.014,3.014,0,0,1,1.759.886c1.749,1.65,3.414,3.388,5.123,5.08,1.185,1.173,1.851,1.173,3.033,0,1.708-1.693,3.355-3.452,5.131-5.07a3.632,3.632,0,0,1,2.166-.9c3.651-.09,7.307-.081,10.959,0a2.316,2.316,0,0,1,1.8.847,2.429,2.429,0,0,1-.488,1.957c-1.407,1.9-2.954,3.664-3.119,6.2a8.785,8.785,0,0,0,2.833,7.217,3.535,3.535,0,0,1,1,2.241c.079,6.291.052,12.583.041,18.875,0,1.824-.388,2.2-2.2,2.2q-9.851.008-19.7,0m17.21-36.664H90.748a2.46,2.46,0,0,0-.827.019,3.836,3.836,0,0,0-1.283.686c-1.51,1.433-2.969,2.919-4.451,4.381-2.536,2.5-4.848,2.513-7.343.036-1.149-1.141-2.382-2.214-3.412-3.455a4.41,4.41,0,0,0-4.094-1.7c-1.942.152-3.9.035-5.96.035.151.367.19.5.258.619,3.021,5.3,2.531,9.828-1.52,14.5a2.228,2.228,0,0,0-.458,1.35c-.031,5.462-.021,10.924-.016,16.386a7.343,7.343,0,0,0,.079.774H99.4c0-5.9.017-11.688-.032-17.472a2.493,2.493,0,0,0-.721-1.382c-2.868-3.281-3.887-6.99-2.571-11.2a34.816,34.816,0,0,1,1.576-3.573" transform="translate(-42.399 -58.326)" fill="#fff"/>
        <path id="Trazado_883564" data-name="Trazado 883564" d="M125.548,3.91c8.707,1.006,16.376,4.067,22.771,9.911,9.678,8.845,14.061,19.97,12.424,32.921-1.866,14.76-10.087,25.1-23.806,30.976-.424.182-.874.3-1.306.464a1.451,1.451,0,1,1-1.05-2.7c1.689-.744,3.437-1.386,5.046-2.277,9.67-5.351,15.752-13.439,17.872-24.3A35.09,35.09,0,0,0,130.73,7.868c-1.589-.371-3.228-.529-4.844-.786l-.095.329a5.572,5.572,0,0,1,1.74.952,2.218,2.218,0,0,1,.565,1.819,1.894,1.894,0,0,1-1.742.694c-2.768-1.156-5.484-2.445-8.173-3.78a1.391,1.391,0,0,1-.023-2.615C120.82,3,123.538,1.614,126.242.206a1.22,1.22,0,0,1,1.9.707,2.37,2.37,0,0,1-.626,1.837,7.759,7.759,0,0,1-1.97,1.16" transform="translate(-84.704 0)" fill="#fff"/>
        <path id="Trazado_883565" data-name="Trazado 883565" d="M35.149,93.159c-.515-.264-1.032-.521-1.543-.793a1.375,1.375,0,0,1-.8-1.929,1.318,1.318,0,0,1,1.941-.722c2.684,1.238,5.38,2.451,8.023,3.771a1.389,1.389,0,0,1,.013,2.614c-2.662,1.482-5.383,2.859-8.087,4.266a1.219,1.219,0,0,1-1.9-.7,2.35,2.35,0,0,1,.63-1.834,8.184,8.184,0,0,1,2.052-1.18c-2.886-.632-5.72-1.015-8.4-1.88C13.425,90.363,4.567,81.186,1.131,67.262-3.326,49.2,5.7,31.173,22.644,23.511c.882-.4,1.8-.711,2.709-1.054a1.352,1.352,0,0,1,1.9.855,1.336,1.336,0,0,1-.838,1.807c-1.266.56-2.578,1.025-3.808,1.654C12.081,32.154,5.519,40.63,3.463,52.28A34.914,34.914,0,0,0,27.971,92.06c2.292.705,4.7,1.028,7.056,1.529l.121-.43" transform="translate(0 -16.131)" fill="#fff"/>
        <path id="Trazado_883566" data-name="Trazado 883566" d="M165.577,142.379c-1.017,0-1.8.038-2.579-.01-.907-.056-1.607-.622-1.442-1.48a2.085,2.085,0,0,1,1.382-1.354,22.624,22.624,0,0,1,4.138-.042,1.379,1.379,0,0,1,1.4,1.552c0,2.629.007,5.258,0,7.887a1.356,1.356,0,0,1-1.4,1.541c-1.024.021-1.49-.61-1.495-1.589-.011-2.112,0-4.224,0-6.506" transform="translate(-116.692 -100.717)" fill="#fff"/>
        <path id="Trazado_883567" data-name="Trazado 883567" d="M131.978,156.933c0-.369-.146-.846.03-1.086.39-.533.947-1.313,1.427-1.307s1.111.769,1.383,1.34a4.772,4.772,0,0,1,.061,1.778c.025.984-.436,1.682-1.407,1.706-1.056.026-1.537-.693-1.508-1.738.006-.231,0-.462,0-.693h.013" transform="translate(-95.3 -111.64)" fill="#fff"/>
        <path id="Trazado_883568" data-name="Trazado 883568" d="M134.825,127.37c0,.415.161.945-.035,1.219-.355.5-.925,1.159-1.4,1.157a2.01,2.01,0,0,1-1.371-1.167,5.563,5.563,0,0,1-.071-2.053c.011-.913.436-1.528,1.386-1.556,1.021-.03,1.488.585,1.514,1.569.007.276,0,.554,0,.83h-.021" transform="translate(-95.273 -90.278)" fill="#fff"/>
        <path id="Trazado_883569" data-name="Trazado 883569" d="M134.977,186.139c0,.323.009.646,0,.969-.034.916-.475,1.508-1.423,1.523a1.35,1.35,0,0,1-1.468-1.471c-.026-.6-.012-1.2-.009-1.8,0-.993.479-1.6,1.5-1.585a1.357,1.357,0,0,1,1.41,1.533c0,.277,0,.554,0,.83" transform="translate(-95.406 -132.76)" fill="#fff"/>
      </g>
    </g>
  </g>
</svg>
