<svg xmlns="http://www.w3.org/2000/svg" width="12.474" height="16.827" viewBox="0 0 12.474 16.827">
  <g id="modista" transform="translate(-38.81)">
    <g id="Layer_3_14_" transform="translate(38.81)">
      <g id="Grupo_1101998" data-name="Grupo 1101998" transform="translate(0)">
        <path id="Trazado_877377" data-name="Trazado 877377" d="M48.516,1.8a5.505,5.505,0,0,1,.3-1.8h-5.6A4.175,4.175,0,0,1,41.7,4.044v.687a.152.152,0,0,1-.3,0V4.265a4.211,4.211,0,0,1-2.328.7c-.086,0-.173,0-.261-.008V16.484a.291.291,0,0,0,.261.313h.01c.017,0,.916.057,2.318.013v-.588a.152.152,0,0,1,.3,0V16.8a33.8,33.8,0,0,0,4.405-.461l.6-8.98a.151.151,0,0,1,.3-.01l1.1,8.565A22.693,22.693,0,0,0,50.967,15c.228-.091.317-.182.317-.323V6.383A4.894,4.894,0,0,1,48.516,1.8ZM41.7,14.579a.152.152,0,0,1-.3,0V12.937a.152.152,0,0,1,.3,0Zm0-3.282a.152.152,0,0,1-.3,0V9.655a.152.152,0,0,1,.3,0Zm0-3.283a.152.152,0,0,1-.3,0V6.372a.152.152,0,0,1,.3,0Z" transform="translate(-38.81)" fill="#169f70"/>
      </g>
    </g>
  </g>
</svg>
