<svg xmlns="http://www.w3.org/2000/svg" width="28.666" height="48.314" viewBox="0 0 28.666 48.314">
  <g id="Grupo_1105463" data-name="Grupo 1105463" transform="translate(-185.667 -793)">
    <g id="Grupo_1101992" data-name="Grupo 1101992" transform="translate(186.375 793.708)">
      <g id="Grupo_1101991" data-name="Grupo 1101991" transform="translate(0 2.695)">
        <g id="Grupo_1101988" data-name="Grupo 1101988">
          <rect id="Rectángulo_403376" data-name="Rectángulo 403376" width="4.131" height="44.204" transform="translate(11.562)" fill="#f6a96c"/>
          <path id="Trazado_877370" data-name="Trazado 877370" d="M113.636,76.9h23.19a2.026,2.026,0,0,0,2.024-2.179c-.751-9.578-6.169-17.905-6.169-17.905s4.984-6.767,5.358-12.78a1.013,1.013,0,0,0-.586-.982l-8.626-3.807V36.059H121.64v3.193l-8.626,3.807a1.013,1.013,0,0,0-.586.982c.374,6.014,5.358,12.78,5.358,12.78a40.976,40.976,0,0,0-6.175,17.909A2.027,2.027,0,0,0,113.636,76.9Z" transform="translate(-111.606 -36.059)" fill="#f3f0f3"/>
          <path id="Trazado_877371" data-name="Trazado 877371" d="M267.909,74.726c-.751-9.578-6.169-17.9-6.169-17.9s4.984-6.767,5.358-12.78a1.013,1.013,0,0,0-.586-.982l-8.626-3.807V36.059h-3.775v3.193l8.626,3.807a1.013,1.013,0,0,1,.586.982c-.374,6.014-5.358,12.78-5.358,12.78s5.418,8.327,6.169,17.9a2.026,2.026,0,0,1-2.024,2.179h3.775A2.026,2.026,0,0,0,267.909,74.726Z" transform="translate(-240.665 -36.059)" fill="#e2dee2"/>
        </g>
        <g id="Grupo_1101989" data-name="Grupo 1101989" transform="translate(7.163 2.505)">
          <path id="Trazado_877372" data-name="Trazado 877372" d="M190.366,90.921h-2.849V63.6a1,1,0,0,1,1-1h1.853Z" transform="translate(-187.517 -62.606)" fill="#fee45a"/>
          <path id="Trazado_877373" data-name="Trazado 877373" d="M189.868,351.98h-1.853a.5.5,0,0,1-.5-.5v-1.989h2.849v1.989A.5.5,0,0,1,189.868,351.98Z" transform="translate(-187.517 -322.421)" fill="#a79ba7"/>
        </g>
        <g id="Grupo_1101990" data-name="Grupo 1101990" transform="translate(17.222 2.505)">
          <path id="Trazado_877374" data-name="Trazado 877374" d="M296.961,73.879h-2.849V62.606h1.853a1,1,0,0,1,1,1Z" transform="translate(-294.112 -62.606)" fill="#fee45a"/>
          <path id="Trazado_877375" data-name="Trazado 877375" d="M296.463,184.556H294.61a.5.5,0,0,1-.5-.5v-1.989h2.849v1.989A.5.5,0,0,1,296.463,184.556Z" transform="translate(-294.112 -170.796)" fill="#a79ba7"/>
        </g>
      </g>
      <path id="Trazado_877376" data-name="Trazado 877376" d="M231.166,7.5h-3.56a1,1,0,0,0-1,1v1.7h5.552V8.5A1,1,0,0,0,231.166,7.5Z" transform="translate(-215.758 -7.5)" fill="#f6a96c"/>
    </g>
    <g id="Grupo_1101997" data-name="Grupo 1101997" transform="translate(185.667 793)">
      <g id="Grupo_1101996" data-name="Grupo 1101996" transform="translate(0 2.695)">
        <g id="Grupo_1101993" data-name="Grupo 1101993">
          <path id="Trazado_877377" data-name="Trazado 877377" d="M231.475,466.187h-4.131a.708.708,0,0,1-.708-.708v-3.358a.708.708,0,0,1,1.415,0v2.65h2.716v-2.65a.708.708,0,1,1,1.415,0v3.358A.708.708,0,0,1,231.475,466.187Z" transform="translate(-215.074 -420.567)"/>
          <path id="Trazado_877378" data-name="Trazado 877378" d="M324.877,103.573a.708.708,0,0,1-.67-.481,45.02,45.02,0,0,0-4.232-9.062.708.708,0,0,1,.023-.805c.049-.066,4.865-6.673,5.222-12.4a.3.3,0,0,0-.177-.3l-5.552-2.45a.708.708,0,0,1,.572-1.295l5.563,2.455a1.714,1.714,0,0,1,1.007,1.673c-.335,5.382-4.131,11.2-5.215,12.762a47.02,47.02,0,0,1,4.13,8.968.708.708,0,0,1-.67.935Z" transform="translate(-298.785 -72.175)"/>
          <path id="Trazado_877379" data-name="Trazado 877379" d="M130.036,114.453h-23.19a2.735,2.735,0,0,1-2.73-2.934,41.329,41.329,0,0,1,6.025-17.84c-1.091-1.572-4.875-7.381-5.209-12.754a1.71,1.71,0,0,1,.995-1.668L111.5,76.8a.708.708,0,1,1,.572,1.295l-5.559,2.453a.3.3,0,0,0-.165.291c.357,5.739,5.173,12.339,5.222,12.4a.708.708,0,0,1,.016.817,40.592,40.592,0,0,0-6.055,17.564,1.32,1.32,0,0,0,1.319,1.415h23.19a1.313,1.313,0,0,0,.974-.425,1.3,1.3,0,0,0,.345-.99,33.12,33.12,0,0,0-1.005-5.791.708.708,0,0,1,1.369-.359,34.54,34.54,0,0,1,1.047,6.039,2.733,2.733,0,0,1-2.73,2.942Z" transform="translate(-104.108 -72.192)"/>
          <path id="Trazado_877380" data-name="Trazado 877380" d="M218.337,33.167a.708.708,0,0,1-.708-.708V29.974h-5.772V32.46a.708.708,0,0,1-1.415,0V29.267a.708.708,0,0,1,.708-.708h7.188a.708.708,0,0,1,.708.708V32.46A.708.708,0,0,1,218.337,33.167Z" transform="translate(-200.408 -28.559)"/>
          <path id="Línea_4281" data-name="Línea 4281" d="M-2.093-6.085h-4.7A.708.708,0,0,1-7.5-6.792.708.708,0,0,1-6.792-7.5h4.7a.708.708,0,0,1,.708.708A.708.708,0,0,1-2.093-6.085Z" transform="translate(17.534 28.262)"/>
          <path id="Línea_4282" data-name="Línea 4282" d="M-3.007-6.085H-6.792A.708.708,0,0,1-7.5-6.792.708.708,0,0,1-6.792-7.5h3.785a.708.708,0,0,1,.708.708A.708.708,0,0,1-3.007-6.085Z" transform="translate(20.937 10.693)"/>
        </g>
        <g id="Grupo_1101994" data-name="Grupo 1101994" transform="translate(7.163 2.505)">
          <path id="Trazado_877381" data-name="Trazado 877381" d="M183.573,83.593h-2.849a.708.708,0,0,1-.708-.708V65a.708.708,0,0,1,1.415,0V82.178h1.433V56.521h-1.145a.289.289,0,0,0-.288.288v5.277a.708.708,0,0,1-1.415,0V56.81a1.706,1.706,0,0,1,1.7-1.7h1.853a.708.708,0,0,1,.708.708V82.885A.708.708,0,0,1,183.573,83.593Z" transform="translate(-180.017 -55.106)"/>
          <path id="Trazado_877382" data-name="Trazado 877382" d="M183.075,345.9h-1.853a1.207,1.207,0,0,1-1.206-1.206V342.7a.708.708,0,0,1,.708-.708h2.849a.708.708,0,0,1,.708.708v1.989A1.207,1.207,0,0,1,183.075,345.9Zm-1.643-1.415h1.433v-1.071h-1.433Z" transform="translate(-180.017 -314.921)"/>
        </g>
        <g id="Grupo_1101995" data-name="Grupo 1101995" transform="translate(17.222 2.505)">
          <path id="Trazado_877383" data-name="Trazado 877383" d="M290.169,67.794H287.32a.708.708,0,0,1-.708-.708V55.814a.708.708,0,0,1,.708-.708h1.853a1.706,1.706,0,0,1,1.7,1.7V67.087A.708.708,0,0,1,290.169,67.794Zm-2.141-1.415h1.433V56.81a.289.289,0,0,0-.288-.288h-1.145Z" transform="translate(-286.612 -55.106)"/>
          <path id="Trazado_877384" data-name="Trazado 877384" d="M289.67,178.471h-1.853a1.207,1.207,0,0,1-1.206-1.206v-1.989a.708.708,0,0,1,.708-.708h2.849a.708.708,0,0,1,.708.708v1.989A1.207,1.207,0,0,1,289.67,178.471Zm-1.643-1.415h1.433v-1.071h-1.433Z" transform="translate(-286.612 -163.296)"/>
        </g>
      </g>
      <path id="Trazado_877385" data-name="Trazado 877385" d="M220.814,0h3.56a1.7,1.7,0,0,1,1.7,1.7V3.4a.708.708,0,0,1-.708.708h-5.552a.708.708,0,0,1-.708-.708V1.7A1.706,1.706,0,0,1,220.814,0Zm3.848,2.695V1.7a.288.288,0,0,0-.288-.288h-3.56a.289.289,0,0,0-.288.288v.991Z" transform="translate(-208.258)"/>
    </g>
  </g>
</svg>
