<svg id="Grupo_1105370" data-name="Grupo 1105370" xmlns="http://www.w3.org/2000/svg" xmlns:xlink="http://www.w3.org/1999/xlink" width="54.463" height="54.481" viewBox="0 0 54.463 54.481">
  <defs>
    <clipPath id="clip-path">
      <rect id="Rectángulo_404439" data-name="Rectángulo 404439" width="54.463" height="54.481" fill="#fff"/>
    </clipPath>
  </defs>
  <g id="Grupo_1105369" data-name="Grupo 1105369" clip-path="url(#clip-path)">
    <path id="Trazado_883873" data-name="Trazado 883873" d="M13.8,12.286c1.628-1.382,1.628-1.382,3.3-.327.707.448,1.447.852,2.112,1.356a1.665,1.665,0,0,0,2.179.141,1.565,1.565,0,0,0,.619-.725c.354-1.3.663-2.619.94-3.94A1.4,1.4,0,0,1,24.5,7.541c1.1.01,2.191.015,3.287,0a1.406,1.406,0,0,1,1.558,1.255c.26,1.227.53,2.453.827,3.672a1.668,1.668,0,0,0,2.576,1.024c1.039-.647,2.09-1.274,3.106-1.954a1.353,1.353,0,0,1,1.972.18Q39,12.942,40.219,14.112a1.36,1.36,0,0,1,.193,1.974c-.678,1.018-1.311,2.066-1.959,3.1a1.787,1.787,0,0,0,1,2.565c1.217.3,2.441.581,3.672.818a1.372,1.372,0,0,1,1.256,1.542c-.013,1.128-.01,2.256,0,3.384a1.356,1.356,0,0,1-1.2,1.493c-1.165.245-2.328.5-3.483.786a1.971,1.971,0,0,0-1.138,2.785c.456.74.927,1.471,1.389,2.206,1.076,1.711,1.075,1.711-.224,3.295.249.263.5.543.768.809q6.594,6.6,13.189,13.191c.45.451,1,.873.7,1.646-.317.8-1.016.771-1.7.771l-50.853,0C.348,54.478,0,54.13,0,52.661Q0,27.234.009,1.807A2.742,2.742,0,0,1,.259.512c.418-.743,1.2-.666,2.02.148Q6.453,4.825,10.613,9c1.064,1.07,2.1,2.165,3.188,3.283M50.124,52.14,2.365,4.361v6.922c1.153,0,2.244-.01,3.334,0,.993.011,1.47.394,1.438,1.151-.038.9-.633,1.092-1.4,1.083-1.117-.013-2.233,0-3.36,0V16.6c.786,0,1.494-.008,2.2,0,.956.014,1.493.436,1.435,1.167-.067.848-.639,1.123-1.407,1.125s-1.51,0-2.242,0v3.024c1.156,0,2.247-.01,3.338,0,.988.012,1.467.4,1.432,1.158-.041.9-.639,1.085-1.4,1.076-1.116-.014-2.232,0-3.354,0v3.083c.789,0,1.5.01,2.2,0,.769-.013,1.35.23,1.432,1.084.068.713-.5,1.192-1.413,1.21-.755.016-1.509,0-2.236,0v3.024c1.158,0,2.25-.011,3.341,0,.986.013,1.464.407,1.428,1.165-.044.9-.645,1.079-1.407,1.069-1.116-.015-2.232,0-3.381,0v3.083H4.687c.74,0,1.3.294,1.322,1.088.025.839-.525,1.192-1.314,1.2-.764.011-1.529,0-2.325,0v3.025c1.161,0,2.253-.013,3.345,0,.983.015,1.461.413,1.421,1.172-.047.9-.653,1.072-1.413,1.061-1.115-.016-2.231,0-3.367,0v6.694H7.287c0-1.147-.009-2.235,0-3.322.011-1.036.353-1.483,1.121-1.452.949.039,1.127.688,1.122,1.476-.008,1.088,0,2.175,0,3.293H12.57c0-.8.005-1.537,0-2.272-.007-.783.29-1.362,1.138-1.37s1.143.586,1.143,1.361v2.282h3.076c0-1.152-.009-2.241,0-3.33.011-1.03.359-1.477,1.131-1.44.952.046,1.117.7,1.112,1.486-.007,1.087,0,2.175,0,3.278h3.037c0-.807,0-1.543,0-2.28,0-.785.3-1.357,1.15-1.358.863,0,1.133.6,1.131,1.373s0,1.518,0,2.268h3.08c0-1.221,0-2.375,0-3.528,0-.65.223-1.14.946-1.235.744-.1,1.257.351,1.282,1.2.034,1.183.009,2.367.009,3.556h3.04c0-.811,0-1.549,0-2.287,0-.787.313-1.355,1.16-1.348.862.007,1.124.612,1.121,1.383s0,1.515,0,2.254H39.2c0-1.225,0-2.379,0-3.533,0-.7.273-1.208,1.05-1.227.872-.021,1.183.522,1.188,1.307.007,1.152,0,2.3,0,3.488ZM38.032,36.165c0,.012.039-.065.015-.1-.538-.877-1.027-1.792-1.642-2.612a2.261,2.261,0,0,1-.165-2.909c.309-.469.326-1.13.63-1.6a2.725,2.725,0,0,1,1.177-1.072,21.129,21.129,0,0,1,2.619-.639c1.525-.368,1.551-.376,1.406-1.949a1.071,1.071,0,0,0-.616-.733,11.972,11.972,0,0,0-2.347-.537c-1.411-.163-2.424-.71-2.712-2.231a3.306,3.306,0,0,0-.515-1.138,1.459,1.459,0,0,1,.073-1.783c.762-1.148,1.478-2.326,2.178-3.436l-1.561-1.644c-.784.492-1.561.9-2.245,1.426-1.316,1.016-2.629,1.572-4.15.418a1.544,1.544,0,0,0-.547-.183,1.7,1.7,0,0,1-1.448-1.57A23.862,23.862,0,0,0,27.6,11.33c-.38-1.594-.382-1.616-2-1.459a.956.956,0,0,0-.665.561c-.326,1.176-.6,2.369-.836,3.567a2.015,2.015,0,0,1-1.176,1.375,4.289,4.289,0,0,1-5.64-.6,8.077,8.077,0,0,0-1.4-.854l6.535,6.647a6.378,6.378,0,0,1,8.137.6c2.316,2.2,2.573,4.984.849,8.348l6.628,6.656m-8.38-8.4a3.849,3.849,0,0,0-.682-4.981,3.716,3.716,0,0,0-4.752-.514l5.434,5.495" transform="translate(0 0)" fill="#fff"/>
    <path id="Trazado_883874" data-name="Trazado 883874" d="M62.644,147.095q-4.058,0-8.116,0c-1.305,0-1.645-.345-1.645-1.663,0-5.443-.019-10.886.028-16.329a2.021,2.021,0,0,1,.666-1.438c.577-.423,1.122.046,1.581.507q8.321,8.339,16.66,16.66c.464.463.915,1.016.489,1.585a2.067,2.067,0,0,1-1.449.651c-2.736.061-5.475.029-8.212.029M55.25,131.772v12.956H68.192L55.25,131.772" transform="translate(-42.653 -102.844)" fill="#fff"/>
  </g>
</svg>
