<svg xmlns="http://www.w3.org/2000/svg" xmlns:xlink="http://www.w3.org/1999/xlink" width="74" height="74" viewBox="0 0 74 74">
  <defs>
    <clipPath id="clip-path">
      <rect id="Rectángulo_404381" data-name="Rectángulo 404381" width="46" height="46" fill="#fff" stroke="#707070" stroke-width="1"/>
    </clipPath>
  </defs>
  <g id="Grupo_1105465" data-name="Grupo 1105465" transform="translate(-244.289 -8893.77)">
    <circle id="Elipse_11674" data-name="Elipse 11674" cx="37" cy="37" r="37" transform="translate(244.289 8893.77)" fill="#169f70"/>
    <g id="Enmascarar_grupo_1098813" data-name="Enmascarar grupo 1098813" transform="translate(258.289 8906.77)" clip-path="url(#clip-path)">
      <g id="multimedia">
        <path id="Trazado_883410" data-name="Trazado 883410" d="M11.129,34.871A2.967,2.967,0,0,1,8.161,31.9V21.516H3.71A2.967,2.967,0,0,0,.742,24.484V42.29A2.967,2.967,0,0,0,3.71,45.258H25.968a2.967,2.967,0,0,0,2.968-2.968V34.871Zm0,0" fill="#7000d2"/>
        <path id="Trazado_883411" data-name="Trazado 883411" d="M36.355,24.484V31.9a2.967,2.967,0,0,1-2.968,2.968H11.129A2.967,2.967,0,0,1,8.161,31.9V14.1a2.967,2.967,0,0,1,2.968-2.968H33.387A2.967,2.967,0,0,1,36.355,14.1Zm0,0" fill="#fff0f1"/>
        <path id="Trazado_883412" data-name="Trazado 883412" d="M28.935,23,17.065,28.935V17.065Zm0,0" fill="#ffb6b9"/>
        <path id="Trazado_883413" data-name="Trazado 883413" d="M17.065,11.129V3.71A2.967,2.967,0,0,1,20.032.742H42.29A2.967,2.967,0,0,1,45.258,3.71V21.516a2.967,2.967,0,0,1-2.968,2.968H36.355V14.1a2.967,2.967,0,0,0-2.968-2.968Zm0,0" fill="#e8624e"/>
        <path id="Trazado_883414" data-name="Trazado 883414" d="M10.387,40.806V42.29H7.419V39.323h2.968Zm0,0" fill="#e6e9ed"/>
        <g id="Grupo_1105250" data-name="Grupo 1105250">
          <path id="Trazado_883415" data-name="Trazado 883415" d="M10.387,14.839v5.935h1.484V14.839h2.968V13.355H11.871A1.485,1.485,0,0,0,10.387,14.839Zm0,0" fill="#1e1713"/>
          <path id="Trazado_883416" data-name="Trazado 883416" d="M10.387,22.258h1.484v1.484H10.387Zm0,0" fill="#1e1713"/>
          <path id="Trazado_883417" data-name="Trazado 883417" d="M10.387,25.226h1.484V26.71H10.387Zm0,0" fill="#1e1713"/>
          <path id="Trazado_883418" data-name="Trazado 883418" d="M32.645,23.742h1.484v1.484H32.645Zm0,0" fill="#1e1713"/>
          <path id="Trazado_883419" data-name="Trazado 883419" d="M32.645,26.71h1.484v1.484H32.645Zm0,0" fill="#1e1713"/>
          <path id="Trazado_883420" data-name="Trazado 883420" d="M32.645,29.677h1.484v1.484H32.645Zm0,0" fill="#1e1713"/>
          <path id="Trazado_883421" data-name="Trazado 883421" d="M2.968,28.194H4.452v1.484H2.968Zm0,0" fill="#1e1713"/>
          <path id="Trazado_883422" data-name="Trazado 883422" d="M2.968,31.161H4.452v1.484H2.968Zm0,0" fill="#1e1713"/>
          <path id="Trazado_883423" data-name="Trazado 883423" d="M2.968,25.226H4.452V26.71H2.968Zm0,0" fill="#1e1713"/>
          <path id="Trazado_883424" data-name="Trazado 883424" d="M42.29,0H20.032a3.714,3.714,0,0,0-3.71,3.71v6.677H11.129a3.714,3.714,0,0,0-3.71,3.71v6.677H3.71A3.714,3.714,0,0,0,0,24.484V42.29A3.714,3.714,0,0,0,3.71,46H25.968a3.714,3.714,0,0,0,3.71-3.71V35.613h3.71A3.714,3.714,0,0,0,37.1,31.9V25.226H42.29A3.714,3.714,0,0,0,46,21.516V3.71A3.714,3.714,0,0,0,42.29,0Zm-14.1,42.29a2.229,2.229,0,0,1-2.226,2.226H3.71A2.229,2.229,0,0,1,1.484,42.29V24.484A2.229,2.229,0,0,1,3.71,22.258h3.71V31.9a3.714,3.714,0,0,0,3.71,3.71H28.194ZM35.613,31.9a2.229,2.229,0,0,1-2.226,2.226H11.129A2.229,2.229,0,0,1,8.9,31.9V14.1a2.229,2.229,0,0,1,2.226-2.226H33.387A2.229,2.229,0,0,1,35.613,14.1ZM41.548,5.935H31.161V4.452H41.548Zm2.968,15.581a2.229,2.229,0,0,1-2.226,2.226H37.1V14.1a3.714,3.714,0,0,0-3.71-3.71H31.161V7.419H41.548v7.556a2.195,2.195,0,0,0-.742-.137,2.226,2.226,0,1,0,2.226,2.226V2.968H29.677v7.419H17.806V3.71a2.229,2.229,0,0,1,2.226-2.226H42.29A2.229,2.229,0,0,1,44.516,3.71Zm-2.968-4.452a.742.742,0,1,1-.742-.742A.742.742,0,0,1,41.548,17.065Zm0,0" fill="#1e1713"/>
          <path id="Trazado_883425" data-name="Trazado 883425" d="M16.323,30.136,30.594,23,16.323,15.864Zm1.484-11.871L27.277,23l-9.47,4.735Zm0,0" fill="#1e1713"/>
          <path id="Trazado_883426" data-name="Trazado 883426" d="M11.129,38.581H6.677v1.484H2.968v1.484h3.71v1.484h4.452V41.548H26.71V40.065H11.129ZM9.645,41.548H8.161V40.065H9.645Zm0,0" fill="#1e1713"/>
          <path id="Trazado_883427" data-name="Trazado 883427" d="M19.29,2.968h8.9V4.452h-8.9Zm0,0" fill="#1e1713"/>
          <path id="Trazado_883428" data-name="Trazado 883428" d="M19.29,5.935h8.9V7.419h-8.9Zm0,0" fill="#1e1713"/>
        </g>
      </g>
    </g>
  </g>
</svg>
